<svg width="20" height="20" viewBox="0 0 20 20" xmlns="http://www.w3.org/2000/svg"><title>036-crown</title><g fill="#90349B" fill-rule="nonzero"><path d="M19.391 13.02L20 10.585l-.9-6.004a2.863 2.863 0 0 1-.858.145h-.028a2.98 2.98 0 0 1-.635-.083l-2.377 3.974a.586.586 0 0 1-.99.025l-2.876-4.257c-.403.21-.854.341-1.336.341h-.028a2.939 2.939 0 0 1-1.377-.38L5.257 8.669a.586.586 0 0 1-.99-.093L2.315 4.67a2.89 2.89 0 0 1-.556.056H1.73a2.945 2.945 0 0 1-.84-.15L0 10.587l.609 2.432-.247.236a1.173 1.173 0 0 0 .81 2.019h17.656a1.173 1.173 0 0 0 .81-2.019l-.247-.236zM2.93 12.93a.586.586 0 1 1 0-1.172.586.586 0 0 1 0 1.172zm2.344 0a.586.586 0 1 1 0-1.172.586.586 0 0 1 0 1.172zm2.382 0a.586.586 0 1 1 0-1.172.586.586 0 0 1 0 1.172zm4.688 0a.586.586 0 1 1 0-1.172.586.586 0 0 1 0 1.172zm.266-2.46l-1.388.694-.694 1.388a.586.586 0 0 1-1.048 0l-.694-1.388-1.388-.694a.586.586 0 0 1 0-1.048l1.388-.694.694-1.388c.198-.397.849-.397 1.048 0l.694 1.388 1.388.694a.586.586 0 0 1 0 1.048zm2.116 2.46a.586.586 0 1 1 0-1.172.586.586 0 0 1 0 1.172zm2.344 0a.586.586 0 1 1 0-1.172.586.586 0 0 1 0 1.172z"/><path d="M10.524 9.69a.586.586 0 0 1-.263-.263l-.257-.514-.257.514a.587.587 0 0 1-.262.262l-.514.257.514.257a.587.587 0 0 1 .262.262l.257.514.257-.514a.587.587 0 0 1 .263-.262l.513-.257-.513-.257zM10.029 0h-.001c-.969-.028-1.77.8-1.786 1.77-.015.968.76 1.769 1.73 1.785H10a1.76 1.76 0 0 0 1.758-1.73c.015-.968-.76-1.808-1.73-1.824zM18.27 0c-.972-.028-1.77.8-1.786 1.77-.015.968.76 1.769 1.73 1.785h.028A1.76 1.76 0 0 0 20 1.825c.015-.968-.76-1.808-1.73-1.824zM1.787 0C.82-.027.016.8 0 1.77c-.015.968.76 1.769 1.73 1.785h.028a1.76 1.76 0 0 0 1.758-1.73C3.53.858 2.756.018 1.786.002zM18.828 17.656v-1.21H1.172v1.21a1.172 1.172 0 1 0 0 2.344h17.656a1.172 1.172 0 0 0 0-2.344zM12.325 3.756l2.348 3.465 1.347-2.253c-1.034-.573-2.329-.99-3.695-1.212zM3.819 5.058l1.076 2.153 2.662-3.435c-1.393.24-2.706.68-3.738 1.282z"/></g></svg>