<svg xmlns="http://www.w3.org/2000/svg" viewBox="-58.9 209.1 743.8 143.9"><g fill="#3c5a99"><path d="M77.9 272.5c-4.1-8.9-12.6-16.2-26.7-16.2-25.7 0-37.9 19.5-37.9 45.3v5.9c0 25.9 12.3 45.3 37.9 45.3 14 0 22.8-7 26.7-15.9v14h26.9v-92.6H77.9v14.2zm-1.1 36.6c0 13.2-5.8 21.6-17.3 21.6-13 0-18.1-9.1-18.1-23v-6.5c0-13.8 5.1-23 18.1-23 11.5 0 17.3 8.4 17.3 21.6v9.3zM165.2 278.2c7.4 0 14.4 2.1 18.7 4.3l6.2-19.9c-5.7-4-16-6.3-26.9-6.3-32.9 0-47.9 17.7-47.9 46.1v4.3c0 28.4 15 46.1 47.9 46.1 10.9 0 21.2-2.3 26.9-6.2l-6.2-19.9c-4.3 2.1-11.3 4.3-18.7 4.3-15.2 0-21.8-8.8-21.8-23.7v-5.4c0-15 6.6-23.7 21.8-23.7zM-40 244.5v13.8h-18.9v23H-40V351h28v-69.7H9.1l2.3-23H-12v-14.2c0-8.6 2.5-12.5 11.3-12.5l12.4.1v-21.6c-4-.6-10.7-1-16.3-1-26.1 0-35.4 12.2-35.4 35.4zM440.1 256.3c-30.9 0-46.1 19.3-46.1 45.9v4.7c0 26.7 15.2 45.9 46.1 45.9 30.9 0 46.1-19.3 46.1-45.9v-4.7c0-26.7-15.2-45.9-46.1-45.9zm18.1 52.5c0 12.3-5.1 22-18.1 22s-18.1-9.7-18.1-22v-8.6c0-12.3 5.1-22 18.1-22s18.1 9.7 18.1 22v8.6zM654.7 304l29-45.7h-29.8l-27.6 44.2v-93.3l-28 2.5v139.1h28v-45.3l28.8 45.3h29.8zM541.6 256.3c-30.9 0-46.1 19.3-46.1 45.9v4.7c0 26.7 15.2 45.9 46.1 45.9 30.9 0 46.1-19.3 46.1-45.9v-4.7c0-26.7-15.2-45.9-46.1-45.9zm18.2 52.5c0 12.3-5.1 22-18.1 22s-18.1-9.7-18.1-22v-8.6c0-12.3 5.1-22 18.1-22s18.1 9.7 18.1 22v8.6zM346.5 256.3c-13 0-22 6.6-26.1 14.8v-61.9l-28 2.5v139.2h26.5v-14c3.9 8.9 13.6 16 27.6 16 25.7 0 38.1-19.5 38.1-45.3v-6c0-25.9-12.5-45.3-38.1-45.3zm10.1 51.7c0 13-5.1 22.8-18.5 22.8-11.5 0-17.7-8.2-17.7-21.4v-9.7c0-13.2 6.2-21.4 17.7-21.4 13.4 0 18.5 9.7 18.5 22.8v6.9zM239.2 256.2c-30.6 0-45.5 17.3-45.5 43.6v8.3c0 27.2 13.2 44.9 48.6 44.9 13.4 0 28.6-2.9 36-6.8l-5.1-19.3c-8.2 3.5-19.3 5.6-29.8 5.6-15.6 0-21.2-5.6-21.8-18.3h59v-14.8c0-25.7-12.6-43.2-41.4-43.2zm16.3 39.8h-33.8c0-12.5 4.9-20.4 17.5-20.4 12.3 0 16.3 8 16.3 18.1v2.3z"/></g></svg>