<svg id="Layer_1" xmlns="http://www.w3.org/2000/svg" viewBox="0 0 96 96"><style>.st0{fill:#32adff}.st1{fill:#fff}</style><g id="XMLID_1_"><g id="XMLID_9_"><g id="XMLID_24_"><circle id="XMLID_25_" class="st0" cx="48" cy="48" r="48"/></g></g><g id="XMLID_2_"><path id="XMLID_4_" class="st1" d="M33.5 50.4h6v2.9c-1 .9-3 1.8-5.1 1.8-4.4 0-7.5-3.3-7.5-7.9 0-4.5 3.2-7.9 7.5-7.9 2.6 0 4.6 1.4 5.7 3.1l4.2-2.3c-1.8-2.8-4.9-5.4-9.9-5.4-7 0-12.8 4.8-12.8 12.4 0 7.6 5.7 12.5 12.8 12.5 4.4 0 8.2-1.8 10.2-4.5v-8.8h-11v4.1z"/><path id="XMLID_11_" class="st1" d="M48.5 35.4h5v24h-5z"/><path id="XMLID_13_" class="st1" d="M75.5 39.4v-4h-17v24h5v-10h12v-5h-12v-5z"/></g></g></svg>