<svg width="22" height="16" viewBox="0 0 22 16" xmlns="http://www.w3.org/2000/svg"><title>020-credit-card</title><g fill="#FFF" fill-rule="nonzero"><path d="M19.556.144H2.162C.97.144 0 1.114 0 2.306v.721h21.718v-.72c0-1.193-.97-2.163-2.162-2.163zM5.045 10.234a.721.721 0 1 0 .001 1.443.721.721 0 0 0-.001-1.443zM7.928 10.234a.721.721 0 1 0 0 1.443.721.721 0 0 0 0-1.443z"/><path d="M0 5.91v7.928C0 15.03.97 16 2.162 16h17.394c1.192 0 2.162-.97 2.162-2.162V5.91H0zm7.928 7.207a2.146 2.146 0 0 1-1.442-.562 2.146 2.146 0 0 1-1.441.562 2.165 2.165 0 0 1-2.162-2.162c0-1.192.97-2.162 2.162-2.162.556 0 1.058.216 1.441.562a2.146 2.146 0 0 1 1.442-.562c1.192 0 2.162.97 2.162 2.162s-.97 2.162-2.162 2.162zm5.862-1.441h-1.442a.72.72 0 1 1 0-1.442h1.442a.72.72 0 1 1 0 1.442zm4.324 0h-1.441a.72.72 0 1 1 0-1.442h1.441a.72.72 0 1 1 0 1.442z"/></g></svg>