<svg width="20" height="20" viewBox="0 0 20 20" xmlns="http://www.w3.org/2000/svg"><title>giftbox</title><g fill="#FFF" fill-rule="nonzero"><path d="M18.66 3.896h-1.454a2.32 2.32 0 0 0 .354-1.006c.116-1.153-.49-2.187-1.522-2.645a2.548 2.548 0 0 0-2.782.448L11.422 2.36a1.946 1.946 0 0 0-2.884.002L6.7.693A2.55 2.55 0 0 0 3.919.245C2.887.703 2.28 1.737 2.396 2.89c.037.36.163.702.355 1.006H1.3C.584 3.896 0 4.48 0 5.2v1.956c0 .36.291.653.65.653h18.66c.36 0 .651-.292.651-.653V5.2c0-.72-.583-1.304-1.302-1.304zM8.027 3.678v.218H4.966a1.286 1.286 0 0 1-1.244-1.6c.089-.372.357-.689.703-.849a1.251 1.251 0 0 1 1.402.213l2.201 1.999v.02zm8.24-.961c-.048.677-.659 1.179-1.337 1.179h-2.998v-.218-.023L14.1 1.687c.334-.303.8-.444 1.232-.315.619.185.982.712.937 1.345zM1.302 9.113v9.565c0 .72.583 1.305 1.302 1.305h6.075V9.113H1.302zM11.282 9.113v10.87h6.075c.72 0 1.302-.584 1.302-1.305V9.113h-7.377z"/></g></svg>