<svg width="18" height="18" viewBox="0 0 18 18" xmlns="http://www.w3.org/2000/svg"><title>018-settings</title><path d="M17.6 7.474l-2.107-.517a6.792 6.792 0 0 0-.443-1.075l1.076-1.793a.525.525 0 0 0-.074-.644l-1.497-1.497a.525.525 0 0 0-.644-.074L12.118 2.95a6.792 6.792 0 0 0-1.075-.443L10.536.4A.541.541 0 0 0 10.02 0H7.91a.541.541 0 0 0-.517.4l-.506 2.107c-.369.116-.728.263-1.076.443L4.018 1.874a.525.525 0 0 0-.643.074L1.877 3.445a.525.525 0 0 0-.073.644l1.075 1.793c-.179.348-.327.706-.443 1.075l-2.035.517A.52.52 0 0 0 0 7.98v2.11a.52.52 0 0 0 .4.506l2.036.517c.116.369.264.728.443 1.076l-1.075 1.793a.525.525 0 0 0 .073.643l1.498 1.498c.169.168.432.2.643.073l1.793-1.075c.348.179.707.327 1.076.443l.506 2.035c.064.232.275.401.517.401h2.11a.541.541 0 0 0 .516-.4l.507-2.036c.369-.116.727-.264 1.075-.443l1.793 1.075c.211.127.475.095.644-.073l1.497-1.498a.525.525 0 0 0 .074-.643l-1.076-1.793c.18-.348.327-.707.443-1.076l2.106-.517A.52.52 0 0 0 18 10.09V7.98a.52.52 0 0 0-.4-.506zm-8.635 4.198a2.638 2.638 0 0 1 0-5.274 2.638 2.638 0 0 1 0 5.274z" fill="#FFF" fill-rule="nonzero"/></svg>