<svg width="22" height="20" viewBox="0 0 22 20" xmlns="http://www.w3.org/2000/svg"><title>007-coin</title><g fill="#FFF" fill-rule="nonzero"><path d="M0 2.481c0 1.641 2.83 2.5 5.625 2.5s5.625-.859 5.625-2.5C11.25-.801 0-.801 0 2.481z"/><path d="M5.625 6.231C3.602 6.231 0 5.638 0 3.731v1.25c0 1.637 2.825 2.5 5.625 2.5s5.625-.863 5.625-2.5v-1.25c0 1.906-3.585 2.5-5.625 2.5zM5.625 11.231c-2.8 0-5.625-.863-5.625-2.5v1.25c0 1.637 2.825 2.5 5.625 2.5s5.625-.863 5.625-2.5v-1.25c0 1.637-2.825 2.5-5.625 2.5z"/><path d="M5.625 13.731c-2.8 0-5.625-.863-5.625-2.5v1.25c0 1.637 2.825 2.5 5.625 2.5s5.625-.863 5.625-2.5v-1.25c0 1.637-2.825 2.5-5.625 2.5z"/><path d="M5.625 16.231c-2.8 0-5.625-.863-5.625-2.5v1.25c0 1.637 2.825 2.5 5.625 2.5s5.625-.863 5.625-2.5v-1.25c0 1.637-2.825 2.5-5.625 2.5z"/><path d="M5.625 18.731c-2.8 0-5.625-.863-5.625-2.5v1.25c0 1.637 2.825 2.5 5.625 2.5s5.625-.863 5.625-2.5v-1.25c0 1.637-2.825 2.5-5.625 2.5zM5.625 8.731c-2.8 0-5.625-.863-5.625-2.5v1.25c0 1.907 3.602 2.5 5.625 2.5 2.425 0 4.863-.65 5.475-1.875.1-.188.15-.4.15-.625v-1.25c0 1.637-2.825 2.5-5.625 2.5zM15.625 18.731c-1.15 0-2.294-.154-3.255-.439-.125.39-.34.736-.626 1.044 1.059.426 2.472.645 3.881.645 2.8 0 5.708-.863 5.708-2.5v-1.25c0 1.637-2.908 2.5-5.708 2.5zM15.625 13.731c-1.099 0-2.192-.14-3.125-.4v1.254c.933.259 2.028.396 3.125.396 2.8 0 5.708-.863 5.708-2.5v-1.25c0 1.907-3.685 2.5-5.708 2.5z"/><path d="M15.625 16.231a11.77 11.77 0 0 1-3.125-.412v1.257c.932.263 2.023.405 3.125.405 2.04 0 5.708-.595 5.708-2.5v-1.25c0 1.637-2.908 2.5-5.708 2.5zM12.5 7.906v4.16c.934.266 2.021.415 3.125.415 2.795 0 5.708-.859 5.708-2.5 0-2.285-5.523-2.973-8.833-2.075z"/></g></svg>