<svg id="Layer_1" xmlns="http://www.w3.org/2000/svg" viewBox="0 0 69 73"><style>.st0,.st1{fill-rule:evenodd;clip-rule:evenodd;fill:#458afe}.st1{fill:#fff}</style><g id="XMLID_1_"><path id="XMLID_4_" class="st0" d="M34.5 0C15.4 0 0 14.6 0 32.5c0 10.4 5.2 19.7 13.3 25.7L13 58l-1 15 14-9c2.7.6 5.6 1 8.5 1C53.6 65 69 50.4 69 32.5S53.6 0 34.5 0z"/><path id="XMLID_2_" class="st1" d="M14 44s1.6-6 6-11c4-4.5 11-8 11-8s4 2.2 5 3c2.9 2.3 5 5 5 5s3.9-.5 7-2c4.6-2.3 9-6 9-6s-2.6 7.1-7 12c-4.6 5.1-11 8-11 8s-1.8-3.2-4-6c-1.7-2.1-4-4-4-4s-3.4.1-7 2c-4.7 2.5-10 7-10 7z"/></g></svg>