<svg xmlns="http://www.w3.org/2000/svg" viewBox="770 -73 2500 706"><g fill="#262626"><path d="M957.159-58.798C945.2-66.393 931.496-72.46 913.746-72.46c-22.863 0-52.503 24.244-69.988 40.383C805.317 2.045 770.5 64.788 770.5 115.148c0 71.559 60.858 98.571 76.251 98.571 5.075 0 9.402-2.618 9.402-9.505 0-5.398-3.423-9.89-6.829-14.505-14.094-21.547-18.621-42.11-18.621-69.845 0-57.825 26.669-110.828 48.791-135.083 4.079-4.389 13.296-13.871 16.054-13.871 2.738 0 3.416 2.23 3.416 9.122l-2.57 378.481c0 59.167-17.072 82.67-17.072 96.602 0 6.121 2.65 7.71 7.71 7.71 23.959 0 47.835-29.202 54.6-39.852 20.976-36.231 26.121-64.515 26.121-146.096V-41.161c-.001-8.608-2.415-12.33-10.594-17.637zM3259.381 287.015c-6.144 0-9.835 4.53-11.304 11.371-3.571 14.83-6.502 27.548-12.042 42.21-5.295 13.997-13.198 22.147-22.568 22.147-11.006 0-16.592-8.661-19.785-14.014-14.044-21.421-15.17-70.631-15.17-111.704l3.381-105.718c0-8.746-3.651-19.214-17.147-26.932-9.059-5.215-31.972-15.033-46.011-15.033-13.018 0-19.319 7.372-24.011 18.196-8.811 19.439-38.256 95.688-46.151 157.68-.283 1.634-2.32 1.979-2.462-.105-4.104-43.839-6.209-96.659-6.164-132.295 0-10.773-2.635-26.174-25.488-36.154-11.106-4.607-20.293-7.427-31.511-7.427-13.919 0-16.912 6.812-21.897 15.838-15.769 29.134-26.672 67.127-43.016 115.05l.248-109.66c0-5.128-3.143-11.849-12.147-13.659-22.325-5.13-32.668-7.46-41.469-7.46-6.409 0-9.93 5.108-9.93 10.631l-1.199 186.972c-4.319 22.888-21.819 77.52-46.647 77.52-20.378 0-29.887-20.646-29.887-106.947l3.699-140.258c0-8.859-5.816-12.58-14.292-16.331-12.12-4.815-21.762-6.727-34.079-6.727-15.46 0-20.766 7.4-17.638 25.175-16.994-22.993-33.984-35.701-63.999-35.701-60.26 0-105.684 72.485-105.684 177.82-.591 29.537 6.547 58.894 6.547 58.894-5.453 24.515-18.271 44.497-35.979 44.497-22.34 0-36.577-31.584-36.577-86.321 0-54.9 20.911-116.819 20.911-133.601 0-19.512-12.785-31.857-35.415-31.857-11.336 0-53.391 9.54-74.95 12.67 0 0 2.432-10.268 2.252-18.341 0-19.239-9.027-31.296-31.437-31.296-27.385 0-47.492 19.555-47.492 52.915 0 14.967 8.621 28.816 20.032 36.256-14.812 61.782-38.896 107.728-74.387 159.057l2.99-207.848c0-6.757-1.799-10.953-15.035-16.091-6.997-3.023-18.401-6.514-32.775-6.514-20.833 0-19.454 14.877-18.341 26.016-9.532-16.902-30.4-36.964-62.595-36.964-87.733 0-114.667 133.784-101.459 228.794 0 11.584-11.311 52.703-36.859 52.703-20.378 0-29.887-20.646-29.887-106.947l3.734-140.258c0-8.861-5.856-12.583-14.332-16.331-12.12-4.815-21.727-6.727-34.044-6.727-15.463 0-20.768 7.4-17.64 25.173-16.995-22.993-34.019-35.701-64.037-35.701-60.26 0-106.284 66.291-106.284 171.622 0 40.208-34.62 101.564-58.896 101.564-13.486 0-27.845-24.757-27.845-88.011.068-43.116 5.948-189.893 5.948-189.893l84.737-1.374c4.044-.038 6.386-4.457 7.885-7.18 3.891-7.895 5.773-13.153 5.773-22.6 0-8.524-1.707-11.637-12.637-12.252l-84.457-5.07 3.594-78.679c.253-4.967-2.745-8.206-8.168-10.631-16.349-6.394-36.399-12.577-49.096-12.58-11.269 0-16.086 5.891-16.619 24.119l-2.5 75.476-66.009-2.287c-4.004-.103-5.813 1.164-7.565 4.682-5.606 10.511-8.556 18.746-8.556 32.46 0 11.166 5.063 12.357 9.577 12.357l68.679 1.972-.21 144.197c0 30.583-19.299 70.258-53.544 103.256 0 0 2.946-9.962 2.778-20.415 0-29.587-19.042-56.399-44.427-75.373l-61.959-46.612c12.988-15.025 34.992-44.825 34.992-69.988 0-19.51-12.267-27.705-35.135-27.705-32.275 0-69.705 29.56-69.705 73.401 0 15.981 7.11 30.365 17.918 41.366-14.922 28.313-36.036 65.566-51.714 92.095-11.842 20.313-31.875 51.434-43.726 51.434-8.739 0-12.778-13.749-12.778-66.572 0-43.886 3.118-91.602 4.682-137.403 0-10.498-1.722-20.183-15.35-29.677-12.537-8.033-28.021-19.252-43.969-19.252-35.455 0-59.61 32.625-76.179 64.527-17.147 33.063-26.419 60.926-39.5 101.351l1.444-139.127c.445-9.92-2.06-13.771-9.997-17.147-10.298-4.367-25.456-9.402-38.901-9.402-11.236 0-12.603 4.845-12.603 16.652l-1.511 166.94-.173 64.387c0 58.051 7.27 67.73 41.717 67.73 19.072 0 25.18-2.24 25.558-18.093.523-10.486 5.538-35.888 12.322-61.364 19.842-75.195 43.353-134.67 83.891-180 4.227-4.399 7.495-2.825 6.829 3.413 0 0-6.409 101.764-6.409 143.389 0 74.029 11.391 112.658 48.226 112.658 36.151 0 71.657-46.449 91.039-77.805l62.175-103.994c40.288 34.329 68.401 60.946 68.401 93.326 0 20.125-12.698 39.815-32.04 39.815-24.172 0-39.615-25.491-55.941-25.491-13.551 0-30.943 26.161-30.943 41.016 0 14.024 30.603 33.864 85.513 33.864 81.059 0 124.542-55.628 150.638-117.23 4.995 73.113 34.127 115.821 79.562 115.821 29.802 0 64.247-37.653 79.915-83.646 0 0 1.547 11.939 13.446 36.401 16.379 31.944 41.279 46.612 72.207 46.612 38.469 0 71.371-23.321 91.459-62.453 3.046 29.652 27.943 62.307 67.981 62.307 25.133 0 48.046-19.257 63.086-50.976 0 0 19.482 52.387 75.831 52.387 31.649 0 69.127-29.319 78.083-50.623l.986 30.981-83.606 77.1c-24.277 23.566-50.1 57.425-50.1 94.913 0 47.678 45.015 75.093 84.63 75.093 41.179 0 68.501-26.089 83.469-47.948 18.836-28.286 26.792-81.597 26.792-133.709l-1.867-78.361c56.349-61.939 100.45-147.553 120.083-208.128l42.773-1.126c8.286-.558 7.873 2.705 6.727 7.535-7.518 31.767-14.082 67.743-14.082 103.571 0 59.192 13.634 84.95 33.231 106.001 17.04 17.638 33.984 23.586 51.819 23.586 34.88 0 56.777-28.804 63.721-46.962 16.379 31.944 40.508 46.822 71.429 46.822 38.471 0 71.374-23.321 91.464-62.453 3.045 29.652 27.938 62.307 67.978 62.307 29.912 0 47.262-17.26 60.906-49.78.275 10.46.678 21.612.986 32.067.36 5.41 4.685 8.834 8.556 10.245 12.715 4.812 23.876 7.22 33.901 7.22 26.146 0 31.824-5.37 31.824-22.462 0-28.191.826-72.733 8.836-108.496 8.504-35.606 21.336-75.913 39.044-103.959 1.594-2.898 5.5-2.137 5.671 1.374 2.542 60.008 6.557 161.589 22.32 187.886 7.778 12.543 19.807 21.684 37.808 21.684 8.441 0 18.789-3.599 21.437-5.843 2.683-2.092 4.034-4.417 3.871-8.729 0-76.712 23.924-150.979 47.881-200.911.658-1.482 2.525-1.597 2.462.353l-1.336 55.273c0 90.781 6.544 148.133 51.889 175.706a59.42 59.42 0 0 0 29.184 7.565c23.201 0 44.239-12.958 54.637-33.796 8.471-16.194 16.406-47.362 16.406-65.018-.002-6.832.078-17.956-11.125-17.956zm-1417.932 76.322c-24.174 0-42.525-34.122-42.525-101.144 0-67.745 17.921-127.44 56.326-127.44 22.593 0 45.518 20.606 45.518 93.711.001 92.047-33.533 134.873-59.319 134.873zm295.436.558c-20.473 0-44.014-33.616-42.773-99.735 0-42.275 13.784-128.984 58.721-128.984 29.484 0 42.528 30.39 42.528 89.309.001 88.832-26.406 139.41-58.476 139.41zm65.866 68.443v34.99c0 116.106-30.938 135.924-55.798 135.924-9.419 0-32.493-7.115-32.493-35.838 0-40.153 41.98-85.831 55.025-99.945l33.266-35.131zm452.341-69.001c-24.174 0-42.528-34.122-42.528-101.144.002-67.745 17.923-127.44 56.329-127.44 22.593 0 45.518 20.606 45.518 93.711 0 92.047-33.534 134.873-59.319 134.873z"/></g></svg>