<svg xmlns="http://www.w3.org/2000/svg" viewBox="0 0 412 412"><path d="M349.14 0H68.98C32.572 0 0 25.952 0 62.36v280.16C0 378.928 32.572 412 68.98 412h173.466c-.325-54 .077-114.384-.185-166.637-11.064-.112-22.138-.809-33.202-.979.041-18.467.017-37.38.024-55.844 11.057-.137 22.121-.194 33.178-.299.338-17.957-.338-36.041.354-53.982 1.103-14.205 6.519-28.571 17.14-38.385 12.859-12.239 31.142-16.401 48.387-16.916 18.233-.163 36.468-.078 54.71-.07.072 19.24.072 38.481-.008 57.721-11.789-.02-23.585.023-35.374-.025-7.468-.467-15.145 5.198-16.504 12.609-.177 12.875-.064 25.757-.057 38.628 17.285.073 34.577-.02 51.862.044-1.264 18.629-3.581 37.168-6.285 55.637-15.272.137-30.554 1.764-45.818 1.852-.129 52.236.04 111.646-.093 166.646h38.564C385.547 412 412 378.927 412 342.519V62.36C412 25.952 385.548 0 349.14 0z" fill="#395a9a"/></svg>