<svg id="Layer_1" xmlns="http://www.w3.org/2000/svg" viewBox="-412.9 269 32 20"><style>.st0{fill:#f7f7f7}.st1{opacity:.17}.st2{fill:#db4437}</style><path class="st0" d="M-383.9 288h-26c-1.1 0-2-.9-2-2v-14c0-1.1.9-2 2-2h26c1.1 0 2 .9 2 2v14c0 1.1-.9 2-2 2z"/><path d="M-383.9 270c1.1 0 2 .9 2 2v14c0 1.1-.9 2-2 2h-26c-1.1 0-2-.9-2-2v-14c0-1.1.9-2 2-2h26m0-1h-26c-1.7 0-3 1.3-3 3v14c0 1.7 1.3 3 3 3h26c1.7 0 3-1.3 3-3v-14c0-1.7-1.4-3-3-3z" class="st1"/><g><path class="st2" d="M-389.2 278.3v-2.6h-1.9v2.6h-2.6v2h2.6v2.6h1.9v-2.6h2.6v-2zM-401.5 277.7v2.5h3.5c-.3 1.6-1.6 2.7-3.5 2.7-2.1 0-3.8-1.8-3.8-3.9s1.7-3.9 3.8-3.9c1 0 1.8.3 2.5 1l1.9-1.9c-1.2-1-2.6-1.7-4.3-1.7-3.6 0-6.5 2.9-6.5 6.5s2.9 6.5 6.5 6.5c3.8 0 6.2-2.7 6.2-6.4 0-.5-.1-1-.1-1.4h-6.2z"/></g></svg>