<svg id="Layer_1" xmlns="http://www.w3.org/2000/svg" viewBox="0 0 96 96"><style>.st0{fill:#ffcf3a}.st0,.st1{fill-rule:evenodd;clip-rule:evenodd}.st1,.st2{fill:#a2681a}</style><circle id="XMLID_84_" class="st0" cx="48" cy="48" r="48"/><circle id="XMLID_92_" class="st1" cx="26" cy="39" r="8"/><circle id="XMLID_97_" class="st1" cx="70" cy="39" r="8"/><path id="XMLID_3_" class="st2" d="M66.9 56.7c-1.1-.9-2.8-.9-3.8.1-3 2.5-8.7 4.2-15.3 4.2-6.7 0-12.5-1.8-15.4-4.4-1.1-.9-2.7-1-3.8-.1-.2.2-.4.3-.6.5-1.1 1-1.2 2.7-.2 3.8 3.3 3.6 11 6.2 19.9 6.2 8.6 0 16-2.3 19.5-5.7 1.3-1.2 1.2-3.2-.1-4.4-.1-.1-.2-.1-.2-.2z"/></svg>