<svg xmlns="http://www.w3.org/2000/svg" viewBox="200 13.1 560 534.1"><title>star</title><path d="M759.3 216.2c-2-6.2-8.1-10.1-18.2-11.6L572.2 180 496.5 26.9c-4.7-9.2-10.2-13.8-16.5-13.8-6.5 0-12 4.6-16.5 13.8L387.8 180l-168.9 24.6c-10.1 1.6-16.2 5.4-18.2 11.6-2 6.2.6 12.8 7.8 20L331 355.3l-29 168.4c-1.1 7.4-.4 13.2 2 17.3 2.5 4.2 6.3 6.2 11.4 6.2 3.8 0 8.3-1.3 13.5-4L480 463.8l151.1 79.4c5.2 2.7 9.6 4 13.5 4 5.2 0 9-2.1 11.4-6.2 2.5-4.2 3.2-9.9 2-17.3l-28.9-168.3 122.1-119.1c7.5-7.2 10.2-13.9 8.1-20.1z"/></svg>