<svg xmlns="http://www.w3.org/2000/svg" viewBox="0 0 512 512"><circle cx="256" cy="256" r="246" fill="#52bfef"/><circle cx="256" cy="256" r="157" fill="#fff"/><circle cx="256" cy="256" r="119" fill="#52bfef"/><g fill="#fff"><path d="M147.392 142.633c28.155-26.98 66.338-43.576 108.399-43.631l.007-.002V14l-17.004-3.392C176.835 14.89 121.199 42.111 80.302 83.843l5.041 1.526 58.637 58.637 3.412-1.373zM367.003 367.028c-15.03 15.027-33.094 27.018-53.193 34.983l-.003.002-.004.001C295.914 409.102 276.412 413 256 413l-.189-.002-.013.002v85.728l7.545 3.154c64.089-1.879 122.018-28.273 164.755-70.127v-3.631l-61.095-61.096zM367.812 149.437c26.98 28.155 43.576 66.338 43.631 108.399l.003.007h85l3.392-17.004c-4.282-61.958-31.503-117.595-73.235-158.491l-1.526 5.041-58.637 58.637 1.372 3.411zM143.417 369.048c-15.027-15.03-27.018-33.094-34.983-53.193l-.002-.003-.001-.004c-7.088-17.89-10.986-37.391-10.986-57.803l.002-.189-.002-.013H11.717l-3.154 7.545c1.879 64.089 28.273 122.018 70.127 164.755h3.631l61.096-61.095z"/></g><path d="M437.02 74.981C388.667 26.628 324.38 0 256 0S123.333 26.628 74.98 74.981C26.629 123.333 0 187.62 0 256s26.629 132.667 74.98 181.019C123.333 485.372 187.62 512 256 512s132.667-26.628 181.02-74.981C485.371 388.667 512 324.38 512 256s-26.629-132.667-74.98-181.019zm-14.351 170.655c-2.361-38.37-17.734-73.272-41.755-100.345l48.83-48.83c36.449 39.663 59.523 91.792 62.016 149.174h-69.091v.001zm-402.456 20h15.175c1.721 32.403 10.078 64.623 24.313 93.57a9.999 9.999 0 0 0 8.981 5.589 9.959 9.959 0 0 0 4.405-1.029c4.956-2.438 6.998-8.431 4.561-13.387-12.896-26.223-20.52-55.382-22.222-84.744h33.858c2.212 38.688 17.654 73.886 41.86 101.139l-48.828 48.829c-36.637-39.838-59.774-92.266-62.103-149.967zm62.086-169.22l48.829 48.829c-24.045 27.079-39.434 61.999-41.797 100.391H20.24c2.494-57.405 25.586-109.552 62.059-149.22zm284.476 34.729c-27.12-24.088-62.108-39.494-100.573-41.824V20.234c57.478 2.458 109.693 25.564 149.401 62.082l-48.828 48.829zm-120.573-41.85c-38.602 2.245-73.722 17.659-100.931 41.809L96.442 82.275c39.795-36.579 92.145-59.69 149.76-62.056v69.076zM145.291 380.913c27.206 24.139 62.318 39.547 100.911 41.791v69.076c-57.606-2.365-109.948-25.469-149.741-62.038l48.83-48.829zm120.911 41.766c38.456-2.329 73.437-17.729 100.553-41.807l48.828 48.829c-39.706 36.508-91.913 59.607-149.382 62.065v-69.087h.001zM256 403c-81.056 0-147-65.944-147-147 0-40.213 16.236-76.7 42.49-103.267.228-.191.452-.388.666-.602.213-.213.409-.436.599-.663C179.32 125.227 215.799 109 256 109c81.056 0 147 65.944 147 147s-65.944 147-147 147zm173.726 12.558l-48.829-48.829c24.183-27.247 39.608-62.427 41.819-101.093h69.072c-2.33 57.679-25.449 110.089-62.062 149.922z"/><path d="M94.403 378.855a10.21 10.21 0 0 0-.776-1.117c-3.449-4.311-9.741-5.013-14.056-1.562-4.114 3.291-4.939 9.169-2.012 13.448a9.995 9.995 0 0 0 13.413 2.95c4.737-2.841 6.272-8.983 3.431-13.719zM257.114 364.997h-.063l-.317.002c-5.522.034-9.973 4.539-9.938 10.062.034 5.502 4.505 9.938 9.999 9.938h.063l.317-.002c5.522-.034 9.973-4.539 9.938-10.062-.034-5.501-4.505-9.938-9.999-9.938z"/><path d="M346.472 164.04c-24.563-24.168-57.101-37.321-91.524-37.046-71.132.575-128.533 58.914-127.959 130.046.218 26.847 8.599 52.518 24.236 74.235 15.285 21.227 36.313 37.141 60.813 46.022a9.983 9.983 0 0 0 3.407.602 10.004 10.004 0 0 0 3.409-19.405c-42.618-15.449-71.499-56.286-71.865-101.617-.486-60.104 48.017-109.398 108.121-109.885 29.088-.248 56.58 10.881 77.335 31.303 20.754 20.421 32.313 47.703 32.549 76.818.367 45.332-27.85 86.63-70.213 102.766-5.161 1.966-7.751 7.744-5.785 12.905 1.965 5.161 7.742 7.749 12.904 5.786 24.354-9.276 45.122-25.528 60.062-47 15.285-21.968 23.249-47.771 23.032-74.619-.28-34.456-13.96-66.743-38.522-90.911z"/><path d="M334.751 230.852c0-22.526-18.326-40.852-40.853-40.852-22.525 0-40.852 18.326-40.852 40.852 0 5.523 4.478 10 10 10s10-4.477 10-10c0-11.498 9.354-20.852 20.852-20.852s20.853 9.354 20.853 20.852c0 20.545-35.481 55.837-57.844 73.255a10.001 10.001 0 0 0 6.14 17.893h61.704c5.522 0 10-4.477 10-10s-4.478-10-10-10h-34.833c19.343-18.207 44.833-46.816 44.833-71.148zM242.481 224.846c-3.906-3.905-10.236-3.905-14.143 0l-17.009 17.009-17.009-17.009c-3.906-3.905-10.236-3.905-14.143 0-3.905 3.905-3.905 10.237 0 14.143l17.009 17.009-17.009 17.009c-3.905 3.905-3.905 10.237 0 14.143 1.953 1.953 4.512 2.929 7.071 2.929s5.118-.976 7.071-2.929l17.009-17.009 17.009 17.009c1.953 1.953 4.512 2.929 7.071 2.929s5.118-.976 7.071-2.929c3.905-3.905 3.905-10.237 0-14.143l-17.009-17.009 17.009-17.009c3.908-3.906 3.908-10.238.002-14.143z"/></svg>