<svg xmlns="http://www.w3.org/2000/svg" viewBox="0 0 512 512"><circle cx="256" cy="256" r="256" fill="#005ece"/><path d="M510.385 285.134l-156.41-156.41-.494.027c-9.253-9.016-22.318-16.6-37.937-22.024-.757-.263-1.519-.52-2.287-.772-6.915-2.273-14.303-4.127-22.058-5.506a175.811 175.811 0 0 0-5.225-.848 182.954 182.954 0 0 0-10.746-1.255 190.87 190.87 0 0 0-11.099-.642 193.392 193.392 0 0 0-5.664-.081c-7.6 0-15.019.44-22.185 1.278a181.881 181.881 0 0 0-7.952 1.108c-1.741.283-3.465.589-5.17.919a167.475 167.475 0 0 0-7.542 1.638 151.373 151.373 0 0 0-16.484 4.966 135.84 135.84 0 0 0-4.392 1.695c-7.194 2.923-13.746 6.328-19.513 10.132a95.76 95.76 0 0 0-1.706 1.153c-11.778 8.155-20.028 18.035-23.418 28.878a39.288 39.288 0 0 0-.451 1.555 37.058 37.058 0 0 0-1.268 9.58v11.274c-13.886 9.409-23.037 21.172-25.333 34.098a36.692 36.692 0 0 0-.568 6.431v35.545c0 17.713 12.818 33.714 33.437 45.146-2.578 3.764-4.542 7.703-5.817 11.779a39.288 39.288 0 0 0-.451 1.555 37.058 37.058 0 0 0-1.268 9.58v35.545c0 11.258 5.181 21.825 14.249 30.967l-.08.444L289.49 509.827c116.065-15.146 207.676-108.032 220.895-224.693z" fill="#00479b"/><path d="M258.418 253.028c-60.796 0-110.081 28.163-110.081 62.904v35.545c0 34.74 49.284 62.904 110.081 62.904s110.081-28.163 110.081-62.904v-35.545c0-34.741-49.286-62.904-110.081-62.904z" fill="#ffa733"/><path d="M258.418 253.028v161.351c60.796 0 110.081-28.163 110.081-62.904V315.93c0-34.739-49.286-62.902-110.081-62.902z" fill="#ff9811"/><ellipse cx="258.415" cy="315.937" rx="110.08" ry="62.909" fill="#ffda44"/><path d="M258.418 253.028v125.807c60.796 0 110.081-28.162 110.081-62.904s-49.286-62.903-110.081-62.903z" fill="#ffcd00"/><ellipse cx="258.415" cy="311.786" rx="82.566" ry="43.026" fill="#fff"/><path d="M258.418 268.754v86.053c45.597 0 82.561-19.263 82.561-43.026-.001-23.763-36.965-43.027-82.561-43.027z" fill="#e0e0e2"/><path d="M271.368 201.226c-60.796 0-110.081 28.163-110.081 62.904v35.545c0 34.74 49.284 62.904 110.081 62.904s110.081-28.163 110.081-62.904V264.13c0-34.742-49.286-62.904-110.081-62.904z" fill="#ffa733"/><path d="M271.368 201.226v161.351c60.796 0 110.081-28.163 110.081-62.904v-35.545c0-34.74-49.286-62.902-110.081-62.902z" fill="#ff9811"/><ellipse cx="271.371" cy="264.125" rx="110.08" ry="62.909" fill="#ffda44"/><path d="M271.368 201.226v125.807c60.796 0 110.081-28.162 110.081-62.904s-49.285-62.903-110.081-62.903z" fill="#ffcd00"/><ellipse cx="271.371" cy="259.974" rx="82.566" ry="43.026" fill="#fff"/><path d="M271.368 216.951v86.053c45.597 0 82.561-19.263 82.561-43.026s-36.964-43.027-82.561-43.027z" fill="#e0e0e2"/><path d="M232.516 149.423c-60.796 0-110.081 28.163-110.081 62.904v35.545c0 34.74 49.284 62.904 110.081 62.904s110.081-28.163 110.081-62.904v-35.545c0-34.741-49.286-62.904-110.081-62.904z" fill="#ffa733"/><path d="M232.516 149.423v161.351c60.796 0 110.081-28.163 110.081-62.904v-35.545c0-34.739-49.286-62.902-110.081-62.902z" fill="#ff9811"/><ellipse cx="232.515" cy="212.324" rx="110.08" ry="62.909" fill="#ffda44"/><path d="M232.516 149.423V275.23c60.796 0 110.081-28.162 110.081-62.904s-49.286-62.903-110.081-62.903z" fill="#ffcd00"/><ellipse cx="232.515" cy="208.173" rx="82.566" ry="43.026" fill="#fff"/><path d="M232.516 165.149v86.053c45.597 0 82.561-19.263 82.561-43.026 0-23.764-36.964-43.027-82.561-43.027z" fill="#e0e0e2"/><path d="M258.418 97.621c-60.796 0-110.081 28.163-110.081 62.904v35.545c0 34.74 49.284 62.904 110.081 62.904s110.081-28.163 110.081-62.904v-35.546c0-34.741-49.286-62.903-110.081-62.903z" fill="#ffa733"/><path d="M258.418 97.621v161.351c60.796 0 110.081-28.163 110.081-62.904v-35.545c0-34.74-49.286-62.902-110.081-62.902z" fill="#ff9811"/><ellipse cx="258.415" cy="160.523" rx="110.08" ry="62.909" fill="#ffda44"/><path d="M258.418 97.621v125.807c60.796 0 110.081-28.162 110.081-62.904s-49.286-62.903-110.081-62.903z" fill="#ffcd00"/><ellipse cx="258.415" cy="156.371" rx="82.566" ry="43.026" fill="#fff"/><path d="M258.418 113.346v86.053c45.597 0 82.561-19.263 82.561-43.026-.001-23.764-36.965-43.027-82.561-43.027z" fill="#e0e0e2"/></svg>