<?xml version="1.0" encoding="utf-8"?>
<!-- Generator: Adobe Illustrator 19.0.0, SVG Export Plug-In . SVG Version: 6.00 Build 0)  -->
<svg version="1.1" id="Layer_1" xmlns="http://www.w3.org/2000/svg" xmlns:xlink="http://www.w3.org/1999/xlink" x="0px" y="0px"
	 viewBox="-474 275.4 9.9 9.9" style="enable-background:new -474 275.4 9.9 9.9;" xml:space="preserve">
<style type="text/css">
	.st0{fill:#FFFFFF;}
</style>
<path class="st0" d="M-465.1,279.3l-2.7-0.2l-0.2-2.7c0-0.6-0.5-1-1-1c-0.6,0-1,0.5-1,1l-0.2,2.7l-2.7,0.2c-0.6,0-1,0.5-1,1
	c0,0.6,0.5,1,1,1c0,0,0,0,0,0l2.7,0.2l0.2,2.7c0,0.6,0.5,1,1,1c0.6,0,1-0.5,1-1l0.2-2.7l2.7-0.2c0.6,0,1-0.5,1-1h0
	C-464.1,279.7-464.6,279.3-465.1,279.3z"/>
</svg>
