<?xml version="1.0" encoding="utf-8"?>
<!-- Generator: Adobe Illustrator 19.0.0, SVG Export Plug-In . SVG Version: 6.00 Build 0)  -->
<svg version="1.1" id="Layer_1" xmlns="http://www.w3.org/2000/svg" xmlns:xlink="http://www.w3.org/1999/xlink" x="0px" y="0px"
	 viewBox="-669.9 428.7 249.6 145.6" style="enable-background:new -669.9 428.7 249.6 145.6;" xml:space="preserve">
<style type="text/css">
	.st0{fill:#999999;}
</style>
<title></title>
<g id="icomoon-ignore">
</g>
<path class="st0" d="M-422.8,443.8l-12.5-12.5c-1.5-1.5-3.8-2.5-5.8-2.5s-4.3,1-5.8,2.5l-98.1,98.2l-98.3-98.3
	c-1.5-1.5-3.8-2.5-5.8-2.5c-2.3,0-4.3,1-5.8,2.5l-12.5,12.5c-1.5,1.5-2.5,3.8-2.5,5.8s1,4.3,2.5,5.8l116.5,116.5
	c1.5,1.5,3.8,2.5,5.8,2.5s4.3-1,5.8-2.5l116.5-116.5c1.5-1.5,2.5-3.8,2.5-5.8S-421.3,445.3-422.8,443.8z"/>
</svg>
