<?xml version="1.0" encoding="utf-8"?>
<!-- Generator: Adobe Illustrator 19.0.0, SVG Export Plug-In . SVG Version: 6.00 Build 0)  -->
<svg version="1.1" id="Layer_1" xmlns="http://www.w3.org/2000/svg" xmlns:xlink="http://www.w3.org/1999/xlink" x="0px" y="0px"
	 viewBox="-474 275 10.1 10.1" style="enable-background:new -474 275 10.1 10.1;" xml:space="preserve">
<style type="text/css">
	.st0{fill:#FD486B;}
</style>
<path class="st0" d="M-464.3,282.8l-2.4-2.7l2.4-2.7c0.5-0.5,0.5-1.4,0-1.9c-0.5-0.5-1.4-0.5-1.9,0c0,0,0,0,0,0l-2.7,2.3l-2.7-2.3
	c-0.5-0.6-1.4-0.6-1.9,0c-0.6,0.5-0.6,1.4,0,1.9c0,0,0,0,0,0l2.3,2.7l-2.3,2.7c-0.5,0.5-0.5,1.4,0,1.9s1.4,0.5,1.9,0l2.7-2.4
	l2.7,2.4c0.5,0.5,1.4,0.5,1.9,0C-463.8,284.2-463.8,283.3-464.3,282.8z"/>
</svg>
