<?xml version="1.0" encoding="UTF-8"?>
<svg width="20px" height="20px" viewBox="0 0 20 20" version="1.1" xmlns="http://www.w3.org/2000/svg" xmlns:xlink="http://www.w3.org/1999/xlink">
    <!-- Generator: Sketch 50 (54983) - http://www.bohemiancoding.com/sketch -->
    <title>036-crown</title>
    <desc>Created with Sketch.</desc>
    <defs></defs>
    <g id="takeover-mvp" stroke="none" stroke-width="1" fill="none" fill-rule="evenodd">
        <g id="member" transform="translate(-90.000000, -548.000000)" fill="#90349B" fill-rule="nonzero">
            <g id="left" transform="translate(-4.000000, 66.000000)">
                <g id="top-tipper" transform="translate(37.000000, 482.000000)">
                    <g id="036-crown" transform="translate(57.000000, 0.000000)">
                        <path d="M19.3914453,13.0192187 L19.9996484,10.5862891 L19.1008203,4.58246094 C18.8271094,4.66808594 18.5421094,4.72714844 18.2419141,4.72714844 L18.2138672,4.72714844 C17.9946484,4.72335937 17.7832031,4.69261719 17.5786719,4.64433594 L15.2024609,8.61835937 C14.9814453,8.98785156 14.4507812,9.00085937 14.2120312,8.64253906 L11.3363281,4.38605469 C10.9329297,4.59664063 10.4825,4.72714844 10,4.72714844 L9.97195312,4.72714844 C9.46839844,4.71847656 9.00480469,4.574375 8.5946875,4.34777344 L5.25734375,8.66828125 C4.99433594,9.01269531 4.46152344,8.96246094 4.26761719,8.57492188 L2.31433594,4.67101563 C2.13378906,4.70636719 1.94828125,4.72714844 1.758125,4.72714844 L1.73007813,4.72714844 C1.43511719,4.72207031 1.15742188,4.66164063 0.89046875,4.5775 L0.000390625,10.5862891 L0.60859375,13.0192188 L0.361992188,13.2549609 C0.131953125,13.4741016 0.0003515625,13.783125 0.0003515625,14.1017969 C0.0003515625,14.7477734 0.526171875,15.2736328 1.1721875,15.2736328 L18.8277734,15.2736328 C19.47375,15.2736328 19.9996094,14.7478125 19.9996094,14.1017969 C19.9996094,13.7830859 19.8680078,13.4741406 19.6379688,13.2549609 L19.3914453,13.0192187 Z M2.92996094,12.9299609 C2.60636719,12.9299609 2.3440625,12.6676172 2.3440625,12.3440625 C2.3440625,12.0203906 2.60640625,11.7581641 2.92996094,11.7581641 C3.25351563,11.7581641 3.51585938,12.0204297 3.51585938,12.3440625 C3.51589844,12.6676172 3.25351563,12.9299609 2.92996094,12.9299609 Z M5.27363281,12.9299609 C4.95003906,12.9299609 4.68773438,12.6676172 4.68773438,12.3440625 C4.68773438,12.0203906 4.95007813,11.7581641 5.27363281,11.7581641 C5.5971875,11.7581641 5.85953125,12.0204297 5.85953125,12.3440625 C5.85957031,12.6676172 5.5971875,12.9299609 5.27363281,12.9299609 Z M7.65636719,12.9299609 C7.33277344,12.9299609 7.07046875,12.6676172 7.07046875,12.3440625 C7.07046875,12.0203906 7.3328125,11.7581641 7.65636719,11.7581641 C7.97992187,11.7581641 8.24226562,12.0204297 8.24226562,12.3440625 C8.24226562,12.6676172 7.97988281,12.9299609 7.65636719,12.9299609 Z M12.3436719,12.9299609 C12.0200781,12.9299609 11.7577734,12.6676172 11.7577734,12.3440625 C11.7577734,12.0203906 12.0201172,11.7581641 12.3436719,11.7581641 C12.6672266,11.7581641 12.9295703,12.0204297 12.9295703,12.3440625 C12.9296094,12.6676172 12.6672266,12.9299609 12.3436719,12.9299609 Z M12.6097266,10.4701563 L11.2221875,11.1636328 L10.528125,12.5517578 C10.4285547,12.7503125 10.2260156,12.875625 10.0039844,12.875625 C9.78195313,12.875625 9.57882812,12.7503125 9.47988281,12.5517578 L8.78640625,11.1636328 L7.39828125,10.4701563 C7.19972656,10.3711719 7.07441406,10.1680469 7.07441406,9.94601563 C7.07441406,9.72398438 7.19972656,9.52085938 7.39828125,9.42191406 L8.78640625,8.7284375 L9.47988281,7.3403125 C9.67785156,6.94320312 10.3289844,6.94320312 10.528125,7.3403125 L11.2221875,8.7284375 L12.6097266,9.42191406 C12.8082812,9.52148438 12.9335937,9.72402344 12.9335937,9.94601562 C12.9335938,10.1680078 12.8082813,10.3705859 12.6097266,10.4701563 Z M14.7264063,12.9299609 C14.4028125,12.9299609 14.1405078,12.6676172 14.1405078,12.3440625 C14.1405078,12.0203906 14.4028516,11.7581641 14.7264063,11.7581641 C15.0499609,11.7581641 15.3123047,12.0204297 15.3123047,12.3440625 C15.3123438,12.6676172 15.0499609,12.9299609 14.7264063,12.9299609 Z M17.0700781,12.9299609 C16.7464844,12.9299609 16.4841797,12.6676172 16.4841797,12.3440625 C16.4841797,12.0203906 16.7465234,11.7581641 17.0700781,11.7581641 C17.3936328,11.7581641 17.6559766,12.0204297 17.6559766,12.3440625 C17.6559766,12.6676172 17.3936328,12.9299609 17.0700781,12.9299609 Z" id="Shape"></path>
                        <path d="M10.5235547,9.68910156 C10.4102734,9.63246094 10.318125,9.54035156 10.2614844,9.42703125 L10.0039844,8.91261719 L9.74707031,9.42703125 C9.69042969,9.5403125 9.59828125,9.63246094 9.485,9.68910156 L8.97058594,9.94601562 L9.485,10.2029297 C9.59828125,10.2595703 9.69042969,10.3517187 9.74707031,10.465 L10.0039844,10.9794141 L10.2614844,10.465 C10.318125,10.3517187 10.4102734,10.2595703 10.5235547,10.2029297 L11.0373828,9.94601562 L10.5235547,9.68910156 Z" id="Shape"></path>
                        <path d="M10.0286328,0.0007421875 L10.0280469,0.0007421875 C9.05933594,-0.0284375 8.25828125,0.800234375 8.24226563,1.76949219 C8.22683594,2.73765625 9.00269531,3.53867187 9.97199219,3.55527344 C9.98113281,3.55527344 9.99085938,3.55527344 10.0000391,3.55527344 C10.9555859,3.55527344 11.7417578,2.78570312 11.7577734,1.82558594 C11.7732422,0.857460937 10.9973438,0.01734375 10.0286328,0.0007421875 Z" id="Shape"></path>
                        <path d="M18.2705078,0.0007421875 L18.2699219,0.0007421875 C17.2983594,-0.0284375 16.5001563,0.800234375 16.4841406,1.76949219 C16.4686719,2.73761719 17.2445703,3.53867187 18.2138281,3.55527344 C18.2229688,3.55527344 18.2326953,3.55527344 18.241875,3.55527344 C19.1974219,3.55527344 19.9835938,2.78570312 19.9996094,1.82558594 C20.0150781,0.857460937 19.2392188,0.01734375 18.2705078,0.0007421875 Z" id="Shape"></path>
                        <path d="M1.78671875,0.0007421875 L1.78613281,0.0007421875 C0.8203125,-0.0284375 0.01640625,0.800234375 0.000390625,1.76949219 C-0.015078125,2.73761719 0.760820312,3.53867187 1.73007812,3.55527344 C1.73921875,3.55527344 1.74894531,3.55527344 1.758125,3.55527344 C2.71367187,3.55527344 3.49984375,2.78570312 3.51585937,1.82558594 C3.53132812,0.857460937 2.75542969,0.01734375 1.78671875,0.0007421875 Z" id="Shape"></path>
                        <path d="M18.8278125,17.6563281 L18.8278125,16.4454297 L1.17222656,16.4454297 L1.17222656,17.6563281 C0.525039063,17.6563281 0.000390625,18.1809375 0.000390625,18.8281641 C0.000390625,19.4753125 0.525039063,20 1.17222656,20 L18.8278125,20 C19.475,20 19.9996484,19.4752734 19.9996484,18.8281641 C19.9996484,18.1809766 19.4750391,17.6563281 18.8278125,17.6563281 Z" id="Shape"></path>
                        <path d="M12.3247656,3.75636719 L14.6725781,7.22074219 L16.0198828,4.96769531 C14.9861719,4.395 13.6914453,3.97878906 12.3247656,3.75636719 Z" id="Shape"></path>
                        <path d="M3.81863281,5.05847656 L4.89542969,7.21097656 L7.5571875,3.7759375 C6.16421875,4.01527344 4.85140625,4.45601563 3.81863281,5.05847656 Z" id="Shape"></path>
                    </g>
                </g>
            </g>
        </g>
    </g>
</svg>