<?xml version="1.0" encoding="iso-8859-1"?>
<!-- Generator: Adobe Illustrator 19.0.0, SVG Export Plug-In . SVG Version: 6.00 Build 0)  -->
<svg version="1.1" id="Ebene_1" xmlns="http://www.w3.org/2000/svg" xmlns:xlink="http://www.w3.org/1999/xlink" x="0px" y="0px"
	 viewBox="-58.9 209.1 743.8 143.9" style="enable-background:new -58.9 209.1 743.8 143.9;" xml:space="preserve">
<g>
	<path style="fill:#3C5A99;" d="M77.9,272.5c-4.1-8.9-12.6-16.2-26.7-16.2c-25.7,0-37.9,19.5-37.9,45.3v5.9
		c0,25.9,12.3,45.3,37.9,45.3c14,0,22.8-7,26.7-15.9v14h26.9v-92.6H77.9V272.5z M76.8,309.1c0,13.2-5.8,21.6-17.3,21.6
		c-13,0-18.1-9.1-18.1-23v-6.5c0-13.8,5.1-23,18.1-23c11.5,0,17.3,8.4,17.3,21.6V309.1z"/>
	<path style="fill:#3C5A99;" d="M165.2,278.2c7.4,0,14.4,2.1,18.7,4.3l6.2-19.9c-5.7-4-16-6.3-26.9-6.3c-32.9,0-47.9,17.7-47.9,46.1
		v4.3c0,28.4,15,46.1,47.9,46.1c10.9,0,21.2-2.3,26.9-6.2l-6.2-19.9c-4.3,2.1-11.3,4.3-18.7,4.3c-15.2,0-21.8-8.8-21.8-23.7v-5.4
		C143.4,286.9,150,278.2,165.2,278.2z"/>
	<path style="fill:#3C5A99;" d="M-40,244.5v13.8h-18.9v23H-40V351h28v-69.7H9.1l2.3-23H-12v-14.2c0-8.6,2.5-12.5,11.3-12.5l12.4,0.1
		v-21.6c-4-0.6-10.7-1-16.3-1C-30.7,209.1-40,221.3-40,244.5z"/>
	<path style="fill:#3C5A99;" d="M440.1,256.3c-30.9,0-46.1,19.3-46.1,45.9v4.7c0,26.7,15.2,45.9,46.1,45.9
		c30.9,0,46.1-19.3,46.1-45.9v-4.7C486.2,275.5,471,256.3,440.1,256.3z M458.2,308.8c0,12.3-5.1,22-18.1,22s-18.1-9.7-18.1-22v-8.6
		c0-12.3,5.1-22,18.1-22s18.1,9.7,18.1,22V308.8z"/>
	<polygon style="fill:#3C5A99;" points="654.7,304 683.7,258.3 653.9,258.3 626.3,302.5 626.3,209.2 598.3,211.7 598.3,350.8 
		626.3,350.8 626.3,305.5 655.1,350.8 684.9,350.8 	"/>
	<path style="fill:#3C5A99;" d="M541.6,256.3c-30.9,0-46.1,19.3-46.1,45.9v4.7c0,26.7,15.2,45.9,46.1,45.9
		c30.9,0,46.1-19.3,46.1-45.9v-4.7C587.7,275.5,572.5,256.3,541.6,256.3z M559.8,308.8c0,12.3-5.1,22-18.1,22s-18.1-9.7-18.1-22
		v-8.6c0-12.3,5.1-22,18.1-22s18.1,9.7,18.1,22V308.8z"/>
	<path style="fill:#3C5A99;" d="M346.5,256.3c-13,0-22,6.6-26.1,14.8v-61.9l-28,2.5v139.2h26.5v-14c3.9,8.9,13.6,16,27.6,16
		c25.7,0,38.1-19.5,38.1-45.3v-6C384.6,275.7,372.1,256.3,346.5,256.3z M356.6,308c0,13-5.1,22.8-18.5,22.8
		c-11.5,0-17.7-8.2-17.7-21.4v-9.7c0-13.2,6.2-21.4,17.7-21.4c13.4,0,18.5,9.7,18.5,22.8V308z"/>
	<path style="fill:#3C5A99;" d="M239.2,256.2c-30.6,0-45.5,17.3-45.5,43.6v8.3h0c0,27.2,13.2,44.9,48.6,44.9c13.4,0,28.6-2.9,36-6.8
		l-5.1-19.3c-8.2,3.5-19.3,5.6-29.8,5.6c-15.6,0-21.2-5.6-21.8-18.3h59v-14.8C280.6,273.7,268,256.2,239.2,256.2z M255.5,296h-33.8
		c0-12.5,4.9-20.4,17.5-20.4c12.3,0,16.3,8,16.3,18.1V296z"/>
</g>
</svg>
