<?xml version="1.0" encoding="utf-8"?>
<!-- Generator: Adobe Illustrator 19.0.0, SVG Export Plug-In . SVG Version: 6.00 Build 0)  -->
<svg version="1.1" id="Layer_1" xmlns="http://www.w3.org/2000/svg" xmlns:xlink="http://www.w3.org/1999/xlink" x="0px" y="0px"
	 viewBox="0 0 96 96" style="enable-background:new 0 0 96 96;" xml:space="preserve">
<style type="text/css">
	.st0{fill:#32ADFF;}
	.st1{fill:#FFFFFF;}
</style>
<g id="XMLID_1_">
	<g id="XMLID_9_">
		<g id="XMLID_24_">
			<circle id="XMLID_25_" class="st0" cx="48" cy="48" r="48"/>
		</g>
	</g>
	<g id="XMLID_2_">
		<path id="XMLID_4_" class="st1" d="M33.5,50.4h6v2.9c-1,0.9-3,1.8-5.1,1.8c-4.4,0-7.5-3.3-7.5-7.9c0-4.5,3.2-7.9,7.5-7.9
			c2.6,0,4.6,1.4,5.7,3.1l4.2-2.3c-1.8-2.8-4.9-5.4-9.9-5.4c-7,0-12.8,4.8-12.8,12.4c0,7.6,5.7,12.5,12.8,12.5
			c4.4,0,8.2-1.8,10.2-4.5v-8.8h-11V50.4z"/>
		<rect id="XMLID_11_" x="48.5" y="35.4" class="st1" width="5" height="24"/>
		<polygon id="XMLID_13_" class="st1" points="75.5,39.4 75.5,35.4 58.5,35.4 58.5,59.4 63.5,59.4 63.5,49.4 75.5,49.4 75.5,44.4 
			63.5,44.4 63.5,39.4 		"/>
	</g>
</g>
</svg>
