<?xml version="1.0" encoding="utf-8"?>
<!-- Generator: Adobe Illustrator 19.0.0, SVG Export Plug-In . SVG Version: 6.00 Build 0)  -->
<svg version="1.1" id="Layer_1" xmlns="http://www.w3.org/2000/svg" xmlns:xlink="http://www.w3.org/1999/xlink" x="0px" y="0px"
	 viewBox="0 0 69 73" style="enable-background:new 0 0 69 73;" xml:space="preserve">
<style type="text/css">
	.st0{fill-rule:evenodd;clip-rule:evenodd;fill:#458AFE;}
	.st1{fill-rule:evenodd;clip-rule:evenodd;fill:#FFFFFF;}
</style>
<g id="XMLID_1_">
	<path id="XMLID_4_" class="st0" d="M34.5,0C15.4,0,0,14.6,0,32.5c0,10.4,5.2,19.7,13.3,25.7L13,58l-1,15l14-9c2.7,0.6,5.6,1,8.5,1
		C53.6,65,69,50.4,69,32.5C69,14.6,53.6,0,34.5,0z"/>
	<path id="XMLID_2_" class="st1" d="M14,44c0,0,1.6-6,6-11c4-4.5,11-8,11-8s4,2.2,5,3c2.9,2.3,5,5,5,5s3.9-0.5,7-2c4.6-2.3,9-6,9-6
		s-2.6,7.1-7,12c-4.6,5.1-11,8-11,8s-1.8-3.2-4-6c-1.7-2.1-4-4-4-4s-3.4,0.1-7,2C19.3,39.5,14,44,14,44z"/>
</g>
</svg>
