<?xml version="1.0" encoding="UTF-8"?>
<svg width="22px" height="16px" viewBox="0 0 22 16" version="1.1" xmlns="http://www.w3.org/2000/svg" xmlns:xlink="http://www.w3.org/1999/xlink">
    <!-- Generator: Sketch 50 (54983) - http://www.bohemiancoding.com/sketch -->
    <title>020-credit-card</title>
    <desc>Created with Sketch.</desc>
    <defs></defs>
    <g id="takeover-mvp" stroke="none" stroke-width="1" fill="none" fill-rule="evenodd">
        <g id="member" transform="translate(-607.000000, -756.000000)" fill="#FFFFFF" fill-rule="nonzero">
            <g id="tool-bar" transform="translate(0.000000, 715.000000)">
                <g id="btns" transform="translate(587.000000, 28.000000)">
                    <g id="buy-tks">
                        <g id="020-credit-card" transform="translate(20.000000, 13.000000)">
                            <path d="M19.5555556,0.144144144 L2.16216216,0.144144144 C0.969897898,0.144144144 0,1.11404204 0,2.30630631 L0,3.02702703 L21.7177177,3.02702703 L21.7177177,2.30630631 C21.7177177,1.11404204 20.7478198,0.144144144 19.5555556,0.144144144 Z" id="Shape"></path>
                            <path d="M5.04504505,10.2342342 C4.6473994,10.2342342 4.32432432,10.5573093 4.32432432,10.954955 C4.32432432,11.3526006 4.6473994,11.6756757 5.04504505,11.6756757 C5.44269069,11.6756757 5.76576577,11.3526006 5.76576577,10.954955 C5.76576577,10.5573093 5.44269069,10.2342342 5.04504505,10.2342342 Z" id="Shape"></path>
                            <path d="M7.92792793,10.2342342 C7.53028228,10.2342342 7.20720721,10.5573093 7.20720721,10.954955 C7.20720721,11.3526006 7.53028228,11.6756757 7.92792793,11.6756757 C8.32557357,11.6756757 8.64864865,11.3526006 8.64864865,10.954955 C8.64864865,10.5573093 8.32557357,10.2342342 7.92792793,10.2342342 Z" id="Shape"></path>
                            <path d="M0,5.90990991 L0,13.8378378 C0,15.0301021 0.969897898,16 2.16216216,16 L19.5555556,16 C20.7478198,16 21.7177177,15.0301021 21.7177177,13.8378378 L21.7177177,5.90990991 L0,5.90990991 Z M7.92792793,13.1171171 C7.37215616,13.1171171 6.86990991,12.9005165 6.48648649,12.5547628 C6.10306306,12.9005165 5.60081682,13.1171171 5.04504505,13.1171171 C3.85278078,13.1171171 2.88288288,12.1472192 2.88288288,10.954955 C2.88288288,9.76269069 3.85278078,8.79279279 5.04504505,8.79279279 C5.60081682,8.79279279 6.10306306,9.00939339 6.48648649,9.35514715 C6.86990991,9.00939339 7.37215616,8.79279279 7.92792793,8.79279279 C9.12019219,8.79279279 10.0900901,9.76269069 10.0900901,10.954955 C10.0900901,12.1472192 9.12019219,13.1171171 7.92792793,13.1171171 Z M13.7897898,11.6756757 L12.3483483,11.6756757 C11.949982,11.6756757 11.6276276,11.3533213 11.6276276,10.954955 C11.6276276,10.5565886 11.949982,10.2342342 12.3483483,10.2342342 L13.7897898,10.2342342 C14.1881562,10.2342342 14.5105105,10.5565886 14.5105105,10.954955 C14.5105105,11.3533213 14.1881562,11.6756757 13.7897898,11.6756757 Z M18.1141141,11.6756757 L16.6726727,11.6756757 C16.2743063,11.6756757 15.951952,11.3533213 15.951952,10.954955 C15.951952,10.5565886 16.2743063,10.2342342 16.6726727,10.2342342 L18.1141141,10.2342342 C18.5124805,10.2342342 18.8348348,10.5565886 18.8348348,10.954955 C18.8348348,11.3533213 18.5124805,11.6756757 18.1141141,11.6756757 Z" id="Shape"></path>
                        </g>
                    </g>
                </g>
            </g>
        </g>
    </g>
</svg>