<?xml version="1.0" encoding="UTF-8"?>
<svg width="18px" height="18px" viewBox="0 0 18 18" version="1.1" xmlns="http://www.w3.org/2000/svg" xmlns:xlink="http://www.w3.org/1999/xlink">
    <!-- Generator: Sketch 50 (54983) - http://www.bohemiancoding.com/sketch -->
    <title>018-settings</title>
    <desc>Created with Sketch.</desc>
    <defs></defs>
    <g id="takeover-mvp" stroke="none" stroke-width="1" fill="none" fill-rule="evenodd">
        <g id="member" transform="translate(-982.000000, -755.000000)" fill="#FFFFFF" fill-rule="nonzero">
            <g id="tool-bar" transform="translate(0.000000, 715.000000)">
                <g id="btns" transform="translate(587.000000, 28.000000)">
                    <g id="settings" transform="translate(382.000000, 0.000000)">
                        <g id="018-settings" transform="translate(13.000000, 12.000000)">
                            <path d="M17.5992188,7.47421875 L15.4933594,6.95742188 C15.3773438,6.58828125 15.2296875,6.2296875 15.0503906,5.88164063 L16.1261719,4.08867188 C16.2527344,3.87773438 16.2210938,3.6140625 16.0523438,3.4453125 L14.5546875,1.94765625 C14.3859375,1.77890625 14.1222656,1.74726562 13.9113281,1.87382812 L12.1183594,2.94960938 C11.7703125,2.7703125 11.4117187,2.62265625 11.0425781,2.50664063 L10.5363281,0.40078125 C10.4730469,0.16875 10.2621094,0 10.0195312,0 L7.91015625,0 C7.66757812,0 7.45664062,0.16875 7.39335938,0.40078125 L6.88710938,2.50664062 C6.51796875,2.62265625 6.159375,2.7703125 5.81132813,2.94960937 L4.01835938,1.87382812 C3.80742188,1.74726562 3.54375,1.77890625 3.375,1.94765625 L1.87734375,3.4453125 C1.70859375,3.6140625 1.67695312,3.87773437 1.80351562,4.08867188 L2.87929688,5.88164063 C2.7,6.2296875 2.55234375,6.58828125 2.43632813,6.95742188 L0.40078125,7.47421875 C0.16875,7.52695312 0,7.73789062 0,7.98046875 L0,10.0898438 C0,10.3324219 0.16875,10.5433594 0.40078125,10.5960937 L2.43632812,11.1128906 C2.55234375,11.4820312 2.7,11.840625 2.87929687,12.1886719 L1.80351562,13.9816406 C1.67695312,14.1925781 1.70859375,14.45625 1.87734375,14.625 L3.375,16.1226563 C3.54375,16.2914063 3.80742187,16.3230469 4.01835938,16.1964844 L5.81132813,15.1207031 C6.159375,15.3 6.51796875,15.4476563 6.88710938,15.5636719 L7.39335938,17.5992188 C7.45664063,17.83125 7.66757813,18 7.91015625,18 L10.0195312,18 C10.2621094,18 10.4730469,17.83125 10.5363281,17.5992188 L11.0425781,15.5636719 C11.4117187,15.4476563 11.7703125,15.3 12.1183594,15.1207031 L13.9113281,16.1964844 C14.1222656,16.3230469 14.3859375,16.2914063 14.5546875,16.1226563 L16.0523438,14.625 C16.2210938,14.45625 16.2527344,14.1925781 16.1261719,13.9816406 L15.0503906,12.1886719 C15.2296875,11.840625 15.3773438,11.4820312 15.4933594,11.1128906 L17.5992188,10.5960937 C17.83125,10.5433594 18,10.3324219 18,10.0898438 L18,7.98046875 C18,7.73789062 17.83125,7.52695312 17.5992188,7.47421875 Z M8.96484375,11.671875 C7.509375,11.671875 6.328125,10.490625 6.328125,9.03515625 C6.328125,7.5796875 7.509375,6.3984375 8.96484375,6.3984375 C10.4203125,6.3984375 11.6015625,7.5796875 11.6015625,9.03515625 C11.6015625,10.490625 10.4203125,11.671875 8.96484375,11.671875 Z" id="Shape"></path>
                        </g>
                    </g>
                </g>
            </g>
        </g>
    </g>
</svg>