<?xml version="1.0" encoding="UTF-8"?>
<svg width="22px" height="20px" viewBox="0 0 22 20" version="1.1" xmlns="http://www.w3.org/2000/svg" xmlns:xlink="http://www.w3.org/1999/xlink">
    <!-- Generator: Sketch 50 (54983) - http://www.bohemiancoding.com/sketch -->
    <title>007-coin</title>
    <desc>Created with Sketch.</desc>
    <defs></defs>
    <g id="takeover-mvp" stroke="none" stroke-width="1" fill="none" fill-rule="evenodd">
        <g id="member" transform="translate(-736.000000, -754.000000)" fill="#FFFFFF" fill-rule="nonzero">
            <g id="tool-bar" transform="translate(0.000000, 715.000000)">
                <g id="btns" transform="translate(587.000000, 28.000000)">
                    <g id="tk-menu" transform="translate(139.000000, 0.000000)">
                        <g id="007-coin" transform="translate(10.000000, 11.000000)">
                            <path d="M0,2.48095833 C0,4.12220833 2.82958333,4.98095833 5.625,4.98095833 C8.42041667,4.98095833 11.25,4.12220833 11.25,2.48095833 C11.25,-0.8015 0,-0.8015 0,2.48095833 Z" id="Shape"></path>
                            <path d="M5.625,6.23095833 C3.602125,6.23095833 0,5.63833333 0,3.73095833 L0,4.98095833 C0,6.61845833 2.825,7.48095833 5.625,7.48095833 C8.425,7.48095833 11.25,6.61845833 11.25,4.98095833 L11.25,3.73095833 C11.25,5.63654167 7.664875,6.23095833 5.625,6.23095833 Z" id="Shape"></path>
                            <path d="M5.625,11.2309583 C2.825,11.2309583 0,10.3684583 0,8.73095833 L0,9.98095833 C0,11.6184583 2.825,12.4809583 5.625,12.4809583 C8.425,12.4809583 11.25,11.6184583 11.25,9.98095833 L11.25,8.73095833 C11.25,10.3684583 8.425,11.2309583 5.625,11.2309583 Z" id="Shape"></path>
                            <path d="M5.625,13.7309583 C2.825,13.7309583 0,12.8684583 0,11.2309583 L0,12.4809583 C0,14.1184583 2.825,14.9809583 5.625,14.9809583 C8.425,14.9809583 11.25,14.1184583 11.25,12.4809583 L11.25,11.2309583 C11.25,12.8684583 8.425,13.7309583 5.625,13.7309583 Z" id="Shape"></path>
                            <path d="M5.625,16.2309583 C2.825,16.2309583 0,15.3684583 0,13.7309583 L0,14.9809583 C0,16.6184583 2.825,17.4809583 5.625,17.4809583 C8.425,17.4809583 11.25,16.6184583 11.25,14.9809583 L11.25,13.7309583 C11.25,15.3684583 8.425,16.2309583 5.625,16.2309583 Z" id="Shape"></path>
                            <path d="M5.625,18.7309583 C2.825,18.7309583 0,17.8684583 0,16.2309583 L0,17.4809583 C0,19.1184583 2.825,19.9809583 5.625,19.9809583 C8.425,19.9809583 11.25,19.1184583 11.25,17.4809583 L11.25,16.2309583 C11.25,17.8684583 8.425,18.7309583 5.625,18.7309583 Z" id="Shape"></path>
                            <path d="M5.625,8.73095833 C2.825,8.73095833 0,7.86845833 0,6.23095833 L0,7.48095833 C0,9.38833333 3.602125,9.98095833 5.625,9.98095833 C8.04991667,9.98095833 10.4875,9.33091667 11.1,8.10595833 C11.1999583,7.91845833 11.25,7.70595833 11.25,7.48095833 L11.25,6.23095833 C11.25,7.86845833 8.425,8.73095833 5.625,8.73095833 Z" id="Shape"></path>
                            <path d="M15.625,18.7309583 C14.4745,18.7309583 13.331,18.5774583 12.3697083,18.2922083 C12.2453333,18.6810833 12.0303333,19.02775 11.7444167,19.336125 C12.80275,19.7617083 14.2162083,19.9809583 15.6250417,19.9809583 C18.4250417,19.9809583 21.333375,19.1184583 21.333375,17.4809583 L21.333375,16.2309583 C21.3333333,17.8684583 18.425,18.7309583 15.625,18.7309583 Z" id="Shape"></path>
                            <path d="M15.625,13.7309583 C14.5260417,13.7309583 13.4330833,13.59075 12.5,13.3306667 C12.5,14.0330417 12.5,13.8820833 12.5,14.5845 C13.433375,14.8440417 14.527875,14.981 15.625,14.981 C18.425,14.981 21.3333333,14.1185 21.3333333,12.481 L21.3333333,11.231 C21.3333333,13.1383333 17.647875,13.7309583 15.625,13.7309583 Z" id="Shape"></path>
                            <path d="M15.625,16.2309583 C14.5227083,16.2309583 13.435375,16.0823333 12.5,15.8195 C12.5,16.28275 12.5,16.0022083 12.5,17.0758333 C13.4317083,17.338875 14.5233333,17.4809583 15.625,17.4809583 C17.664875,17.4809583 21.3333333,16.8865 21.3333333,14.9809583 L21.3333333,13.7309583 C21.3333333,15.3684583 18.425,16.2309583 15.625,16.2309583 Z" id="Shape"></path>
                            <path d="M12.5,7.90645833 L12.5,12.0665417 C13.4335417,12.3319583 14.5211667,12.4809583 15.625,12.4809583 C18.4204167,12.4809583 21.3333333,11.6222083 21.3333333,9.98095833 C21.3333333,7.69575 15.81025,7.00825 12.5,7.90645833 Z" id="Shape"></path>
                        </g>
                    </g>
                </g>
            </g>
        </g>
    </g>
</svg>