<svg width="22" height="22"><defs><linearGradient id="instagram-color" x1="12.9%" x2="87.1%" y1="103%" y2="-3%"><stop stop-color="#FFB900" offset="0%"></stop><stop stop-color="#9100EB" offset="100%"></stop></linearGradient></defs><g fill="none" fill-rule="evenodd"><path fill="url(#instagram-color)" d="M22 19.3c0 1.5-1.2 2.7-2.8 2.7H3c-2 0-3-1.2-3-2.8V3c0-2 1.2-3 2.8-3H19c2 0 3 1.2 3 2.8v16.5z"></path><path fill="#FFF" d="M3 7c0-2.2 1.8-4 4-4h8c2.2 0 4 1.8 4 4v8c0 2.2-1.8 4-4 4H7c-2.2 0-4-1.8-4-4V7zm1 0c0-1.7 1.3-3 3-3h8c1.7 0 3 1.3 3 3v8c0 1.7-1.3 3-3 3H7c-1.7 0-3-1.3-3-3V7zm7 8c-2.3 0-4-1.7-4-4s1.7-4 4-4 4 1.7 4 4-1.7 4-4 4zm0-7c-1.6 0-3 1.4-3 3s1.4 3 3 3 3-1.4 3-3-1.4-3-3-3zm4.4-.5c.5 0 1-.4 1-1 0-.4-.5-.8-1-.8s-1 .4-1 1c0 .4.5.8 1 .8z"></path></g></svg>