<?xml version="1.0" encoding="iso-8859-1"?>
<!-- Generator: Adobe Illustrator 19.0.0, SVG Export Plug-In . SVG Version: 6.00 Build 0)  -->
<svg version="1.1" id="Layer_1" xmlns="http://www.w3.org/2000/svg" xmlns:xlink="http://www.w3.org/1999/xlink" x="0px" y="0px"
	 viewBox="0 0 412 412" style="enable-background:new 0 0 412 412;" xml:space="preserve">
<path id="XMLID_2_" style="fill:#395A9A;" d="M349.14,0H68.98C32.572,0,0,25.952,0,62.36v280.16C0,378.928,32.572,412,68.98,412
	h173.466c-0.325-54,0.077-114.384-0.185-166.637c-11.064-0.112-22.138-0.809-33.202-0.979c0.041-18.467,0.017-37.38,0.024-55.844
	c11.057-0.137,22.121-0.194,33.178-0.299c0.338-17.957-0.338-36.041,0.354-53.982c1.103-14.205,6.519-28.571,17.14-38.385
	c12.859-12.239,31.142-16.401,48.387-16.916c18.233-0.163,36.468-0.078,54.71-0.07c0.072,19.24,0.072,38.481-0.008,57.721
	c-11.789-0.02-23.585,0.023-35.374-0.025c-7.468-0.467-15.145,5.198-16.504,12.609c-0.177,12.875-0.064,25.757-0.057,38.628
	c17.285,0.073,34.577-0.02,51.862,0.044c-1.264,18.629-3.581,37.168-6.285,55.637c-15.272,0.137-30.554,1.764-45.818,1.852
	C310.539,297.59,310.708,357,310.575,412h38.564C385.547,412,412,378.927,412,342.519V62.36C412,25.952,385.548,0,349.14,0z"/>
<g id="XMLID_54_">
</g>
<g id="XMLID_55_">
</g>
<g id="XMLID_56_">
</g>
<g id="XMLID_57_">
</g>
<g id="XMLID_58_">
</g>
<g id="XMLID_59_">
</g>
<g id="XMLID_60_">
</g>
<g id="XMLID_61_">
</g>
<g id="XMLID_62_">
</g>
<g id="XMLID_63_">
</g>
<g id="XMLID_64_">
</g>
<g id="XMLID_65_">
</g>
<g id="XMLID_66_">
</g>
<g id="XMLID_67_">
</g>
<g id="XMLID_68_">
</g>
</svg>
