<?xml version="1.0" encoding="utf-8"?>
<!-- Generator: Adobe Illustrator 19.0.0, SVG Export Plug-In . SVG Version: 6.00 Build 0)  -->
<svg version="1.1" id="Layer_1" xmlns="http://www.w3.org/2000/svg" xmlns:xlink="http://www.w3.org/1999/xlink" x="0px" y="0px"
	 viewBox="-412.9 269 32 20" style="enable-background:new -412.9 269 32 20;" xml:space="preserve">
<style type="text/css">
	.st0{fill:#F7F7F7;}
	.st1{opacity:0.17;}
	.st2{fill:#DB4437;}
</style>
<g>
	<g>
		<path class="st0" d="M-383.9,288h-26c-1.1,0-2-0.9-2-2v-14c0-1.1,0.9-2,2-2h26c1.1,0,2,0.9,2,2v14
			C-381.9,287.1-382.8,288-383.9,288z"/>
		<g class="st1">
			<path d="M-383.9,270c1.1,0,2,0.9,2,2v14c0,1.1-0.9,2-2,2h-26c-1.1,0-2-0.9-2-2v-14c0-1.1,0.9-2,2-2H-383.9 M-383.9,269h-26
				c-1.7,0-3,1.3-3,3v14c0,1.7,1.3,3,3,3h26c1.7,0,3-1.3,3-3v-14C-380.9,270.3-382.3,269-383.9,269L-383.9,269z"/>
		</g>
	</g>
	<g>
		<polygon class="st2" points="-389.2,278.3 -389.2,275.7 -391.1,275.7 -391.1,278.3 -393.7,278.3 -393.7,280.3 -391.1,280.3 
			-391.1,282.9 -389.2,282.9 -389.2,280.3 -386.6,280.3 -386.6,278.3 		"/>
		<path class="st2" d="M-401.5,277.7v2.5h3.5c-0.3,1.6-1.6,2.7-3.5,2.7c-2.1,0-3.8-1.8-3.8-3.9s1.7-3.9,3.8-3.9c1,0,1.8,0.3,2.5,1
			l1.9-1.9c-1.2-1-2.6-1.7-4.3-1.7c-3.6,0-6.5,2.9-6.5,6.5s2.9,6.5,6.5,6.5c3.8,0,6.2-2.7,6.2-6.4c0-0.5-0.1-1-0.1-1.4H-401.5z"/>
	</g>
</g>
</svg>
