<?xml version="1.0" encoding="utf-8"?>
<!-- Generator: Adobe Illustrator 19.0.0, SVG Export Plug-In . SVG Version: 6.00 Build 0)  -->
<svg version="1.1" id="Layer_1" xmlns="http://www.w3.org/2000/svg" xmlns:xlink="http://www.w3.org/1999/xlink" x="0px" y="0px"
	 viewBox="0 0 96 96" style="enable-background:new 0 0 96 96;" xml:space="preserve">
<style type="text/css">
	.st0{fill-rule:evenodd;clip-rule:evenodd;fill:#FFCF3A;}
	.st1{fill-rule:evenodd;clip-rule:evenodd;fill:#A2681A;}
	.st2{fill:#A2681A;}
</style>
<circle id="XMLID_84_" class="st0" cx="48" cy="48" r="48"/>
<circle id="XMLID_92_" class="st1" cx="26" cy="39" r="8"/>
<circle id="XMLID_97_" class="st1" cx="70" cy="39" r="8"/>
<path id="XMLID_3_" class="st2" d="M66.9,56.7c-1.1-0.9-2.8-0.9-3.8,0.1c-3,2.5-8.7,4.2-15.3,4.2c-6.7,0-12.5-1.8-15.4-4.4
	c-1.1-0.9-2.7-1-3.8-0.1c-0.2,0.2-0.4,0.3-0.6,0.5c-1.1,1-1.2,2.7-0.2,3.8c3.3,3.6,11,6.2,19.9,6.2c8.6,0,16-2.3,19.5-5.7
	c1.3-1.2,1.2-3.2-0.1-4.4C67,56.8,66.9,56.8,66.9,56.7z"/>
</svg>
