<?xml version="1.0" encoding="utf-8"?>
<!-- Generator: Adobe Illustrator 19.0.0, SVG Export Plug-In . SVG Version: 6.00 Build 0)  -->
<svg version="1.1" id="svgicon-star" xmlns="http://www.w3.org/2000/svg" xmlns:xlink="http://www.w3.org/1999/xlink" x="0px"
	 y="0px" viewBox="200 13.1 560 534.1" style="enable-background:new 200 13.1 560 534.1;" xml:space="preserve">
<title>star</title>
<path d="M759.3,216.2c-2-6.2-8.1-10.1-18.2-11.6l-168.9-24.6L496.5,26.9c-4.7-9.2-10.2-13.8-16.5-13.8c-6.5,0-12,4.6-16.5,13.8
	l-75.7,153.1l-168.9,24.6c-10.1,1.6-16.2,5.4-18.2,11.6c-2,6.2,0.6,12.8,7.8,20l122.5,119.1L302,523.7c-1.1,7.4-0.4,13.2,2,17.3
	c2.5,4.2,6.3,6.2,11.4,6.2c3.8,0,8.3-1.3,13.5-4L480,463.8l151.1,79.4c5.2,2.7,9.6,4,13.5,4c5.2,0,9-2.1,11.4-6.2
	c2.5-4.2,3.2-9.9,2-17.3l-28.9-168.3l122.1-119.1v0C758.7,229.1,761.4,222.4,759.3,216.2z"/>
</svg>
