<svg xmlns="http://www.w3.org/2000/svg" width="374.731" height="449.556" viewBox="0 0 374.731 449.556">
  <path id="Subtraction_5" data-name="Subtraction 5" d="M541.362,778.557h-8.88a4.511,4.511,0,0,1,4.284-3.763c.05,0,.1,0,.161,0a4.5,4.5,0,0,1,4.436,3.765Zm-32.527,0h-8.881a4.511,4.511,0,0,1,4.284-3.763c.05,0,.1,0,.161,0a4.5,4.5,0,0,1,4.436,3.765Zm-32.527,0h-8.882a4.5,4.5,0,0,1,4.285-3.763c.05,0,.1,0,.161,0a4.5,4.5,0,0,1,4.435,3.765Zm-32.526,0H434.9a4.51,4.51,0,0,1,4.284-3.763c.05,0,.1,0,.161,0a4.5,4.5,0,0,1,4.436,3.765Zm-32.527,0h-8.881a4.51,4.51,0,0,1,4.283-3.763c.05,0,.1,0,.161,0a4.5,4.5,0,0,1,4.437,3.765Zm-32.526,0h-8.882a4.5,4.5,0,0,1,4.285-3.763c.05,0,.1,0,.161,0a4.5,4.5,0,0,1,4.436,3.765Zm-32.528,0H337.32a4.5,4.5,0,0,1,4.283-3.763c.05,0,.1,0,.161,0a4.5,4.5,0,0,1,4.436,3.765Zm-126.28-1.443a4.5,4.5,0,0,1-.156-9l.159,0a4.5,4.5,0,0,1,.156,9Zm32.524,0a4.5,4.5,0,0,1-.152-9l.159,0a4.5,4.5,0,0,1,.155,9Zm-65.054,0a4.5,4.5,0,0,1-.152-9l.159,0a4.5,4.5,0,0,1,.155,9Zm333.266-9.586a4.5,4.5,0,0,1-.156-9c.053,0,.107,0,.159,0a4.5,4.5,0,0,1,.156,9Zm-32.528,0a4.5,4.5,0,0,1-.154-9c.05,0,.1,0,.161,0a4.5,4.5,0,0,1,.152,9Zm-32.526,0a4.5,4.5,0,0,1-.155-9c.053,0,.107,0,.159,0a4.5,4.5,0,0,1,.155,9Zm-32.53,0a4.5,4.5,0,0,1-.152-9c.053,0,.107,0,.159,0a4.5,4.5,0,0,1,.155,9Zm-32.524,0a4.5,4.5,0,0,1-.155-9c.05,0,.1,0,.161,0a4.5,4.5,0,0,1,.153,9Zm-32.53,0a4.5,4.5,0,0,1-.152-9c.053,0,.107,0,.159,0a4.5,4.5,0,0,1,.155,9ZM268.71,760.85a4.5,4.5,0,0,1-.155-9l.161,0a4.5,4.5,0,0,1,.153,9Zm-32.526,0a4.5,4.5,0,0,1-.156-9l.159,0a4.5,4.5,0,0,1,.156,9Zm-32.528,0a4.5,4.5,0,0,1-.155-9l.161,0a4.5,4.5,0,0,1,.153,9Zm-32.526,0a4.5,4.5,0,0,1-.156-9l.161,0a4.5,4.5,0,0,1,.154,9Zm300.737-9.586a4.5,4.5,0,0,1-.156-9c.054,0,.106,0,.161,0a4.5,4.5,0,0,1,.153,9Zm-97.582,0a4.5,4.5,0,0,1-.156-9c.053,0,.107,0,.159,0a4.5,4.5,0,0,1,.156,9Zm130.1,0a4.5,4.5,0,0,1-.152-9c.053,0,.107,0,.159,0a4.5,4.5,0,0,1,.155,9Zm-65.054,0a4.5,4.5,0,0,1-.152-9l.158,0a4.5,4.5,0,0,1,.157,9Zm-32.528,0a4.5,4.5,0,0,1-.151-9c.054,0,.106,0,.161,0a4.5,4.5,0,0,1,.152,9Zm-154.361-6.676a4.5,4.5,0,0,1-.157-9l.161,0a4.5,4.5,0,0,1,.154,9Zm-65.055,0a4.5,4.5,0,0,1-.156-9l.161,0a4.5,4.5,0,0,1,.154,9Zm97.578,0a4.5,4.5,0,0,1-.152-9l.161,0a4.5,4.5,0,0,1,.153,9Zm-65.054,0a4.5,4.5,0,0,1-.152-9l.161,0a4.5,4.5,0,0,1,.153,9ZM488.13,735a4.5,4.5,0,0,1-.155-9l.159,0a4.5,4.5,0,0,1,.155,9ZM455.6,735a4.5,4.5,0,0,1-.155-9l.159,0a4.5,4.5,0,0,1,.155,9Zm-65.056,0a4.5,4.5,0,0,1-.153-9l.159,0a4.5,4.5,0,0,1,.155,9Zm32.526,0a4.5,4.5,0,0,1-.151-9l.159,0a4.5,4.5,0,0,1,.154,9Zm-121.836-6.676a4.5,4.5,0,0,1-.155-9c.054,0,.107,0,.161,0a4.5,4.5,0,0,1,.153,9Zm-32.526,0a4.5,4.5,0,0,1-.156-9c.053,0,.106,0,.159,0a4.5,4.5,0,0,1,.156,9Zm-32.528,0a4.5,4.5,0,0,1-.155-9c.054,0,.107,0,.161,0a4.5,4.5,0,0,1,.153,9Zm-32.526,0a4.5,4.5,0,0,1-.156-9c.054,0,.107,0,.161,0a4.5,4.5,0,0,1,.154,9Zm-32.531,0a4.5,4.5,0,0,1-.152-9c.054,0,.107,0,.161,0a4.5,4.5,0,0,1,.153,9Zm300.737-9.587a4.5,4.5,0,0,1-.152-9l.158,0a4.5,4.5,0,0,1,.157,9Zm-32.527,0a4.5,4.5,0,0,1-.152-9l.161,0a4.5,4.5,0,0,1,.152,9Zm-32.527,0a4.5,4.5,0,0,1-.152-9l.158,0a4.5,4.5,0,0,1,.157,9ZM284.975,712.06a4.5,4.5,0,0,1-.157-9c.054,0,.107,0,.161,0a4.5,4.5,0,0,1,.154,9Zm-65.054,0a4.5,4.5,0,0,1-.157-9c.054,0,.107,0,.161,0a4.5,4.5,0,0,1,.154,9Zm97.577,0a4.5,4.5,0,0,1-.152-9c.054,0,.107,0,.161,0a4.5,4.5,0,0,1,.153,9Zm-65.054,0a4.5,4.5,0,0,1-.152-9c.053,0,.106,0,.159,0a4.5,4.5,0,0,1,.155,9Zm-65.054,0a4.5,4.5,0,0,1-.152-9c.054,0,.107,0,.161,0a4.5,4.5,0,0,1,.153,9Zm235.686-9.586a4.5,4.5,0,0,1-.156-9l.159,0a4.5,4.5,0,0,1,.155,9Zm32.523,0a4.5,4.5,0,0,1-.151-9l.159,0a4.5,4.5,0,0,1,.154,9ZM333.764,695.8a4.5,4.5,0,0,1-.155-9c.054,0,.107,0,.161,0a4.5,4.5,0,0,1,.153,9Zm-32.527,0a4.5,4.5,0,0,1-.155-9c.053,0,.107,0,.159,0a4.5,4.5,0,0,1,.155,9Zm-32.527,0a4.5,4.5,0,0,1-.155-9c.053,0,.107,0,.159,0a4.5,4.5,0,0,1,.155,9Zm-32.526,0a4.5,4.5,0,0,1-.156-9c.053,0,.107,0,.159,0a4.5,4.5,0,0,1,.156,9Zm-32.528,0a4.5,4.5,0,0,1-.155-9c.054,0,.107,0,.161,0a4.5,4.5,0,0,1,.153,9Zm-32.526,0a4.5,4.5,0,0,1-.156-9c.053,0,.107,0,.159,0a4.5,4.5,0,0,1,.156,9Zm268.206-9.587a4.5,4.5,0,0,1-.152-9l.158,0a4.5,4.5,0,0,1,.157,9ZM317.5,679.533a4.5,4.5,0,0,1-.156-9c.053,0,.107,0,.159,0a4.5,4.5,0,0,1,.156,9Zm-65.053,0a4.5,4.5,0,0,1-.157-9c.054,0,.106,0,.161,0a4.5,4.5,0,0,1,.154,9Zm-65.054,0a4.5,4.5,0,0,1-.157-9c.054,0,.106,0,.161,0a4.5,4.5,0,0,1,.154,9Zm162.631,0a4.5,4.5,0,0,1-.152-9c.054,0,.106,0,.161,0a4.5,4.5,0,0,1,.153,9Zm-65.054,0a4.5,4.5,0,0,1-.152-9c.054,0,.106,0,.161,0a4.5,4.5,0,0,1,.153,9Zm-65.054,0a4.5,4.5,0,0,1-.152-9c.053,0,.107,0,.159,0a4.5,4.5,0,0,1,.155,9Zm146.373-16.263a4.5,4.5,0,0,1-.155-9l.159,0a4.5,4.5,0,0,1,.155,9Zm-32.527,0a4.5,4.5,0,0,1-.155-9l.159,0a4.5,4.5,0,0,1,.155,9Zm-32.527,0a4.5,4.5,0,0,1-.155-9c.054,0,.106,0,.161,0a4.5,4.5,0,0,1,.153,9Zm-32.527,0a4.5,4.5,0,0,1-.155-9l.159,0a4.5,4.5,0,0,1,.155,9Zm-32.527,0a4.5,4.5,0,0,1-.155-9c.054,0,.106,0,.161,0a4.5,4.5,0,0,1,.153,9Zm-32.526,0a4.5,4.5,0,0,1-.156-9l.159,0a4.5,4.5,0,0,1,.156,9Zm-32.528,0a4.5,4.5,0,0,1-.155-9c.054,0,.106,0,.161,0a4.5,4.5,0,0,1,.153,9Zm178.9-16.263a4.5,4.5,0,0,1-.155-9l.159,0a4.5,4.5,0,0,1,.155,9Zm-65.053,0a4.5,4.5,0,0,1-.156-9l.161,0a4.5,4.5,0,0,1,.154,9Zm-65.053,0a4.5,4.5,0,0,1-.157-9l.161,0a4.5,4.5,0,0,1,.154,9Zm162.63,0a4.5,4.5,0,0,1-.151-9l.161,0a4.5,4.5,0,0,1,.152,9Zm-65.053,0a4.5,4.5,0,0,1-.152-9l.161,0a4.5,4.5,0,0,1,.153,9Zm-65.054,0a4.5,4.5,0,0,1-.152-9l.159,0a4.5,4.5,0,0,1,.155,9Zm-65.054,0a4.5,4.5,0,0,1-.152-9l.159,0a4.5,4.5,0,0,1,.155,9Zm211.427-16.263a4.5,4.5,0,0,1-.154-9l.159,0a4.5,4.5,0,0,1,.154,9Zm-32.527,0a4.5,4.5,0,0,1-.155-9l.159,0a4.5,4.5,0,0,1,.155,9Zm-32.527,0a4.5,4.5,0,0,1-.155-9l.159,0a4.5,4.5,0,0,1,.155,9Zm-32.527,0a4.5,4.5,0,0,1-.155-9l.161,0a4.5,4.5,0,0,1,.153,9Zm-32.527,0a4.5,4.5,0,0,1-.155-9l.161,0a4.5,4.5,0,0,1,.153,9Zm-32.527,0a4.5,4.5,0,0,1-.155-9l.159,0a4.5,4.5,0,0,1,.155,9Zm-32.527,0a4.5,4.5,0,0,1-.155-9l.161,0a4.5,4.5,0,0,1,.153,9Zm-32.526,0a4.5,4.5,0,0,1-.156-9l.159,0a4.5,4.5,0,0,1,.156,9ZM317.5,614.479a4.5,4.5,0,0,1-.156-9l.161,0a4.5,4.5,0,0,1,.154,9Zm-65.054,0a4.5,4.5,0,0,1-.156-9l.161,0a4.5,4.5,0,0,1,.154,9Zm-65.053,0a4.5,4.5,0,0,1-.157-9l.161,0a4.5,4.5,0,0,1,.154,9Zm227.685,0a4.5,4.5,0,0,1-.152-9l.161,0a4.5,4.5,0,0,1,.152,9Zm-32.526,0a4.5,4.5,0,0,1-.153-9l.158,0a4.5,4.5,0,0,1,.157,9Zm-32.529,0a4.5,4.5,0,0,1-.151-9l.161,0a4.5,4.5,0,0,1,.152,9Zm-65.053,0a4.5,4.5,0,0,1-.152-9l.161,0a4.5,4.5,0,0,1,.153,9Zm-65.054,0a4.5,4.5,0,0,1-.152-9l.159,0a4.5,4.5,0,0,1,.155,9Zm211.427-16.263a4.5,4.5,0,0,1-.155-9c.048,0,.1,0,.159,0a4.5,4.5,0,0,1,.155,9Zm-32.527,0a4.5,4.5,0,0,1-.155-9c.048,0,.1,0,.159,0a4.5,4.5,0,0,1,.155,9Zm-65.054,0a4.5,4.5,0,0,1-.155-9c.046,0,.1,0,.16,0a4.5,4.5,0,0,1,.154,9Zm-32.527,0a4.5,4.5,0,0,1-.155-9l.161,0a4.5,4.5,0,0,1,.153,9Zm-32.526,0a4.5,4.5,0,0,1-.156-9c.046,0,.1,0,.16,0a4.5,4.5,0,0,1,.155,9Zm-32.528,0a4.5,4.5,0,0,1-.155-9l.161,0a4.5,4.5,0,0,1,.153,9Zm-32.526,0a4.5,4.5,0,0,1-.156-9c.048,0,.1,0,.159,0a4.5,4.5,0,0,1,.156,9Zm-32.528,0a4.5,4.5,0,0,1-.155-9c.048,0,.1,0,.159,0a4.5,4.5,0,0,1,.155,9Zm195.159,0a4.5,4.5,0,0,1-.151-9c.048,0,.1,0,.159,0a4.5,4.5,0,0,1,.154,9Zm48.794-16.262a4.5,4.5,0,0,1-.156-9l.158,0a4.5,4.5,0,0,1,.157,9Zm-97.582,0a4.5,4.5,0,0,1-.155-9c.046,0,.1,0,.16,0a4.5,4.5,0,0,1,.154,9Zm-32.527,0a4.5,4.5,0,0,1-.156-9c.046,0,.1,0,.16,0a4.5,4.5,0,0,1,.155,9Zm-65.054,0a4.5,4.5,0,0,1-.156-9c.046,0,.1,0,.16,0a4.5,4.5,0,0,1,.155,9Zm-32.527,0a4.5,4.5,0,0,1-.156-9l.158,0a4.5,4.5,0,0,1,.158,9Zm195.159,0a4.5,4.5,0,0,1-.152-9c.046,0,.1,0,.16,0a4.5,4.5,0,0,1,.153,9Zm-32.527,0a4.5,4.5,0,0,1-.152-9c.048,0,.1,0,.159,0a4.5,4.5,0,0,1,.155,9Zm-97.581,0a4.5,4.5,0,0,1-.152-9c.046,0,.1,0,.16,0a4.5,4.5,0,0,1,.154,9Zm146.373-16.263a4.5,4.5,0,0,1-.154-9c.048,0,.1,0,.159,0a4.5,4.5,0,0,1,.154,9Zm-32.527,0a4.5,4.5,0,0,1-.155-9c.048,0,.1,0,.16,0a4.5,4.5,0,0,1,.154,9Zm-32.527,0a4.5,4.5,0,0,1-.154-9c.048,0,.1,0,.159,0a4.5,4.5,0,0,1,.154,9Zm-32.53,0a4.5,4.5,0,0,1-.152-9c.048,0,.1,0,.16,0a4.5,4.5,0,0,1,.154,9Zm-32.527,0a4.5,4.5,0,0,1-.152-9c.047,0,.1,0,.16,0a4.5,4.5,0,0,1,.154,9Zm-32.526,0a4.5,4.5,0,0,1-.153-9c.048,0,.1,0,.16,0a4.5,4.5,0,0,1,.155,9Zm-32.528,0a4.5,4.5,0,0,1-.152-9c.048,0,.1,0,.159,0a4.5,4.5,0,0,1,.155,9Zm-32.524,0a4.5,4.5,0,0,1-.155-9c.048,0,.1,0,.159,0a4.5,4.5,0,0,1,.155,9Zm211.425-16.263a4.5,4.5,0,0,1-.155-9l.159,0a4.5,4.5,0,0,1,.155,9Zm-97.581,0a4.5,4.5,0,0,1-.155-9c.053,0,.108,0,.16,0a4.5,4.5,0,0,1,.154,9Zm-32.527,0a4.5,4.5,0,0,1-.156-9c.053,0,.108,0,.161,0a4.5,4.5,0,0,1,.154,9Zm-65.054,0a4.5,4.5,0,0,1-.156-9c.053,0,.108,0,.16,0a4.5,4.5,0,0,1,.154,9Zm162.632,0a4.5,4.5,0,0,1-.152-9c.053,0,.108,0,.16,0a4.5,4.5,0,0,1,.154,9Zm-32.527,0a4.5,4.5,0,0,1-.152-9l.159,0a4.5,4.5,0,0,1,.155,9Zm-97.581,0a4.5,4.5,0,0,1-.153-9l.159,0a4.5,4.5,0,0,1,.156,9Zm146.373-16.263a4.5,4.5,0,0,1-.154-9l.159,0a4.5,4.5,0,0,1,.154,9Zm-32.527,0a4.5,4.5,0,0,1-.155-9l.161,0a4.5,4.5,0,0,1,.153,9Zm-32.526,0a4.5,4.5,0,0,1-.155-9l.159,0a4.5,4.5,0,0,1,.154,9Zm-32.53,0a4.5,4.5,0,0,1-.152-9l.161,0a4.5,4.5,0,0,1,.153,9Zm-32.527,0a4.5,4.5,0,0,1-.152-9l.159,0a4.5,4.5,0,0,1,.155,9Zm-32.524,0a4.5,4.5,0,0,1-.155-9l.161,0a4.5,4.5,0,0,1,.153,9Zm-32.53,0a4.5,4.5,0,0,1-.152-9l.159,0a4.5,4.5,0,0,1,.155,9Zm178.9-16.263a4.5,4.5,0,0,1-.156-9c.048,0,.1,0,.159,0a4.5,4.5,0,0,1,.155,9Zm-32.527,0a4.5,4.5,0,0,1-.156-9l.161,0a4.5,4.5,0,0,1,.153,9Zm-32.527,0a4.5,4.5,0,0,1-.156-9c.048,0,.1,0,.159,0a4.5,4.5,0,0,1,.155,9Zm-32.528,0a4.5,4.5,0,0,1-.156-9c.048,0,.1,0,.159,0a4.5,4.5,0,0,1,.156,9Zm-32.528,0a4.5,4.5,0,0,1-.155-9l.161,0a4.5,4.5,0,0,1,.153,9Zm-32.526,0a4.5,4.5,0,0,1-.156-9c.048,0,.1,0,.159,0a4.5,4.5,0,0,1,.156,9Zm146.371-16.264a4.5,4.5,0,0,1-.154-9c.053,0,.107,0,.159,0a4.5,4.5,0,0,1,.154,9Zm-32.527,0a4.5,4.5,0,0,1-.155-9c.054,0,.106,0,.161,0a4.5,4.5,0,0,1,.153,9Zm-32.526,0a4.5,4.5,0,0,1-.156-9l.158,0a4.5,4.5,0,0,1,.157,9Zm-32.528,0a4.5,4.5,0,0,1-.155-9c.054,0,.106,0,.161,0a4.5,4.5,0,0,1,.153,9Zm-32.53,0a4.5,4.5,0,0,1-.152-9c.053,0,.107,0,.159,0a4.5,4.5,0,0,1,.155,9Zm-32.524,0a4.5,4.5,0,0,1-.155-9c.054,0,.106,0,.161,0a4.5,4.5,0,0,1,.153,9ZM317.5,484.372a4.5,4.5,0,0,1-.156-9c.053,0,.106,0,.159,0a4.5,4.5,0,0,1,.155,9Zm-32.527,0a4.5,4.5,0,0,1-.157-9c.053,0,.106,0,.159,0a4.5,4.5,0,0,1,.156,9Zm-65.055,0a4.5,4.5,0,0,1-.156-9c.053,0,.106,0,.159,0a4.5,4.5,0,0,1,.156,9Zm-32.527,0a4.5,4.5,0,0,1-.156-9c.054,0,.106,0,.161,0a4.5,4.5,0,0,1,.153,9Zm65.051,0a4.5,4.5,0,0,1-.152-9c.053,0,.106,0,.159,0a4.5,4.5,0,0,1,.155,9Zm48.793-16.263a4.5,4.5,0,0,1-.155-9c.053,0,.106,0,.159,0a4.5,4.5,0,0,1,.155,9Zm-32.527,0a4.5,4.5,0,0,1-.155-9c.053,0,.107,0,.16,0a4.5,4.5,0,0,1,.154,9Zm-32.526,0a4.5,4.5,0,0,1-.156-9c.053,0,.106,0,.159,0a4.5,4.5,0,0,1,.156,9Zm-32.528,0a4.5,4.5,0,0,1-.155-9c.053,0,.107,0,.16,0a4.5,4.5,0,0,1,.154,9Zm-32.527,0a4.5,4.5,0,0,1-.155-9c.053,0,.106,0,.159,0a4.5,4.5,0,0,1,.155,9Zm81.318-16.263a4.5,4.5,0,0,1-.156-9c.053,0,.107,0,.159,0a4.5,4.5,0,0,1,.156,9Zm-65.054,0a4.5,4.5,0,0,1-.155-9c.053,0,.107,0,.159,0a4.5,4.5,0,0,1,.155,9Zm97.578,0a4.5,4.5,0,0,1-.152-9c.053,0,.107,0,.159,0a4.5,4.5,0,0,1,.155,9Zm-65.054,0a4.5,4.5,0,0,1-.152-9c.053,0,.107,0,.159,0a4.5,4.5,0,0,1,.155,9Zm48.791-16.263a4.5,4.5,0,0,1-.153-9c.053,0,.107,0,.159,0a4.5,4.5,0,0,1,.155,9Zm-32.525,0a4.5,4.5,0,0,1-.155-9c.054,0,.106,0,.161,0a4.5,4.5,0,0,1,.153,9Zm-32.526,0a4.5,4.5,0,0,1-.156-9c.053,0,.107,0,.159,0a4.5,4.5,0,0,1,.156,9Zm-32.531,0a4.5,4.5,0,0,1-.152-9c.054,0,.106,0,.161,0a4.5,4.5,0,0,1,.153,9Zm48.794-16.263a4.5,4.5,0,0,1-.157-9l.159,0a4.5,4.5,0,0,1,.156,9Zm32.523,0a4.5,4.5,0,0,1-.152-9l.159,0a4.5,4.5,0,0,1,.155,9Zm-65.054,0a4.5,4.5,0,0,1-.152-9l.159,0a4.5,4.5,0,0,1,.155,9Zm48.793-16.263a4.5,4.5,0,0,1-.155-9l.159,0a4.5,4.5,0,0,1,.155,9Zm-32.527,0a4.5,4.5,0,0,1-.155-9l.161,0a4.5,4.5,0,0,1,.153,9Zm-32.526,0a4.5,4.5,0,0,1-.156-9l.161,0a4.5,4.5,0,0,1,.154,9Zm16.264-16.263a4.5,4.5,0,0,1-.157-9l.161,0a4.5,4.5,0,0,1,.154,9Zm32.523,0a4.5,4.5,0,0,1-.152-9l.161,0a4.5,4.5,0,0,1,.153,9Zm-16.26-16.263a4.5,4.5,0,0,1-.156-9l.159,0a4.5,4.5,0,0,1,.156,9Zm-32.528,0a4.5,4.5,0,0,1-.155-9l.159,0a4.5,4.5,0,0,1,.155,9Zm16.261-16.264a4.5,4.5,0,0,1-.152-9l.161,0a4.5,4.5,0,0,1,.153,9ZM171.131,338a4.5,4.5,0,0,1-.156-9l.159,0a4.5,4.5,0,0,1,.156,9Z" transform="translate(-166.631 -329)" fill="#e5e5e5"/>
</svg>
