<svg xmlns="http://www.w3.org/2000/svg" width="469.219" height="315.347" viewBox="0 0 469.219 315.347">
  <path id="Subtraction_3" data-name="Subtraction 3" d="M648.5,644.347h-8.216a4.51,4.51,0,0,1,3.954-6.338c.053,0,.107,0,.159,0a4.5,4.5,0,0,1,4.1,6.34Zm-32.527,0H607.76a4.5,4.5,0,0,1,3.951-6.337h.007c.052,0,.1,0,.154,0a4.5,4.5,0,0,1,4.494,4.343,4.531,4.531,0,0,1-.392,2Zm-32.527,0H575.23a4.51,4.51,0,0,1,3.954-6.338c.053,0,.107,0,.159,0a4.482,4.482,0,0,1,4.5,4.343,4.532,4.532,0,0,1-.393,2Zm-32.527,0h-8.213a4.5,4.5,0,0,1,3.951-6.337h.007c.052,0,.1,0,.154,0a4.482,4.482,0,0,1,4.494,4.343,4.532,4.532,0,0,1-.392,2Zm-32.526,0H510.18a4.5,4.5,0,0,1,3.951-6.338l.157,0a4.5,4.5,0,0,1,4.105,6.34Zm-32.527,0h-8.213a4.5,4.5,0,0,1,3.951-6.337h.008c.051,0,.1,0,.154,0a4.5,4.5,0,0,1,4.493,4.343,4.522,4.522,0,0,1-.392,2Zm-32.527,0h-8.216a4.514,4.514,0,0,1-.386-1.684,4.5,4.5,0,0,1,4.341-4.654l.158,0a4.5,4.5,0,0,1,4.1,6.34Zm-24.8,0H412.6a4.5,4.5,0,0,1,3.952-6.337h.007c.052,0,.1,0,.154,0a4.494,4.494,0,0,1,4.409,5.369,4.459,4.459,0,0,1,3.226-1.529l.158,0a4.476,4.476,0,0,1,4.032,2.5Zm-32.526,0H380.072a4.5,4.5,0,0,1,3.951-6.338c.053,0,.107,0,.159,0a4.493,4.493,0,0,1,4.411,5.369,4.459,4.459,0,0,1,3.226-1.528l.161,0a4.474,4.474,0,0,1,4.029,2.5Zm-32.528,0H347.545a4.5,4.5,0,0,1,3.951-6.338c.053,0,.107,0,.159,0a4.493,4.493,0,0,1,4.412,5.369,4.457,4.457,0,0,1,3.225-1.527l.159,0a4.475,4.475,0,0,1,4.031,2.5Zm-32.526,0h-8.067a4.5,4.5,0,0,1,3.877-2.5l.161,0a4.474,4.474,0,0,1,4.029,2.5Zm-32.528,0h-8.066a4.5,4.5,0,0,1,3.876-2.5l.159,0a4.475,4.475,0,0,1,4.031,2.5Zm-32.527,0h-8.067a4.5,4.5,0,0,1,3.877-2.5l.159,0a4.475,4.475,0,0,1,4.03,2.5Zm-32.527,0h-8.066a4.5,4.5,0,0,1,3.875-2.5l.161,0a4.474,4.474,0,0,1,4.029,2.5Zm-32.527,0h-8.066a4.5,4.5,0,0,1,3.875-2.5l.158,0a4.477,4.477,0,0,1,4.032,2.5Zm207.387-9.766a4.507,4.507,0,0,1-4.413-5.368c-.075.084-.136.15-.2.212a4.482,4.482,0,0,1-3.024,1.314c-.049,0-.1,0-.159,0a4.5,4.5,0,0,1-.155-9h.055l.106,0a4.494,4.494,0,0,1,4.41,5.369,4.461,4.461,0,0,1,3.226-1.528l.159,0a4.5,4.5,0,0,1,4.495,4.343,4.5,4.5,0,0,1-4.341,4.654Zm-32.527,0a4.506,4.506,0,0,1-4.414-5.367c-.063.073-.127.14-.2.212a4.483,4.483,0,0,1-3.024,1.314l-.161,0a4.5,4.5,0,0,1-.153-9h.158a4.5,4.5,0,0,1,4.414,5.369,4.459,4.459,0,0,1,3.225-1.527l.159,0a4.5,4.5,0,0,1,.155,9Zm-32.527,0a4.5,4.5,0,0,1-.153-9l.161,0a4.5,4.5,0,0,1,4.494,4.343,4.5,4.5,0,0,1-4.341,4.654Zm-32.527,0a4.5,4.5,0,0,1-.153-9l.159,0a4.5,4.5,0,0,1,.155,9Zm-32.527,0a4.5,4.5,0,0,1-.153-9l.161,0a4.5,4.5,0,0,1,.153,9Zm-32.526,0a4.5,4.5,0,0,1-.154-9l.159,0a4.5,4.5,0,0,1,.156,9Zm-32.526,0a4.5,4.5,0,0,1-.156-9l.159,0a4.5,4.5,0,0,1,.156,9Zm415.054-3.838a4.5,4.5,0,0,1-.155-9h.054l.107,0a4.5,4.5,0,0,1,.153,9C628.24,630.742,628.19,630.743,628.13,630.743Zm-32.527,0a4.5,4.5,0,0,1-.156-9h.054l.105,0a4.5,4.5,0,0,1,.156,9C595.713,630.742,595.663,630.743,595.6,630.743Zm-65.054,0a4.5,4.5,0,0,1-.155-9h.054l.105,0a4.5,4.5,0,0,1,.155,9C530.66,630.742,530.609,630.743,530.549,630.743Zm-65.054,0a4.5,4.5,0,0,1-.155-9h.054l.105,0a4.5,4.5,0,0,1,.155,9C465.606,630.742,465.555,630.743,465.5,630.743Zm195.16,0a4.5,4.5,0,0,1-.153-9h.158a4.5,4.5,0,0,1,1.341.2v8.593a4.514,4.514,0,0,1-1.184.2Zm-97.581,0a4.5,4.5,0,0,1-.153-9h.055l.106,0a4.5,4.5,0,0,1,4.494,4.343,4.5,4.5,0,0,1-4.341,4.655Zm-65.054,0a4.5,4.5,0,0,1-.153-9h.054l.105,0a4.5,4.5,0,0,1,.155,9Zm-65.054,0a4.5,4.5,0,0,1-.152-9h.054l.105,0a4.5,4.5,0,0,1,4.495,4.343,4.5,4.5,0,0,1-4.341,4.655Zm-40.992-12.424a4.506,4.506,0,0,1-4.415-5.367c-.052.059-.124.136-.2.211a4.493,4.493,0,0,1-3.025,1.315l-.159,0a4.5,4.5,0,0,1-.155-9h.159a4.493,4.493,0,0,1,4.412,5.369,4.462,4.462,0,0,1,3.226-1.528l.158,0a4.5,4.5,0,0,1,.156,9Zm-32.528,0a4.5,4.5,0,0,1-.154-9l.161,0a4.5,4.5,0,0,1,4.494,4.343,4.5,4.5,0,0,1-4.342,4.655Zm-32.527,0a4.5,4.5,0,0,1-.155-9l.159,0a4.5,4.5,0,0,1,.155,9Zm-32.526,0a4.5,4.5,0,0,1-.155-9l.161,0a4.5,4.5,0,0,1,4.493,4.343,4.5,4.5,0,0,1-4.34,4.655Zm-32.527,0a4.5,4.5,0,0,1-.156-9l.161,0a4.5,4.5,0,0,1,.154,9Zm-32.527,0a4.5,4.5,0,0,1-.156-9l.158,0a4.5,4.5,0,0,1,.157,9Zm415.054-3.839a4.5,4.5,0,0,1-.155-9h.159a4.5,4.5,0,0,1,.155,9Zm-32.527,0a4.5,4.5,0,0,1-.156-9h.159a4.5,4.5,0,0,1,.156,9Zm-32.528,0a4.5,4.5,0,0,1-.155-9c.054,0,.106,0,.161,0a4.5,4.5,0,0,1,.153,9Zm-32.528,0a4.5,4.5,0,0,1-.154-9h.159a4.5,4.5,0,0,1,.156,9Zm-32.526,0a4.5,4.5,0,0,1-.155-9c.053,0,.108,0,.161,0a4.5,4.5,0,0,1,.153,9Zm-32.526,0a4.5,4.5,0,0,1-.155-9h.158a4.5,4.5,0,0,1,.157,9Zm-32.528,0a4.5,4.5,0,0,1-.154-9c.054,0,.106,0,.161,0a4.5,4.5,0,0,1,4.493,4.341,4.5,4.5,0,0,1-4.341,4.656Zm-32.526,0a4.5,4.5,0,0,1-.155-9h.159a4.5,4.5,0,0,1,.155,9ZM278.13,602.055a4.5,4.5,0,0,1-.155-9l.161,0a4.5,4.5,0,0,1,4.494,4.344,4.5,4.5,0,0,1-4.341,4.655Zm-32.527,0a4.5,4.5,0,0,1-.156-9l.159,0a4.5,4.5,0,0,1,.156,9Zm130.106,0a4.5,4.5,0,0,1-.152-9l.159,0a4.5,4.5,0,0,1,4.495,4.344,4.5,4.5,0,0,1-4.341,4.654Zm-32.527,0a4.5,4.5,0,0,1-.153-9l.159,0a4.5,4.5,0,0,1,.155,9Zm-32.527,0a4.5,4.5,0,0,1-.153-9l.161,0a4.5,4.5,0,0,1,.153,9Zm350-3.838a4.5,4.5,0,0,1-.155-9l.16,0a4.491,4.491,0,0,1,1.338.2v8.594a4.551,4.551,0,0,1-1.184.2C660.763,598.216,660.71,598.216,660.657,598.216Zm-32.529,0a4.5,4.5,0,0,1-.153-9c.052,0,.105,0,.157,0a4.5,4.5,0,0,1,.157,9Zm-32.527,0a4.5,4.5,0,0,1-.153-9l.161,0a4.5,4.5,0,0,1,.153,9Zm-32.525,0a4.5,4.5,0,0,1-.156-9l.159,0a4.5,4.5,0,0,1,.156,9C563.182,598.216,563.129,598.216,563.076,598.216Zm-32.529,0a4.5,4.5,0,0,1-.153-9l.161,0a4.5,4.5,0,0,1,.153,9Zm-32.525,0a4.5,4.5,0,0,1-.155-9l.159,0a4.5,4.5,0,0,1,.155,9C498.128,598.216,498.075,598.216,498.022,598.216Zm-32.529,0a4.5,4.5,0,0,1-.153-9l.159,0a4.5,4.5,0,0,1,.155,9Zm-32.525,0a4.5,4.5,0,0,1-.155-9l.161,0a4.5,4.5,0,0,1,4.494,4.343,4.5,4.5,0,0,1-4.341,4.655C433.075,598.216,433.021,598.216,432.968,598.216Zm-32.529,0a4.5,4.5,0,0,1-.153-9c.052,0,.105,0,.158,0a4.5,4.5,0,0,1,.157,9Zm-40.992-12.425a4.5,4.5,0,0,1-.155-9l.158,0a4.5,4.5,0,0,1,.156,9C359.56,585.79,359.508,585.791,359.447,585.791Zm-32.528,0a4.5,4.5,0,0,1-.154-9l.161,0a4.5,4.5,0,0,1,.152,9C327.033,585.79,326.981,585.791,326.92,585.791Zm-32.526,0a4.5,4.5,0,0,1-.156-9l.161,0a4.5,4.5,0,0,1,.154,9C294.506,585.79,294.454,585.791,294.394,585.791Zm-32.527,0a4.5,4.5,0,0,1-.156-9l.159,0a4.5,4.5,0,0,1,.156,9C261.979,585.79,261.927,585.791,261.867,585.791Zm382.527-3.838a4.5,4.5,0,0,1-.156-9c.048,0,.1,0,.159,0a4.5,4.5,0,0,1,.156,9C644.5,581.951,644.451,581.953,644.394,581.953Zm-32.527,0a4.5,4.5,0,0,1-.155-9c.048,0,.1,0,.159,0a4.5,4.5,0,0,1,.155,9C611.976,581.951,611.924,581.953,611.867,581.953Zm-32.527,0a4.5,4.5,0,0,1-.156-9c.047,0,.1,0,.159,0a4.5,4.5,0,0,1,.156,9C579.45,581.951,579.4,581.953,579.34,581.953Zm-32.528,0a4.5,4.5,0,0,1-.155-9h.052l.109,0a4.5,4.5,0,0,1,4.494,4.342,4.5,4.5,0,0,1-4.341,4.654C546.922,581.951,546.87,581.953,546.812,581.953Zm-32.526,0a4.5,4.5,0,0,1-.156-9c.047,0,.1,0,.159,0a4.5,4.5,0,0,1,.156,9C514.4,581.951,514.344,581.953,514.286,581.953Zm-32.528,0a4.5,4.5,0,0,1-.154-9h.052l.109,0a4.5,4.5,0,0,1,.152,9C481.868,581.951,481.816,581.953,481.758,581.953Zm-32.528,0a4.5,4.5,0,0,1-.153-9c.048,0,.1,0,.159,0a4.5,4.5,0,0,1,.155,9C449.341,581.951,449.288,581.953,449.231,581.953Zm-32.526,0a4.5,4.5,0,0,1-.155-9c.048,0,.1,0,.159,0a4.5,4.5,0,0,1,.155,9C416.814,581.951,416.762,581.953,416.7,581.953ZM310.657,569.528a4.5,4.5,0,0,1-.155-9c.054,0,.108,0,.161,0a4.5,4.5,0,0,1,4.494,4.343,4.5,4.5,0,0,1-4.341,4.655Zm-32.527,0a4.5,4.5,0,0,1-.156-9l.159,0a4.5,4.5,0,0,1,.156,9Zm65.052,0a4.5,4.5,0,0,1-.152-9l.159,0a4.5,4.5,0,0,1,.154,9Zm317.475-3.838a4.5,4.5,0,0,1-.155-9l.158,0a4.5,4.5,0,0,1,1.341.2v8.594a4.55,4.55,0,0,1-1.184.2h-.159Zm-65.053,0a4.5,4.5,0,0,1-.156-9l.157,0a4.5,4.5,0,0,1,.158,9H595.6Zm-32.528,0a4.5,4.5,0,0,1-.155-9c.05,0,.1,0,.161,0a4.5,4.5,0,0,1,4.494,4.343,4.5,4.5,0,0,1-4.341,4.655h-.159Zm-32.527,0a4.5,4.5,0,0,1-.155-9c.048,0,.1,0,.159,0a4.5,4.5,0,0,1,.155,9h-.159Zm-32.527,0a4.5,4.5,0,0,1-.155-9c.05,0,.1,0,.161,0a4.5,4.5,0,0,1,.153,9h-.159Zm-32.527,0a4.5,4.5,0,0,1-.155-9c.05,0,.1,0,.161,0a4.5,4.5,0,0,1,.153,9H465.5Zm-32.527,0a4.5,4.5,0,0,1-.155-9l.157,0a4.5,4.5,0,0,1,.157,9h-.159Zm195.16,0a4.5,4.5,0,0,1-.153-9c.05,0,.1,0,.161,0a4.5,4.5,0,0,1,4.494,4.343,4.5,4.5,0,0,1-4.341,4.653C628.242,565.688,628.19,565.689,628.128,565.689ZM326.921,553.264a4.5,4.5,0,0,1-.155-9l.159,0a4.5,4.5,0,0,1,.155,9Zm-32.529,0a4.5,4.5,0,0,1-.154-9c.054,0,.107,0,.161,0a4.5,4.5,0,0,1,.154,9Zm350-3.839a4.5,4.5,0,0,1-.153-9c.053,0,.107,0,.159,0a4.5,4.5,0,0,1,4.5,4.343,4.5,4.5,0,0,1-4.341,4.653C644.5,549.424,644.452,549.426,644.392,549.426Zm-32.527,0a4.5,4.5,0,0,1-.154-9c.053,0,.107,0,.159,0a4.5,4.5,0,0,1,.156,9C611.979,549.425,611.927,549.426,611.865,549.426Zm-32.527,0a4.5,4.5,0,0,1-.153-9c.053,0,.107,0,.159,0a4.5,4.5,0,0,1,4.495,4.343,4.5,4.5,0,0,1-4.34,4.653C579.451,549.424,579.4,549.426,579.338,549.426Zm-32.525,0a4.5,4.5,0,0,1-.156-9c.053,0,.107,0,.159,0a4.5,4.5,0,0,1,.156,9C546.924,549.424,546.872,549.426,546.813,549.426Zm-32.53,0a4.5,4.5,0,0,1-.153-9c.05,0,.1,0,.161,0a4.5,4.5,0,0,1,.153,9C514.4,549.424,514.343,549.426,514.283,549.426Zm-32.526,0a4.5,4.5,0,0,1-.153-9c.054,0,.106,0,.161,0a4.5,4.5,0,0,1,4.493,4.343,4.5,4.5,0,0,1-4.34,4.653C481.87,549.424,481.817,549.426,481.757,549.426Zm-32.528,0a4.5,4.5,0,0,1-.153-9c.053,0,.107,0,.159,0a4.5,4.5,0,0,1,.155,9C449.342,549.424,449.289,549.426,449.23,549.426ZM310.655,537a4.5,4.5,0,0,1-.153-9l.159,0a4.5,4.5,0,0,1,.155,9Zm350-3.838a4.5,4.5,0,0,1-.155-9c.049,0,.1,0,.161,0a4.48,4.48,0,0,1,1.337.2v8.593a4.477,4.477,0,0,1-1.184.2C660.768,533.162,660.717,533.163,660.657,533.163Zm-32.527,0a4.5,4.5,0,0,1-.155-9l.157,0a4.5,4.5,0,0,1,.157,9C628.241,533.162,628.19,533.163,628.13,533.163Zm-32.527,0a4.5,4.5,0,0,1-.155-9c.049,0,.1,0,.161,0a4.5,4.5,0,0,1,.153,9C595.714,533.162,595.664,533.163,595.6,533.163Zm-32.526,0a4.5,4.5,0,0,1-.156-9l.158,0a4.5,4.5,0,0,1,.157,9C563.188,533.162,563.138,533.163,563.077,533.163Zm-32.528,0a4.5,4.5,0,0,1-.155-9c.049,0,.1,0,.161,0a4.5,4.5,0,0,1,.153,9C530.66,533.162,530.61,533.163,530.549,533.163Zm-32.527,0a4.5,4.5,0,0,1-.155-9c.049,0,.1,0,.161,0a4.5,4.5,0,0,1,.153,9C498.134,533.162,498.083,533.163,498.022,533.163Zm-32.527,0a4.5,4.5,0,0,1-.155-9c.053,0,.106,0,.159,0a4.5,4.5,0,0,1,.155,9C465.607,533.162,465.556,533.163,465.5,533.163Zm178.9-16.264a4.5,4.5,0,0,1-.154-9c.048,0,.1,0,.159,0a4.5,4.5,0,0,1,.156,9C644.5,516.9,644.445,516.9,644.392,516.9Zm-32.527,0a4.5,4.5,0,0,1-.153-9c.048,0,.1,0,.159,0a4.5,4.5,0,0,1,4.5,4.344,4.5,4.5,0,0,1-4.341,4.653C611.972,516.9,611.918,516.9,611.865,516.9Zm-32.525,0a4.5,4.5,0,0,1-.156-9c.048,0,.1,0,.159,0a4.5,4.5,0,0,1,.156,9C579.446,516.9,579.393,516.9,579.34,516.9Zm-32.529,0a4.5,4.5,0,0,1-.153-9c.048,0,.1,0,.159,0a4.5,4.5,0,0,1,.155,9C546.918,516.9,546.864,516.9,546.811,516.9Zm-32.525,0a4.5,4.5,0,0,1-.156-9c.049,0,.1,0,.161,0a4.5,4.5,0,0,1,.154,9C514.392,516.9,514.339,516.9,514.286,516.9Zm-32.53,0a4.5,4.5,0,0,1-.153-9c.048,0,.1,0,.159,0a4.5,4.5,0,0,1,.155,9C481.864,516.9,481.81,516.9,481.757,516.9Zm178.9-16.263a4.5,4.5,0,0,1-.153-9h.158a4.5,4.5,0,0,1,1.341.2v8.594a4.509,4.509,0,0,1-1.184.2C660.768,500.635,660.715,500.636,660.655,500.636Zm-32.525,0a4.5,4.5,0,0,1-.155-9c.047,0,.1,0,.161,0a4.5,4.5,0,0,1,.153,9C628.24,500.635,628.19,500.636,628.13,500.636Zm-32.527,0a4.5,4.5,0,0,1-.155-9h.055l.1,0a4.5,4.5,0,0,1,.157,9C595.713,500.635,595.663,500.636,595.6,500.636Zm-32.527,0a4.5,4.5,0,0,1-.155-9c.048,0,.1,0,.161,0a4.5,4.5,0,0,1,.153,9C563.186,500.635,563.136,500.636,563.076,500.636Zm-32.526,0a4.5,4.5,0,0,1-.156-9l.159,0a4.5,4.5,0,0,1,.156,9C530.66,500.635,530.61,500.636,530.55,500.636Zm-32.528,0a4.5,4.5,0,0,1-.155-9l.159,0a4.5,4.5,0,0,1,.155,9C498.133,500.635,498.082,500.636,498.022,500.636Zm113.846-16.263a4.5,4.5,0,0,1-.157-9l.159,0a4.5,4.5,0,0,1,.156,9C611.977,484.372,611.927,484.373,611.869,484.373Zm-65.054,0a4.5,4.5,0,0,1-.158-9l.161,0a4.5,4.5,0,0,1,4.494,4.344,4.5,4.5,0,0,1-4.34,4.654C546.926,484.372,546.874,484.373,546.815,484.373Zm97.577,0a4.5,4.5,0,0,1-.153-9l.159,0a4.5,4.5,0,0,1,4.5,4.344,4.5,4.5,0,0,1-4.341,4.654Zm-65.054,0a4.5,4.5,0,0,1-.153-9l.159,0a4.5,4.5,0,0,1,.155,9Zm-65.054,0a4.5,4.5,0,0,1-.154-9l.159,0a4.5,4.5,0,0,1,.156,9Zm146.372-16.263a4.5,4.5,0,0,1-.155-9c.048,0,.1,0,.16,0a4.491,4.491,0,0,1,1.338.2v8.594a4.551,4.551,0,0,1-1.184.2Zm-32.527,0a4.5,4.5,0,0,1-.155-9h.008c.05,0,.1,0,.15,0a4.5,4.5,0,0,1,.157,9Zm-32.527,0a4.5,4.5,0,0,1-.155-9c.049,0,.1,0,.161,0a4.5,4.5,0,0,1,.153,9Zm-32.526,0a4.5,4.5,0,0,1-.156-9c.047,0,.1,0,.159,0a4.5,4.5,0,0,1,.156,9Zm-32.528,0a4.5,4.5,0,0,1-.155-9c.047,0,.1,0,.159,0a4.5,4.5,0,0,1,.155,9ZM644.4,451.846a4.5,4.5,0,0,1-.157-9c.059,0,.109,0,.159,0a4.5,4.5,0,0,1,.156,9Zm-65.054,0a4.5,4.5,0,0,1-.158-9h.007c.052,0,.1,0,.154,0a4.5,4.5,0,0,1,4.494,4.344,4.5,4.5,0,0,1-4.34,4.655Zm32.523,0a4.5,4.5,0,0,1-.153-9c.059,0,.109,0,.159,0a4.5,4.5,0,0,1,.155,9Zm-65.054,0a4.5,4.5,0,0,1-.154-9c.059,0,.109,0,.159,0a4.5,4.5,0,0,1,.156,9Zm113.846-16.263a4.5,4.5,0,0,1-.155-9h.007c.051,0,.1,0,.154,0a4.479,4.479,0,0,1,1.337.2v8.594a4.548,4.548,0,0,1-1.184.2Zm-32.527,0a4.5,4.5,0,0,1-.155-9h.008c.051,0,.1,0,.154,0a4.5,4.5,0,0,1,.153,9Zm-32.526,0a4.5,4.5,0,0,1-.156-9c.047,0,.1,0,.159,0a4.5,4.5,0,0,1,.156,9Zm-32.528,0a4.5,4.5,0,0,1-.156-9h.007c.051,0,.1,0,.154,0a4.5,4.5,0,0,1,.154,9Zm48.793-16.263a4.5,4.5,0,0,1-.157-9c.047,0,.1,0,.159,0a4.5,4.5,0,0,1,.156,9h-.055Zm32.523,0a4.5,4.5,0,0,1-.153-9c.047,0,.1,0,.159,0a4.5,4.5,0,0,1,.155,9Zm-65.054,0a4.5,4.5,0,0,1-.154-9c.047,0,.1,0,.159,0a4.5,4.5,0,0,1,.156,9Zm81.319-16.263a4.5,4.5,0,0,1-.155-9h.005c.051,0,.1,0,.154,0a4.5,4.5,0,0,1,1.339.2v8.592a4.53,4.53,0,0,1-1.184.2Zm-32.527,0a4.5,4.5,0,0,1-.155-9h.005c.054,0,.1,0,.156,0a4.5,4.5,0,0,1,.153,9Zm-32.527,0a4.5,4.5,0,0,1-.156-9c.059,0,.109,0,.161,0a4.5,4.5,0,0,1,.154,9ZM644.4,386.792a4.5,4.5,0,0,1-.157-9h.005c.054,0,.1,0,.156,0a4.5,4.5,0,0,1,.154,9Zm-32.53,0a4.5,4.5,0,0,1-.154-9c.048,0,.1,0,.159,0a4.5,4.5,0,0,1,.156,9Zm48.792-16.263a4.5,4.5,0,0,1-.155-9c.05,0,.1,0,.161,0a4.477,4.477,0,0,1,1.337.2v8.594a4.554,4.554,0,0,1-1.184.2Zm-32.527,0a4.5,4.5,0,0,1-.156-9c.048,0,.1,0,.159,0a4.5,4.5,0,0,1,.156,9Zm16.262-16.264a4.5,4.5,0,0,1-.154-9c.056,0,.108,0,.159,0a4.5,4.5,0,0,1,.156,9ZM660.655,338a4.5,4.5,0,0,1-.153-9l.158,0a4.5,4.5,0,0,1,1.341.2V337.8a4.553,4.553,0,0,1-1.184.2Z" transform="translate(-192.782 -329)" fill="#e5e5e5"/>
</svg>
