<svg xmlns="http://www.w3.org/2000/svg" width="184.002" height="187.898" viewBox="0 0 184.002 187.898">
  <path id="Subtraction_2" data-name="Subtraction 2" d="M287.393,904.084a4.5,4.5,0,0,1-.156-9l.159,0a4.643,4.643,0,0,1,.6.04v8.921c-.152.02-.3.032-.447.038ZM271.13,887.82a4.5,4.5,0,0,1-.155-9l.161,0a4.5,4.5,0,0,1,.153,9Zm-16.263-16.263a4.5,4.5,0,0,1-.155-9l.159,0a4.5,4.5,0,0,1,.155,9Zm32.524,0a4.5,4.5,0,0,1-.152-9l.159,0a4.632,4.632,0,0,1,.6.04v8.92c-.154.02-.3.032-.447.038Zm-16.26-16.263a4.5,4.5,0,0,1-.156-9l.16,0a4.5,4.5,0,0,1,.155,9Zm-32.528,0a4.5,4.5,0,0,1-.155-9l.16,0a4.5,4.5,0,0,1,.154,9Zm48.791-16.263a4.5,4.5,0,0,1-.156-9l.16,0a4.632,4.632,0,0,1,.6.04v8.92c-.154.02-.3.033-.447.038Zm-65.054,0a4.5,4.5,0,0,1-.155-9l.16,0a4.5,4.5,0,0,1,.154,9Zm32.524,0a4.5,4.5,0,0,1-.152-9l.16,0a4.5,4.5,0,0,1,.154,9Zm16.263-16.263a4.5,4.5,0,0,1-.152-9c.053,0,.107,0,.16,0a4.5,4.5,0,0,1,.154,9Zm-32.523,0a4.5,4.5,0,0,1-.156-9c.053,0,.107,0,.161,0a4.5,4.5,0,0,1,.154,9Zm-32.53,0a4.5,4.5,0,0,1-.151-9c.053,0,.107,0,.16,0a4.5,4.5,0,0,1,.153,9ZM254.867,806.5a4.5,4.5,0,0,1-.155-9c.053,0,.107,0,.16,0a4.5,4.5,0,0,1,.154,9Zm-65.054,0a4.5,4.5,0,0,1-.155-9c.053,0,.107,0,.161,0a4.5,4.5,0,0,1,.153,9Zm97.578,0a4.5,4.5,0,0,1-.152-9c.053,0,.107,0,.16,0a4.457,4.457,0,0,1,.6.041v8.919c-.153.02-.3.033-.447.038Zm-65.054,0a4.5,4.5,0,0,1-.152-9c.053,0,.106,0,.159,0a4.5,4.5,0,0,1,.155,9ZM271.13,790.24a4.5,4.5,0,0,1-.156-9h.007c.053,0,.1,0,.152,0a4.5,4.5,0,0,1,.156,9Zm-32.531,0a4.5,4.5,0,0,1-.152-9c.053,0,.107,0,.161,0a4.5,4.5,0,0,1,.153,9Zm-32.523,0a4.5,4.5,0,0,1-.156-9h.008c.053,0,.1,0,.152,0a4.5,4.5,0,0,1,.156,9Zm-32.53,0a4.5,4.5,0,0,1-.152-9h.007c.053,0,.1,0,.152,0a4.5,4.5,0,0,1,.155,9Zm113.848-16.263a4.5,4.5,0,0,1-.157-9c.05,0,.1,0,.161,0a4.477,4.477,0,0,1,.6.041v8.92c-.153.02-.3.033-.447.038Zm-65.055,0a4.5,4.5,0,0,1-.155-9h.006c.053,0,.1,0,.155,0a4.5,4.5,0,0,1,.153,9Zm32.524,0a4.5,4.5,0,0,1-.152-9h.007c.053,0,.1,0,.152,0a4.5,4.5,0,0,1,.155,9Zm-65.054,0a4.5,4.5,0,0,1-.152-9l.158,0a4.5,4.5,0,0,1,.157,9Zm-32.528,0a4.5,4.5,0,0,1-.151-9h.006c.053,0,.1,0,.155,0a4.5,4.5,0,0,1,.152,9ZM271.13,757.713a4.5,4.5,0,0,1-.155-9h.006c.053,0,.1,0,.155,0a4.5,4.5,0,0,1,.153,9Zm-32.526,0a4.5,4.5,0,0,1-.156-9l.159,0a4.5,4.5,0,0,1,.156,9Zm-32.53,0a4.5,4.5,0,0,1-.152-9l.159,0a4.5,4.5,0,0,1,.155,9Zm-65.054,0a4.5,4.5,0,0,1-.152-9l.159,0a4.5,4.5,0,0,1,.155,9Zm32.527,0a4.5,4.5,0,0,1-.151-9l.159,0a4.5,4.5,0,0,1,.154,9Zm81.321-16.262a4.5,4.5,0,0,1-.156-9l.161,0a4.5,4.5,0,0,1,.153,9Zm32.523,0a4.5,4.5,0,0,1-.152-9l.159,0a4.632,4.632,0,0,1,.6.04v8.919c-.154.02-.3.032-.447.038Zm-65.054,0a4.5,4.5,0,0,1-.152-9l.158,0a4.5,4.5,0,0,1,.157,9Zm-32.528,0a4.5,4.5,0,0,1-.151-9l.161,0a4.5,4.5,0,0,1,.152,9Zm-32.526,0a4.5,4.5,0,0,1-.152-9l.158,0a4.5,4.5,0,0,1,.157,9Zm-32.528,0a4.5,4.5,0,0,1-.151-9l.161,0a4.5,4.5,0,0,1,.152,9ZM271.13,725.186a4.5,4.5,0,0,1-.156-9l.159,0a4.5,4.5,0,0,1,.156,9Zm-32.528,0a4.5,4.5,0,0,1-.155-9l.159,0a4.5,4.5,0,0,1,.155,9Zm-65.056,0a4.5,4.5,0,0,1-.152-9l.159,0a4.5,4.5,0,0,1,.155,9Zm-65.051,0a4.5,4.5,0,0,1-.155-9l.159,0a4.5,4.5,0,0,1,.155,9Zm97.578,0a4.5,4.5,0,0,1-.151-9l.159,0a4.5,4.5,0,0,1,.154,9Zm-65.054,0a4.5,4.5,0,0,1-.151-9l.159,0a4.5,4.5,0,0,1,.154,9Z" transform="translate(-103.998 -716.186)" fill="#e5e5e5"/>
</svg>
