<svg xmlns="http://www.w3.org/2000/svg" width="60.75" height="72" viewBox="0 0 60.75 72">
  <path id="logo-jedzenie" d="M17.035,1.928c-7.456,0-13.5,7.052-13.5,15.75,0,7.448,4.431,13.687,10.386,15.328L11.685,69.437a4.191,4.191,0,0,0,4.225,4.491h2.25a4.191,4.191,0,0,0,4.225-4.491L20.149,33.006c5.954-1.641,10.386-7.88,10.386-15.328,0-8.7-6.044-15.75-13.5-15.75Zm45.375,0-3.75,22.5H55.847l-1.875-22.5H52.1l-1.875,22.5H47.41l-3.75-22.5H41.785v29.25a2.25,2.25,0,0,0,2.25,2.25h5.86L47.685,69.437a4.191,4.191,0,0,0,4.225,4.491h2.25a4.191,4.191,0,0,0,4.225-4.491L56.175,33.428h5.86a2.25,2.25,0,0,0,2.25-2.25V1.928Z" transform="translate(-3.535 -1.928)" fill="#58b44f"/>
</svg>
