<?xml version="1.0" standalone="no"?>
<!DOCTYPE svg PUBLIC "-//W3C//DTD SVG 1.1//EN" "http://www.w3.org/Graphics/SVG/1.1/DTD/svg11.dtd" >
<svg xmlns="http://www.w3.org/2000/svg">
<metadata>Generated by IcoMoon</metadata>
<defs>
<font id="icomoon" horiz-adv-x="1024">
<font-face units-per-em="1024" ascent="960" descent="-64" />
<missing-glyph horiz-adv-x="1024" />
<glyph unicode="&#x20;" horiz-adv-x="512" d="" />
<glyph unicode="&#xe900;" glyph-name="add-circle" d="M526.336 960c-282.624 8.192-518.144-214.016-526.336-496.64 0-5.12 0-10.24 0-15.36 0-282.624 229.376-512 512-512s512 229.376 512 512c0 277.504-220.16 503.808-497.664 512zM798.72 376.32h-215.040v-215.040h-143.36v215.040h-215.040v143.36h215.040v215.040h143.36v-215.040h215.040v-143.36z" />
<glyph unicode="&#xe901;" glyph-name="add" d="M904.533 570.88h-269.653v269.653c0 64.853-58.027 119.467-122.88 119.467s-122.88-54.613-122.88-119.467v-269.653h-269.653c-64.853 0-119.467-58.027-119.467-122.88s54.613-122.88 119.467-122.88h269.653v-269.653c0-64.853 54.613-119.467 122.88-119.467 64.853 0 122.88 54.613 122.88 119.467v269.653h269.653c64.853 0 119.467 54.613 119.467 122.88 0 64.853-54.613 122.88-119.467 122.88z" />
<glyph unicode="&#xe902;" glyph-name="check" horiz-adv-x="1365" d="M13.653 393.387c-6.827 13.653-13.653 27.307-13.653 40.96s6.827 27.307 13.653 34.133l75.093 75.093c20.48 20.48 54.613 20.48 75.093 0l6.827-6.827 286.72-300.373c13.653-13.653 27.307-13.653 34.133 0l703.147 709.973h6.827c20.48 20.48 54.613 20.48 75.093 0l75.093-68.267c20.48-20.48 20.48-54.613 0-75.093v0 0l-839.68-853.333c-13.653-6.827-20.48-13.653-40.96-13.653-13.653 0-27.307 6.827-34.133 13.653l-409.6 430.080-13.653 13.653z" />
<glyph unicode="&#xe903;" glyph-name="compass" d="M873.703 809.703c-95.794 97.445-224.619 150.297-361.703 150.297s-265.91-52.852-361.703-150.297c-97.445-95.794-150.297-224.619-150.297-361.703s52.852-265.91 150.297-361.703c95.794-97.445 224.619-150.297 361.703-150.297s265.91 52.852 361.703 150.297c199.845 199.845 199.845 523.561 0 723.406zM820.852 139.148c-82.581-82.581-191.587-128.826-308.852-128.826s-226.271 46.245-308.852 128.826c-82.581 82.581-128.826 193.239-128.826 308.852 0 117.265 46.245 226.271 128.826 308.852s191.587 128.826 308.852 128.826c117.265 0 226.271-46.245 308.852-128.826 170.116-170.116 170.116-447.587 0-617.703zM725.058 712.258c0 0-290.684-173.419-298.942-181.677-8.258-9.91-178.374-295.639-178.374-295.639-8.258-14.865-6.606-33.032 4.955-46.245 6.606-6.606 16.516-11.561 26.426-11.561 6.606 0 13.213 1.652 19.819 4.955 0 0 284.077 168.465 293.987 176.723 13.213 9.91 181.677 298.942 181.677 298.942 8.258 14.865 6.606 33.032-4.955 46.245-11.561 14.865-31.381 16.516-44.594 8.258zM538.426 414.968l-150.297-90.839 90.839 150.297 151.948 92.49-92.49-151.948z" />
<glyph unicode="&#xe904;" glyph-name="heart" horiz-adv-x="1154" d="M1069.511 859.225c-56.889 65.016-134.908 100.775-222.679 100.775-121.905 0-198.298-73.143-242.184-134.908-11.378-16.254-21.13-32.508-29.257-47.137-8.127 14.629-17.879 30.883-29.257 47.137-40.635 61.765-118.654 134.908-238.933 134.908-87.771 0-165.79-35.759-222.679-100.775-55.263-61.765-84.521-144.66-84.521-232.432 0-97.524 37.384-186.921 118.654-282.819 71.517-86.146 175.543-173.917 295.822-276.317 43.886-39.010 91.022-78.019 139.784-120.279l1.625-1.625c6.502-4.876 14.629-8.127 22.756-8.127s16.254 3.251 22.756 8.127l1.625 1.625c48.762 43.886 95.898 82.895 139.784 120.279 120.279 102.4 222.679 191.797 295.822 276.317 81.27 95.898 118.654 185.295 118.654 282.819-3.251 87.771-32.508 170.667-87.771 232.432zM697.295 118.044c-39.010-32.508-78.019-66.641-120.279-104.025-42.26 35.759-81.27 69.892-120.279 104.025-234.057 201.549-390.095 333.206-390.095 507.124 1.625 73.143 24.381 139.784 68.267 188.546 43.886 50.387 105.651 78.019 172.292 78.019 92.648 0 152.787-56.889 186.921-105.651 30.883-43.886 47.137-86.146 52.013-104.025 4.876-14.629 17.879-22.756 32.508-22.756s27.632 9.752 32.508 22.756c4.876 16.254 21.13 60.14 52.013 104.025 34.133 48.762 94.273 105.651 186.921 105.651 66.641 0 128.406-27.632 172.292-78.019 43.886-48.762 66.641-117.029 66.641-188.546-3.251-173.917-157.663-305.575-391.721-507.124z" />
<glyph unicode="&#xe905;" glyph-name="search" horiz-adv-x="983" d="M968.309 27.621l-242.526 253.305c62.877 73.656 97.011 168.87 97.011 265.881 0 228.154-185.039 413.193-411.396 413.193s-411.396-185.039-411.396-413.193c0-228.154 185.039-413.193 411.396-413.193 84.435 0 165.277 25.151 235.34 75.453l244.323-255.102c10.779-10.779 23.354-16.168 39.523-16.168 14.372 0 26.947 5.389 37.726 14.372 19.761 19.761 19.761 53.895 0 75.453zM411.396 241.404c-167.074 0-303.607 136.533-303.607 305.404s136.533 305.404 303.607 305.404c167.074 0 303.607-136.533 303.607-305.404s-136.533-305.404-303.607-305.404z" />
<glyph unicode="&#xe906;" glyph-name="thunder" horiz-adv-x="2291" d="M1424.895 481.217l-460.456 478.783-964.438-1024 877.387 478.783 449.002-478.783 964.438 1024z" />
<glyph unicode="&#xe907;" glyph-name="user" horiz-adv-x="1073" d="M534.756 384.61c159.289 0 287.695 128.406 287.695 287.695s-130.032 287.695-287.695 287.695-287.695-128.406-287.695-287.695c0-157.663 128.406-287.695 287.695-287.695zM534.756 885.232c117.029 0 211.302-95.898 211.302-211.302 0-117.029-95.898-211.302-211.302-211.302s-211.302 95.898-211.302 211.302c0 115.403 94.273 211.302 211.302 211.302zM711.924 334.222h-351.086c-198.298 0-360.838-160.914-360.838-360.838 0-21.13 16.254-37.384 37.384-37.384h996.368c21.13 0 37.384 16.254 37.384 37.384 1.625 199.924-159.289 360.838-359.213 360.838zM78.019 12.394c17.879 138.159 138.159 247.060 281.194 247.060h352.711c144.66 0 263.314-107.276 281.194-247.060h-915.098z" />
<glyph unicode="&#xe908;" glyph-name="star" d="M1024 448l-150.187 97.849 81.92 159.289-179.769 6.827-9.102 179.769-159.289-81.92-95.573 150.187-97.849-150.187-159.289 81.92-6.827-179.769-179.769-6.827 81.92-159.289-150.187-97.849 150.187-95.573-81.92-159.289 179.769-9.102 6.827-179.769 159.289 81.92 97.849-150.187 95.573 150.187 159.289-81.92 9.102 179.769 179.769 9.102-81.92 159.289z" />
<glyph unicode="&#xe909;" glyph-name="search-thick" d="M952.038 125.141l-94.131 94.131c53.311 76.36 84.805 169.083 84.805 269.372 0.176 260.223-210.958 471.357-471.357 471.357s-471.357-211.134-471.357-471.357 211.134-471.533 471.357-471.533c100.289 0 193.012 31.494 269.372 84.805l141.636-141.636c32.374-32.374 84.805-32.374 117.179 0 32.55 32.374 32.55 84.805 0.176 117.179l-47.681 47.681zM469.245 234.755c-136.709 0-247.555 110.845-247.555 247.555s110.845 247.555 247.555 247.555 247.555-110.845 247.555-247.555-110.845-247.555-247.555-247.555z" />
<glyph unicode="&#xe90a;" glyph-name="speaker-low" horiz-adv-x="667" d="M650.067 942.742c-11.506 11.506-23.011 17.258-40.27 17.258s-28.764-5.753-40.27-17.258l-287.64-281.888h-224.36c-17.258 0-28.764-5.753-40.27-17.258-11.506-5.753-17.258-17.258-17.258-34.517v-322.157c0-17.258 5.753-28.764 17.258-40.27s23.011-17.258 40.27-17.258h224.36l287.64-281.888c11.506-11.506 23.011-17.258 40.27-17.258s28.764 5.753 40.27 17.258c11.506 11.506 17.258 23.011 17.258 40.27v920.449c0 11.506-5.753 23.011-17.258 34.517z" />
<glyph unicode="&#xe90b;" glyph-name="auto" d="M514.926 725.943h-5.851c-17.554-76.069-40.96-163.84-58.514-234.057l-11.703-52.663h146.286l-11.703 52.663c-17.554 70.217-40.96 157.989-58.514 234.057zM509.074 960c-280.869 0-509.074-228.206-509.074-509.074s228.206-509.074 509.074-509.074c280.869 0 509.074 228.206 509.074 509.074s-222.354 509.074-509.074 509.074zM836.754 129.097h-157.989c-11.703 0-23.406 5.851-29.257 23.406l-35.109 134.583h-210.651l-35.109-134.583c-5.851-11.703-11.703-23.406-29.257-23.406h-152.137c-17.554 0-35.109 17.554-29.257 35.109l216.503 690.469c5.851 11.703 11.703 17.554 29.257 17.554h216.503c11.703 0 23.406-5.851 29.257-17.554l216.503-690.469c5.851-17.554-5.851-35.109-29.257-35.109z" />
<glyph unicode="&#xe90c;" glyph-name="auto2" d="M468.114 667.429l-140.434-392.046h81.92l29.257 87.771h140.434l29.257-87.771h81.92l-134.583 392.046h-87.771zM462.263 421.669l46.811 157.989 52.663-157.989h-99.474zM509.074 960c-280.869 0-509.074-228.206-509.074-509.074s228.206-509.074 509.074-509.074c280.869 0 509.074 228.206 509.074 509.074 5.851 280.869-222.354 509.074-509.074 509.074zM860.16 304.64v-204.8h-204.8l-146.286-146.286-146.286 146.286h-198.949v204.8l-146.286 146.286 146.286 146.286v198.949h204.8l146.286 146.286 146.286-146.286h204.8v-204.8l146.286-146.286-152.137-140.434z" />
<glyph unicode="&#xe90d;" glyph-name="echo" d="M509.074 960c-280.869 0-509.074-228.206-509.074-509.074s228.206-509.074 509.074-509.074c280.869 0 509.074 228.206 509.074 509.074 5.851 280.869-222.354 509.074-509.074 509.074zM509.074-28.891c-263.314 0-479.817 216.503-479.817 479.817s216.503 479.817 479.817 479.817c263.314 0 479.817-216.503 479.817-479.817s-216.503-479.817-479.817-479.817zM392.046 813.714c11.703 5.851 17.554 11.703 17.554 23.406s-11.703 17.554-23.406 11.703c-64.366-17.554-128.731-52.663-175.543-99.474s-81.92-111.177-99.474-175.543c0-11.703 5.851-17.554 11.703-23.406 0 0 0 0 5.851 0s17.554 5.851 17.554 11.703c17.554 58.514 46.811 117.029 87.771 157.989 46.811 52.663 99.474 81.92 157.989 93.623zM901.12 345.6c-11.703 0-17.554-5.851-23.406-11.703-17.554-58.514-46.811-117.029-87.771-157.989-46.811-46.811-99.474-76.069-157.989-87.771-11.703 0-17.554-11.703-11.703-23.406 0-5.851 11.703-11.703 17.554-11.703 0 0 0 0 5.851 0 64.366 17.554 128.731 52.663 175.543 99.474s81.92 111.177 99.474 175.543c-5.851 5.851-11.703 11.703-17.554 17.554zM415.451 731.794c11.703 0 17.554 11.703 11.703 17.554 0 11.703-11.703 17.554-17.554 11.703-52.663-5.851-99.474-35.109-140.434-70.217-35.109-40.96-64.366-87.771-76.069-140.434 0-11.703 5.851-17.554 11.703-17.554 0 0 0 0 5.851 0s17.554 5.851 17.554 11.703c11.703 46.811 35.109 87.771 64.366 122.88 35.109 29.257 76.069 52.663 122.88 64.366zM830.903 345.6c0 11.703-5.851 17.554-11.703 17.554-11.703 0-17.554-5.851-17.554-11.703-11.703-46.811-35.109-87.771-70.217-122.88s-76.069-58.514-122.88-70.217c-11.703 0-17.554-11.703-11.703-17.554 0-5.851 11.703-11.703 17.554-11.703 0 0 0 0 5.851 0 52.663 11.703 99.474 40.96 140.434 76.069 29.257 40.96 58.514 87.771 70.217 140.434zM450.56 673.28c0 11.703-11.703 17.554-17.554 11.703-81.92-17.554-140.434-76.069-157.989-157.989 0-11.703 5.851-17.554 11.703-17.554 0 0 0 0 5.851 0s17.554 5.851 17.554 11.703c11.703 64.366 64.366 117.029 128.731 128.731 11.703 5.851 17.554 11.703 11.703 23.406zM748.983 369.006c0 11.703-5.851 17.554-11.703 17.554-11.703 0-17.554-5.851-17.554-11.703-11.703-64.366-64.366-117.029-128.731-128.731-11.703 0-17.554-11.703-11.703-17.554 0-5.851 11.703-11.703 17.554-11.703 0 0 0 0 5.851 0 64.366 11.703 128.731 76.069 146.286 152.137zM649.509 450.926c0 76.069-64.366 140.434-140.434 140.434s-140.434-64.366-140.434-140.434c0-76.069 64.366-140.434 140.434-140.434s140.434 64.366 140.434 140.434zM509.074 345.6c-58.514 0-105.326 46.811-105.326 105.326 5.851 52.663 52.663 99.474 105.326 99.474 58.514 0 105.326-46.811 105.326-105.326 0-52.663-46.811-99.474-105.326-99.474z" />
<glyph unicode="&#xe90e;" glyph-name="input" d="M789.943 328.046h-555.886c-23.406 0-40.96-23.406-35.109-52.663l5.851-76.069c5.851-29.257 23.406-52.663 52.663-52.663h509.074c23.406 0 46.811 23.406 52.663 52.663l11.703 76.069c0 29.257-17.554 52.663-40.96 52.663zM509.074 960c-280.869 0-509.074-228.206-509.074-509.074s228.206-509.074 509.074-509.074c280.869 0 509.074 228.206 509.074 509.074 5.851 280.869-222.354 509.074-509.074 509.074zM871.863 123.246c-5.851-29.257-29.257-52.663-52.663-52.663h-614.4c-23.406 0-46.811 23.406-52.663 52.663l-29.257 181.394c-5.851 29.257 0 70.217 11.703 93.623l134.583 374.491c11.703 23.406 40.96 46.811 64.366 46.811h87.771l-11.703-198.949h-117.029l222.354-210.651 222.354 210.651h-117.029l-17.554 204.8h87.771c23.406 0 52.663-17.554 64.366-46.811l134.583-374.491c11.703-23.406 17.554-70.217 11.703-93.623l-29.257-187.246z" />
<glyph unicode="&#xe90f;" glyph-name="pencil" d="M108.831 297.121l-108.831-361.121 361.121 108.831v24.734l-227.556 227.556h-24.734zM578.783 762.126l-395.749-395.749v-19.787l227.556-227.556h19.787l395.749 395.749v19.787l-227.556 227.556h-19.787zM865.7 950.106l-9.894 9.894h-84.097l-123.671-123.671v-19.787l227.556-227.556h19.787l128.618 123.671v79.15l-158.3 158.3z" />
<glyph unicode="&#xe910;" glyph-name="sound-bar" d="M509.074 960c-280.869 0-509.074-228.206-509.074-509.074s228.206-509.074 509.074-509.074c280.869 0 509.074 228.206 509.074 509.074 5.851 280.869-222.354 509.074-509.074 509.074zM965.486 427.52h-257.463l-58.514-122.88-46.811 122.88-76.069-245.76-58.514 356.937-64.366-222.354-52.663 152.137-17.554-40.96h-275.017c-11.703 0-23.406 11.703-23.406 23.406s11.703 23.406 23.406 23.406h245.76l58.514 111.177 40.96-117.029 81.92 275.017 58.514-362.789 52.663 187.246 58.514-146.286 23.406 52.663h286.72c11.703 0 23.406-11.703 23.406-23.406s-11.703-23.406-23.406-23.406z" />
<glyph unicode="&#xe911;" glyph-name="speaker-high" horiz-adv-x="1202" d="M509.527 885.797c-14.841 0-24.734-4.947-34.628-14.841l-237.449-237.449h-192.928c-14.841 0-24.734-4.947-34.628-14.841-4.947-9.894-9.894-19.787-9.894-34.628v-277.024c0-14.841 4.947-24.734 14.841-34.628s19.787-14.841 34.628-14.841h187.981l237.449-237.449c9.894-9.894 19.787-14.841 34.628-14.841s24.734 4.947 34.628 14.841c9.894 9.894 14.841 19.787 14.841 34.628v786.551c0 14.841-4.947 24.734-14.841 34.628-9.894 4.947-24.734 9.894-34.628 9.894zM801.391 346.589c19.787 29.681 29.681 64.309 29.681 103.884s-9.894 69.256-29.681 103.884c-19.787 29.681-49.469 54.415-79.15 69.256-4.947 0-9.894 4.947-19.787 4.947-14.841 0-24.734-4.947-34.628-14.841s-14.841-19.787-14.841-34.628c0-9.894 4.947-19.787 9.894-24.734s14.841-14.841 19.787-19.787c9.894-9.894 19.787-14.841 29.681-19.787s14.841-14.841 19.787-24.734c4.947-14.841 9.894-24.734 9.894-44.522 0-14.841-4.947-29.681-9.894-39.575s-14.841-19.787-19.787-24.734c-9.894-4.947-14.841-9.894-24.734-14.841s-14.841-9.894-19.787-19.787c-4.947-4.947-9.894-14.841-9.894-24.734 0-14.841 4.947-24.734 14.841-34.628s19.787-14.841 34.628-14.841c4.947 0 14.841 0 19.787 4.947 24.734 14.841 54.415 34.628 74.203 69.256zM954.744 242.705c39.575 64.309 59.362 128.618 59.362 202.821s-19.787 143.459-59.362 202.821c-39.575 64.309-93.99 108.831-163.246 138.512-4.947 0-14.841 4.947-19.787 4.947-14.841 0-24.734-4.947-34.628-14.841s-14.841-19.787-14.841-34.628c0-19.787 9.894-34.628 29.681-44.522 24.734-14.841 44.522-24.734 54.415-29.681 34.628-24.734 64.309-59.362 84.097-98.937s29.681-79.15 29.681-123.671c0-44.522-9.894-84.097-29.681-123.671s-49.469-74.203-84.097-98.937c-9.894-4.947-29.681-19.787-54.415-29.681-19.787-9.894-29.681-24.734-29.681-44.522 0-14.841 4.947-24.734 14.841-34.628s19.787-14.841 34.628-14.841c4.947 0 9.894 0 19.787 4.947 69.256 29.681 123.671 79.15 163.246 138.512zM1108.097 752.232c-59.362 93.99-143.459 158.3-242.396 202.821-4.947 4.947-9.894 4.947-19.787 4.947-14.841 0-24.734-4.947-34.628-14.841s-14.841-19.787-14.841-34.628c0-14.841 9.894-29.681 29.681-44.522 4.947 0 9.894-4.947 14.841-9.894 9.894-4.947 14.841-4.947 14.841-9.894 19.787-9.894 39.575-24.734 59.362-34.628 59.362-44.522 103.884-98.937 138.512-163.246s49.469-133.565 49.469-207.768c0-74.203-14.841-143.459-49.469-207.768s-79.15-118.725-138.512-163.246c-19.787-14.841-34.628-24.734-59.362-34.628-4.947 0-9.894-4.947-14.841-9.894-9.894-4.947-14.841-4.947-14.841-9.894-19.787-9.894-29.681-24.734-29.681-44.522 0-14.841 4.947-24.734 14.841-34.628s19.787-14.841 34.628-14.841c4.947 0 14.841 0 19.787 4.947 103.884 44.522 183.034 113.778 242.396 202.821 59.362 93.99 93.99 192.928 93.99 306.705 0 123.671-29.681 222.609-93.99 316.599z" />
<glyph unicode="&#xe912;" glyph-name="send" horiz-adv-x="1148" d="M1002.135 555.502c-153.053 65.594-929.253 400.854-929.253 400.854s-72.883 20.043-72.883-36.441c0-56.484 0-327.972 0-327.972s1.822-30.975 109.324-54.662c107.502-23.687 400.854-91.103 400.854-91.103s-293.352-67.416-400.854-91.103c-107.502-21.865-109.324-54.662-109.324-54.662s0-267.843 0-324.327c0-56.484 72.883-36.441 72.883-36.441s776.199 333.438 929.253 399.032c153.053 63.772 145.765 109.324 145.765 109.324s7.288 43.73-145.765 107.502z" />
<glyph unicode="&#xe913;" glyph-name="arrow-left" horiz-adv-x="1046" d="M1045.634 512.901h-764.394l338.93 338.93v43.268l-64.901 64.901h-43.268l-512-512 512-512h43.268l64.901 64.901v43.268l-338.93 338.93h771.606v129.803z" />
<glyph unicode="&#xe914;" glyph-name="dots" horiz-adv-x="277" d="M141.061 589.061c-78.367 0-141.061-62.694-141.061-141.061s62.694-141.061 141.061-141.061c78.367 0 141.061 62.694 141.061 141.061-5.224 78.367-67.918 141.061-141.061 141.061zM141.061 218.122c-78.367 0-141.061-62.694-141.061-141.061s62.694-141.061 141.061-141.061c78.367 0 141.061 62.694 141.061 141.061-5.224 78.367-67.918 141.061-141.061 141.061zM141.061 683.102c78.367 0 141.061 62.694 141.061 141.061-5.224 73.143-67.918 135.837-141.061 135.837-78.367 0-141.061-62.694-141.061-141.061 0-73.143 62.694-135.837 141.061-135.837z" />
<glyph unicode="&#xe915;" glyph-name="people" d="M329.788 478.118c82.824 0 150.588 67.765 150.588 150.588s-67.765 150.588-150.588 150.588c-82.824 0-150.588-67.765-150.588-150.588s67.765-150.588 150.588-150.588zM691.2 478.118c82.824 0 150.588 67.765 150.588 150.588s-67.765 150.588-150.588 150.588c-82.824 0-150.588-67.765-150.588-150.588s67.765-150.588 150.588-150.588zM331.294 411.859c-298.165 0-329.788-146.071-329.788-146.071h-1.506v-150.588h662.588v150.588h-1.506c0 0-31.624 146.071-329.788 146.071zM873.412 371.2c-118.965 51.2-212.329 40.659-212.329 40.659l16.565-40.659c1.506 0 16.565-21.082 31.624-45.176 18.071-28.612 13.553-60.235 13.553-60.235v-150.588h301.176v150.588c0 0-31.624 55.718-150.588 105.412z" />
<glyph unicode="&#xe916;" glyph-name="phone" horiz-adv-x="1022" d="M297.35 214.766c-275.049 256.465-297.35 520.363-297.35 520.363v167.26l40.886 57.612h18.584l219.296-1.858 37.169-37.169c0 0 14.868-44.603 20.443-92.922 7.434-48.319 37.169-130.091 37.169-130.091v-18.584l-18.584-37.169c0 0-124.515-94.78-111.506-130.091 26.018-72.479 128.232-185.844 128.232-185.844s167.26-141.241 204.428-148.675c37.169-7.434 130.091 111.506 130.091 111.506l37.169 18.584h18.584c0 0 81.771-29.735 130.091-37.169s74.338-18.584 74.338-18.584l55.753-37.169v-241.597l-55.753-37.169h-167.26c0 0-265.757 20.443-520.363 297.35z" />
<glyph unicode="&#xe917;" glyph-name="preferences" d="M897.188 320.822c70.642 0 127.909 57.267 127.909 127.909s-57.267 127.909-127.909 127.909v0h-5.482c-6.953 20.401-14.24 37.425-22.616 53.799l1.055-2.27 4.020 2.924c19.356 22.195 31.157 51.415 31.157 83.392 0 70.238-56.939 127.178-127.178 127.178-32.159 0-61.53-11.936-83.925-31.62l0.142 0.123-4.020-4.020c-14.084 7.204-31.117 14.374-48.698 20.359l-2.831 0.837v5.482c0 70.642-57.267 127.909-127.909 127.909s-127.909-57.267-127.909-127.909v0-5.482c-20.411-6.822-37.445-13.992-53.835-22.249l2.306 1.053-2.558 4.020c-21.659 17.648-49.596 28.338-80.031 28.338-70.238 0-127.178-56.939-127.178-127.178 0-30.526 10.755-58.54 28.682-80.46l-0.18 0.227 3.655-4.020c-7.204-14.084-14.374-31.117-20.359-48.698l-0.837-2.831h-5.482c-70.642 0-127.909-57.267-127.909-127.909s57.267-127.909 127.909-127.909v0h5.482c6.933-20.369 14.097-37.275 22.294-53.571l-1.097 2.408-3.655-4.020c-17.243-21.516-27.672-49.141-27.672-79.201 0-70.238 56.939-127.178 127.178-127.178 30.060 0 57.685 10.429 79.452 27.867l-0.251-0.195 4.020 4.020c14.32-7.473 31.364-14.651 49.022-20.48l2.507-0.717v-5.847c0-70.642 57.267-127.909 127.909-127.909s127.909 57.267 127.909 127.909v0 5.847c20.255 6.653 37.294 13.828 53.636 22.173l-2.107-0.977 4.020-4.020c21.78-18.006 49.992-28.929 80.755-28.929 70.238 0 127.178 56.939 127.178 127.178 0 31.128-11.183 59.644-29.751 81.749l0.16-0.195-4.020 4.020c7.211 13.905 14.492 30.801 20.656 48.226l0.906 2.938zM511.635 274.044c-95.758 0.416-173.224 78.138-173.224 173.954 0 96.073 77.883 173.956 173.956 173.956 95.944 0 173.747-77.674 173.955-173.569v-0.020c0-0.109 0-0.238 0-0.367 0-96.073-77.883-173.956-173.956-173.956-0.257 0-0.514 0.001-0.771 0.002h0.039z" />
<glyph unicode="&#xe918;" glyph-name="search1" d="M740.401 312.862l-97.071 24.743c135.138 144.654 131.331 373.056-9.517 513.903-144.654 144.654-380.669 144.654-525.323 0s-144.654-380.669 0-525.323c140.848-140.848 369.249-144.654 513.903-9.517l24.743-97.071 281.695-281.695h26.647l66.617 66.617v26.647l-281.695 281.695zM196.045 400.416c-100.877 100.877-100.877 262.662 0 363.539s262.662 100.877 363.539 0c100.877-100.877 100.877-262.662 0-363.539s-262.662-100.877-363.539 0z" />
<glyph unicode="&#xe919;" glyph-name="bubble" d="M921.6 960h-819.2c-56.32 0-102.4-46.080-102.4-102.4v-921.6l204.8 204.8h716.8c56.32 0 102.4 46.080 102.4 102.4v614.4c0 56.32-46.080 102.4-102.4 102.4zM819.2 345.6h-614.4v102.4h614.4v-102.4zM819.2 499.2h-614.4v102.4h614.4v-102.4zM819.2 652.8h-614.4v102.4h614.4v-102.4z" />
<glyph unicode="&#xe91a;" glyph-name="camera" d="M512 607.475c-88.131 0-159.475-71.344-159.475-159.475s71.344-159.475 159.475-159.475c88.131 0 159.475 71.344 159.475 159.475s-71.344 159.475-159.475 159.475zM512 347.279c-55.397 0-100.721 45.325-100.721 100.721s45.325 100.721 100.721 100.721c55.397 0 100.721-45.325 100.721-100.721s-45.325-100.721-100.721-100.721zM512 960c-282.859 0-512-229.141-512-512s229.141-512 512-512c282.859 0 512 229.141 512 512s-229.141 512-512 512zM788.984 322.098c0-55.397-45.325-100.721-100.721-100.721h-352.525c-55.397 0-100.721 45.325-100.721 100.721v235.016c0 55.397 45.325 100.721 100.721 100.721h33.574l41.967 50.361 25.18 16.787h151.082l25.18-16.787 41.967-50.361h33.574c55.397 0 100.721-45.325 100.721-100.721v-235.016z" />
<glyph unicode="&#xe91b;" glyph-name="game" d="M1024 315.919c0 37.101-2.968 80.139-8.904 139.501-5.936 57.878-34.133 219.641-57.878 265.646-51.942 99.432-145.438 112.788-184.023 112.788-40.070 0-59.362-11.872-139.501-31.165-78.655-20.777-121.693-17.809-121.693-17.809v0c0 0-41.554-2.968-121.693 17.809-78.655 19.293-99.432 31.165-138.017 31.165-40.070 0-133.565-13.357-185.507-112.788-22.261-46.006-51.942-207.768-57.878-265.646-5.936-59.362-8.904-102.4-8.904-139.501s1.484-133.565 17.809-166.214c16.325-32.649 38.586-62.33 90.528-81.623 54.91-19.293 124.661 20.777 139.501 31.165s100.916 68.267 126.145 81.623c23.745 11.872 57.878 32.649 99.432 35.617 40.070 4.452 40.070 4.452 80.139 0s74.203-23.745 99.432-35.617c23.745-11.872 111.304-71.235 126.145-81.623s83.107-51.942 139.501-31.165c50.458 17.809 74.203 48.974 90.528 81.623 13.357 32.649 14.841 129.113 14.841 166.214zM399.212 495.49h-90.528v-90.528h-40.070v90.528h-90.528v40.070h90.528v86.075h40.070v-86.075h90.528v-40.070zM731.641 648.348c25.229 0 44.522-20.777 44.522-44.522 0-25.229-20.777-44.522-44.522-44.522-25.229 0-44.522 20.777-44.522 44.522 0 25.229 20.777 44.522 44.522 44.522zM647.049 468.777c-25.229 0-44.522 20.777-44.522 44.522 0 25.229 20.777 44.522 44.522 44.522 25.229 0 44.522-20.777 44.522-44.522s-19.293-44.522-44.522-44.522zM731.641 378.249c-25.229 0-44.522 20.777-44.522 44.522 0 25.229 20.777 44.522 44.522 44.522 25.229 0 44.522-20.777 44.522-44.522 1.484-23.745-19.293-44.522-44.522-44.522zM822.168 468.777c-25.229 0-44.522 20.777-44.522 44.522 0 25.229 20.777 44.522 44.522 44.522 25.229 0 44.522-20.777 44.522-44.522s-19.293-44.522-44.522-44.522z" />
<glyph unicode="&#xe91c;" glyph-name="home" d="M512 885.677l-512-478.968h165.161c0 0 0-305.548 0-379.871 0-9.91 16.516-16.516 16.516-16.516h231.226v297.29h198.194v-297.29h231.226c0 0 16.516 4.955 16.516 14.865 0 72.671 0 381.523 0 381.523h165.161l-512 478.968z" />
<glyph unicode="&#xe91d;" glyph-name="wink" d="M512 960c-280.869 0-512-228.206-512-512 0-280.869 231.131-512 512-512s512 231.131 512 512c0 283.794-231.131 512-512 512zM512-2.56c-248.686 0-450.56 201.874-450.56 450.56s201.874 450.56 450.56 450.56c248.686 0 450.56-201.874 450.56-450.56s-201.874-450.56-450.56-450.56zM687.543 585.509c-46.811 0-81.92-38.034-81.92-81.92h166.766c0 46.811-38.034 81.92-84.846 81.92zM424.229 556.251c0 46.811-38.034 81.92-81.92 81.92-46.811 0-81.92-38.034-81.92-81.92 0-46.811 38.034-81.92 81.92-81.92 43.886-2.926 81.92 35.109 81.92 81.92zM283.794 211.017c40.96-20.48 418.377-272.091 512 184.32-143.36-228.206-283.794-242.834-512-184.32z" />
<glyph unicode="&#xe91e;" glyph-name="angle-right" horiz-adv-x="501" d="M483.752 497.434l-377.821 441.379c-24.717 28.248-63.559 28.248-88.276 0s-24.717-74.152 0-102.4l335.448-388.414-335.448-388.414c-24.717-28.248-24.717-74.152 0-102.4s63.559-28.248 88.276 0l377.821 437.848c10.593 14.124 17.655 31.779 17.655 49.434 0 21.186-3.531 38.841-17.655 52.966z" />
<glyph unicode="&#xe91f;" glyph-name="paperclip, attachment" d="M414.432 64.736c-0.8-0.8-1.632-1.632-2.4-2.432-80.256-76.768-207.904-78.272-285.312-3.072-82.112 77.28-83.744 189.216 1.408 275.328 0.672 0.672 1.216 1.376 1.888 2.048 0.8 0.736 1.568 1.536 2.336 2.272l532.96 518.016c48.832 46.464 126.272 47.296 173.248 1.632 28.256-40.256 46.048-121.248-1.568-168.352l-4.384-4.288-50.016-48.544-45.888-44.64-432.032-419.36-1.216 1.504-1.12-1.248-2.208-2.432c-0.192-0.128-0.416-0.256-0.576-0.448-17.856-16.128-45.408-16.256-62.272 0.128-16.704 16.256-16.672 40.064-0.032 57.792 0.544 0.512 0.864 1.12 1.408 1.632l403.168 391.776-48.544 47.072-354.72-344.736-43.072-47.008v-0.064c-0.128-0.128-0.256-0.192-0.416-0.384-0.384-0.384-0.704-0.736-1.088-1.152-44.256-44.192-50.368-108.416-6.72-150.88 43.68-42.4 115.264-39.040 160.704 4l0.064-0.064 0.896 0.928c0.096 0.064 0.192 0.128 0.256 0.192 0.096 0.064 0.16 0.192 0.224 0.256l481.664 460.032 49.952 48.608 4.448 4.256-0.064 0.064c75.392 74.336 39.584 213.568 3.136 263.936-74.176 72.064-196.288 70.304-272.736-4.032-1.12-1.056-2.048-2.24-3.136-3.36l-0.128 0.096-528.64-513.856c-0.416-0.448-0.864-0.736-1.312-1.184-0.736-0.672-1.408-1.568-2.144-2.304l-0.768-0.736 0.032-0.064c-104.864-105.024-106.592-270.176-2.944-371.008 104.672-101.728 277.056-99.168 384.96 5.696 0.448 0.448 0.768 0.864 1.216 1.312l0.128-0.128 560.928 545.12-48.512 47.136-561.056-545.056z" />
<glyph unicode="&#xe920;" glyph-name="laugh" horiz-adv-x="1040" d="M662.588 472.642c38.332 0 65.711 38.332 65.711 87.615s-27.38 87.615-65.711 87.615c-38.332 0-65.711-38.332-65.711-87.615s32.856-87.615 65.711-87.615zM388.791 472.642c38.332 0 65.711 38.332 65.711 87.615s-27.38 93.091-65.711 93.091c-38.332 0-65.711-38.332-65.711-87.615s32.856-93.091 65.711-93.091zM520.214 960c-290.225 0-520.214-229.989-520.214-509.262 0-284.749 229.989-509.262 520.214-509.262 284.749 0 520.214 229.989 520.214 509.262s-235.465 509.262-520.214 509.262zM525.69 1.711c-246.417 0-443.551 197.134-443.551 443.551s197.134 443.551 443.551 443.551c246.417 0 443.551-197.134 443.551-443.551 5.476-240.941-197.134-443.551-443.551-443.551zM520.214 374.075l-246.417 16.428-32.856-16.428v-32.856c0 0 43.807-191.658 273.797-197.134 235.465 0 290.225 197.134 290.225 197.134v32.856l-32.856 16.428-251.893-16.428z" />
<glyph unicode="&#xe921;" glyph-name="lens" horiz-adv-x="1078" d="M773.953 960h-476.279c-160.744 0-297.674-136.93-297.674-297.674v-422.698c0-166.698 136.93-297.674 297.674-297.674h476.279c166.698 0 297.674 136.93 297.674 297.674v422.698c5.953 160.744-130.977 297.674-297.674 297.674zM529.86 150.326c-166.698 0-297.674 130.977-297.674 291.721s136.93 291.721 297.674 291.721c166.698 0 297.674-130.977 297.674-291.721s-130.977-291.721-297.674-291.721zM529.86 644.465c-119.070 0-214.326-89.302-214.326-202.419s95.256-202.419 214.326-202.419c119.070 0 214.326 89.302 214.326 202.419s-95.256 202.419-214.326 202.419z" />
<glyph unicode="&#xe922;" glyph-name="mic" horiz-adv-x="752" d="M373.392 337.68c79.204 0 147.094 67.89 147.094 147.094v333.79c0 79.204-67.89 141.436-147.094 141.436s-141.436-62.232-141.436-141.436v-333.79c0-79.204 62.232-147.094 141.436-147.094zM735.47 490.431c-5.657 5.657-5.657 16.972-50.917 16.972-5.657 0-39.602 11.315-45.26-33.945-56.575-282.873-441.282-333.79-520.486 0-11.315 33.945-50.917 33.945-50.917 33.945-16.972 0-45.26-11.315-50.917-16.972-11.315-11.315-16.972-22.63-16.972-33.945 16.972-164.066 141.436-288.53 316.818-311.16v-186.696l16.972-16.972h84.862l16.972 16.972v186.696c181.039 22.63 299.845 141.436 316.818 311.16 0 11.315-5.657 28.287-16.972 33.945z" />
<glyph unicode="&#xe923;" glyph-name="pin" horiz-adv-x="745" d="M744.727 587.636c0 206.13-166.234 372.364-372.364 372.364s-372.364-166.234-372.364-372.364c0-73.143 21.278-142.296 58.514-199.481h-5.319l319.169-452.156 319.169 452.156h-5.319c37.236 57.184 58.514 126.338 58.514 199.481zM372.364 720.623c73.143 0 132.987-59.844 132.987-132.987s-59.844-132.987-132.987-132.987-132.987 59.844-132.987 132.987c0 73.143 59.844 132.987 132.987 132.987z" />
<glyph unicode="&#xe924;" glyph-name="sync-circle" d="M512 960c-282.902 0-512-229.098-512-512s229.098-512 512-512 512 229.098 512 512c0 282.902-229.098 512-512 512zM487.702 859.336v26.034c0 8.678 5.207 15.62 12.149 20.827 3.471 0 6.942 1.736 10.414 1.736 5.207 0 8.678-1.736 12.149-3.471l137.112-86.78c6.942-3.471 10.414-12.149 10.414-19.092 0-8.678-3.471-15.62-10.414-19.092l-137.112-86.78c-3.471-1.736-8.678-3.471-12.149-3.471s-6.942 1.736-10.414 3.471-12.149 12.149-12.149 20.827v1.736c-206.536-22.563-269.017-211.742-251.661-305.464-76.366 36.447-78.102 39.919-97.193 39.919-20.827 0-52.068-29.505-52.068-29.505-13.885 251.661 199.593 439.105 400.922 439.105zM157.939 210.224l-8.678-5.207c-3.471-1.736-8.678-3.471-12.149-3.471s-8.678 1.736-12.149 3.471c-6.942 3.471-12.149 12.149-12.149 20.827l3.471 161.41c0 8.678 3.471 15.62 10.414 19.092 3.471 1.736 8.678 3.471 12.149 3.471s6.942 0 10.414-1.736l147.525-71.159c6.942-3.471 12.149-10.414 13.885-19.092 0-8.678-3.471-17.356-10.414-20.827l-15.62-10.414c32.976-48.597 208.271-222.156 421.749-34.712l27.769-100.664c5.207-19.092 19.092-32.976 36.447-39.919-170.088-140.583-479.024-119.756-612.664 98.929zM805.315 151.214c-3.471-3.471-10.414-5.207-15.62-5.207-1.736 0-5.207 0-6.942 1.736-6.942 1.736-13.885 8.678-15.62 15.62l-45.125 156.203c-1.736 8.678 0 17.356 6.942 22.563 5.207 3.471 10.414 6.942 15.62 6.942 1.736 0 5.207 0 6.942-1.736l10.414-3.471c69.424 208.271-91.986 331.498-161.41 352.325l79.837 50.332c17.356 10.414 27.769 29.505 27.769 50.332 0 3.471 0 8.678-1.736 12.149 230.834-131.905 246.454-369.681 197.858-506.793l17.356-5.207c8.678-1.736 13.885-8.678 15.62-17.356s-1.736-17.356-6.942-22.563l-124.963-105.871z" />
<glyph unicode="&#xe925;" glyph-name="user-circle" d="M512 960c-281.166 0-512-230.834-512-512s230.834-512 512-512c281.166 0 512 230.834 512 512s-230.834 512-512 512zM512 805.532c86.78 0 152.732-65.953 152.732-152.732s-65.953-152.732-152.732-152.732c-86.78 0-152.732 65.953-152.732 152.732s65.953 152.732 152.732 152.732zM512 80.054c-128.434 0-241.247 65.953-307.2 163.146 0 102.4 204.8 157.939 307.2 157.939s307.2-55.539 307.2-157.939c-65.953-97.193-178.766-163.146-307.2-163.146z" />
<glyph unicode="&#xe926;" glyph-name="email" horiz-adv-x="1313" d="M126.887 643.896c15.583-11.13 66.783-46.748 149.148-104.626 84.591-57.878 146.922-102.4 191.443-133.565 4.452-4.452 15.583-11.13 31.165-22.261s28.939-20.035 40.070-26.713c11.13-6.678 22.261-15.583 37.843-24.487s28.939-15.583 42.296-20.035c13.357-4.452 24.487-6.678 35.617-6.678h2.226c11.13 0 24.487 2.226 35.617 6.678 13.357 4.452 26.713 11.13 42.296 20.035s26.713 15.583 37.843 24.487c11.13 6.678 24.487 15.583 40.070 26.713s26.713 17.809 31.165 22.261c44.522 31.165 160.278 109.078 342.817 235.965 35.617 24.487 64.557 55.652 89.043 89.043 26.713 37.843 37.843 75.687 37.843 113.53 0 31.165-11.13 60.104-35.617 82.365-22.261 22.261-51.2 33.391-82.365 33.391h-1077.426c-37.843 0-66.783-13.357-86.817-37.843s-31.165-55.652-31.165-93.496c0-31.165 13.357-64.557 40.070-100.174s55.652-64.557 86.817-84.591zM1239.93 565.983c-160.278-106.852-282.713-191.443-365.078-251.548-28.939-20.035-51.2-35.617-66.783-46.748-17.809-11.13-40.070-22.261-69.009-35.617-28.939-11.13-55.652-17.809-80.139-17.809h-2.226c-24.487 0-51.2 6.678-80.139 17.809s-51.2 24.487-69.009 35.617c-17.809 11.13-40.070 26.713-66.783 46.748-66.783 48.974-186.991 131.339-365.078 251.548-28.939 17.809-53.426 40.070-75.687 64.557v-576.557c0-31.165 11.13-60.104 33.391-82.365s51.2-33.391 82.365-33.391h1079.652c31.165 0 60.104 11.13 82.365 33.391s33.391 51.2 33.391 82.365v576.557c-17.809-24.487-42.296-44.522-71.235-64.557z" />
<glyph unicode="&#xe927;" glyph-name="light-circle" d="M512 960c-282.902 0-512-229.098-512-512s229.098-512 512-512 512 229.098 512 512c0 282.902-229.098 512-512 512zM690.766 680.569l43.39 43.39c15.62 15.62 39.919 15.62 53.803 0 15.62-15.62 15.62-39.919 0-53.803l-43.39-43.39c-15.62-15.62-39.919-15.62-53.803 0s-13.885 39.919 0 53.803zM473.817 800.325c0 20.827 17.356 38.183 38.183 38.183s38.183-17.356 38.183-38.183v-60.746c0-20.827-17.356-38.183-38.183-38.183s-38.183 17.356-38.183 38.183v60.746zM236.041 723.959c15.62 15.62 39.919 15.62 53.803 0l43.39-43.39c15.62-15.62 15.62-39.919 0-53.803-15.62-15.62-39.919-15.62-53.803 0l-43.39 43.39c-15.62 15.62-15.62 39.919 0 53.803zM159.675 409.817c-20.827 0-38.183 17.356-38.183 38.183s17.356 38.183 38.183 38.183h60.746c20.827 0 38.183-17.356 38.183-38.183s-17.356-38.183-38.183-38.183h-60.746zM333.234 215.431l-43.39-43.39c-15.62-15.62-39.919-15.62-53.803 0-15.62 15.62-15.62 39.919 0 53.803l43.39 43.39c15.62 15.62 39.919 15.62 53.803 0s13.885-39.919 0-53.803zM550.183 95.675c0-20.827-17.356-38.183-38.183-38.183s-38.183 17.356-38.183 38.183v60.746c0 20.827 17.356 38.183 38.183 38.183s38.183-17.356 38.183-38.183v-60.746zM512 251.878c-107.607 0-196.122 88.515-196.122 196.122s88.515 196.122 196.122 196.122c107.607 0 196.122-88.515 196.122-196.122s-88.515-196.122-196.122-196.122zM787.959 172.041c-15.62-15.62-39.919-15.62-53.803 0l-43.39 43.39c-15.62 15.62-15.62 39.919 0 53.803 15.62 15.62 39.919 15.62 53.803 0l43.39-43.39c15.62-15.62 15.62-39.919 0-53.803zM864.325 409.817h-60.746c-20.827 0-38.183 17.356-38.183 38.183s17.356 38.183 38.183 38.183h60.746c20.827 0 38.183-17.356 38.183-38.183s-17.356-38.183-38.183-38.183z" />
<glyph unicode="&#xe928;" glyph-name="lock-circle" d="M418.278 470.563c-64.217 0-116.285-52.068-116.285-116.285s52.068-116.285 116.285-116.285 116.285 52.068 116.285 116.285c0 64.217-52.068 116.285-116.285 116.285zM512 960c-284.637 0-512-227.363-512-512s227.363-512 512-512c284.637 0 512 227.363 512 512s-227.363 512-512 512zM807.051 678.834l-204.8-204.8c-5.207-5.207-5.207-8.678-1.736-13.885 19.092-29.505 27.769-65.953 27.769-104.136 0-116.285-93.722-210.007-210.007-210.007s-210.007 93.722-210.007 210.007c0 116.285 93.722 210.007 210.007 210.007 36.447 0 72.895-8.678 104.136-27.769 5.207-1.736 8.678-1.736 13.885 1.736l19.092 19.092c5.207 5.207 5.207 12.149 0 15.62l-12.149 12.149c-8.678 8.678-8.678 22.563 0 32.976l32.976 32.976c8.678 8.678 22.563 8.678 32.976 0l12.149-12.149c5.207-5.207 12.149-5.207 15.62 0l12.149 12.149c5.207 5.207 5.207 12.149 0 15.62l-12.149 12.149c-8.678 8.678-8.678 22.563 0 32.976l32.976 32.976c5.207 5.207 12.149 6.942 15.62 6.942 5.207 0 12.149-1.736 15.62-6.942l12.149-12.149c5.207-5.207 12.149-5.207 15.62 0l12.149 12.149c5.207 5.207 12.149 6.942 15.62 6.942 5.207 0 12.149-1.736 15.62-6.942l32.976-32.976c5.207-5.207 6.942-12.149 6.942-15.62 1.736-8.678 0-15.62-5.207-19.092z" />
<glyph unicode="&#xe929;" glyph-name="moon-circle" d="M512 960c-282.902 0-512-229.098-512-512s229.098-512 512-512 512 229.098 512 512c0 282.902-229.098 512-512 512zM801.844 376.841l-90.251 39.919-65.953-72.895 10.414 97.193-90.251 41.654 97.193 19.092 10.414 97.193 48.597-86.78 97.193 19.092-65.953-72.895 48.597-81.573zM656.054 805.532l55.539-38.183 53.803 41.654-19.092-64.217 55.539-38.183-67.688-1.736-19.092-64.217-22.563 64.217-67.688-3.471 53.803 41.654-22.563 62.481zM505.058 623.295l15.62 50.332 15.62-50.332h52.068l-41.654-31.241 15.62-50.332-41.654 31.241-41.654-29.505 15.62 50.332-41.654 31.241h52.068zM798.373 187.661c-150.997-150.997-395.715-150.997-546.712 0s-150.997 395.715 0 546.712c39.919 39.919 85.044 67.688 133.641 86.78-53.803-138.847-24.298-300.258 86.78-413.071 111.078-111.078 274.224-140.583 413.071-86.78-19.092-48.597-48.597-93.722-86.78-133.641z" />
<glyph unicode="&#xe92a;" glyph-name="web" d="M652.8 837.689c-39.822 65.422-79.644 103.822-109.511 122.311v-203.378h150.756c-12.8 28.444-25.6 56.889-41.244 81.067zM814.933 479.289h209.067c-4.267 75.378-24.178 149.333-58.311 214.756h-184.889c19.911-68.267 31.289-140.8 34.133-214.756zM716.8 694.044h-173.511v-214.756h209.067c-2.844 75.378-14.222 147.911-35.556 214.756zM243.2 694.044h-184.889c-34.133-65.422-54.044-137.956-58.311-214.756h209.067c2.844 73.956 14.222 146.489 34.133 214.756zM209.067 416.711h-209.067c4.267-75.378 24.178-149.333 58.311-214.756h183.467c-18.489 68.267-29.867 140.8-32.711 214.756zM263.111 139.378h-164.978c15.644-21.333 32.711-41.244 51.2-61.156 64-65.422 143.644-112.356 230.4-135.111-21.333 22.756-41.244 51.2-59.733 82.489-22.756 34.133-41.244 72.533-56.889 113.778zM760.889 756.622h166.4c-15.644 21.333-32.711 41.244-51.2 61.156-65.422 65.422-145.067 112.356-230.4 135.111 21.333-22.756 41.244-51.2 59.733-82.489 21.333-34.133 39.822-72.533 55.467-113.778zM371.2 837.689c-15.644-25.6-28.444-52.622-41.244-81.067h150.756v203.378c-29.867-18.489-69.689-56.889-109.511-122.311zM318.578 871.822c18.489 31.289 39.822 58.311 59.733 82.489-85.333-24.178-164.978-71.111-228.978-136.533-18.489-18.489-35.556-39.822-51.2-61.156h166.4c14.222 41.244 32.711 79.644 54.044 115.2zM752.356 416.711h-209.067v-214.756h173.511c21.333 66.844 32.711 139.378 35.556 214.756zM780.8 201.956h183.467c34.133 65.422 54.044 137.956 58.311 214.756h-207.644c-2.844-73.956-14.222-146.489-34.133-214.756zM760.889 139.378c-15.644-41.244-34.133-79.644-55.467-113.778-18.489-31.289-39.822-58.311-59.733-82.489 86.756 22.756 164.978 69.689 230.4 135.111 18.489 18.489 35.556 39.822 51.2 61.156h-166.4zM329.956 139.378v0c0 0 0 0 0 0v0zM371.2 58.311c38.4-64 79.644-103.822 109.511-122.311v203.378h-150.756c12.8-28.444 25.6-56.889 41.244-81.067zM694.044 139.378h-150.756v-203.378c29.867 18.489 71.111 56.889 109.511 122.311 15.644 24.178 28.444 52.622 41.244 81.067zM307.2 201.956h173.511v214.756h-209.067c2.844-75.378 14.222-147.911 35.556-214.756zM271.644 479.289h209.067v214.756h-173.511c-21.333-66.844-32.711-139.378-35.556-214.756z" />
<glyph unicode="&#xe92b;" glyph-name="preview-circle" d="M642.169 588.583c-79.837 0-145.79-65.953-145.79-145.79s65.953-145.79 145.79-145.79c79.837 0 145.79 65.953 145.79 145.79s-65.953 145.79-145.79 145.79zM512 960c-282.902 0-512-229.098-512-512s229.098-512 512-512 512 229.098 512 512c0 282.902-229.098 512-512 512zM727.214 185.925c0-52.068-41.654-93.722-93.722-93.722h-383.566c-52.068 0-93.722 41.654-93.722 93.722v600.515h571.010v-119.756c-26.034 10.414-55.539 15.62-86.78 15.62-50.332 0-97.193-15.62-135.376-41.654v0h-216.949v-46.861h168.353c-15.62-19.092-27.769-41.654-38.183-65.953h-130.169v-46.861h118.020c-1.736-12.149-3.471-24.298-3.471-38.183 0-8.678 0-19.092 1.736-27.769h-116.285v-46.861h126.698c31.241-95.458 121.492-164.881 227.363-164.881 31.241 0 59.010 5.207 86.78 15.62v-32.976zM873.003 172.041l-118.020 118.020c-31.241-24.298-71.159-38.183-114.549-38.183-105.871 0-192.651 86.78-192.651 192.651s86.78 192.651 192.651 192.651c105.871 0 192.651-86.78 192.651-192.651 0-39.919-12.149-76.366-32.976-105.871l118.020-118.020-45.125-48.597z" />
<glyph unicode="&#xe92c;" glyph-name="user-s" d="M510.578 494.933c128 0 233.244 103.822 233.244 231.822s-105.244 233.244-233.244 233.244c-128 0-233.244-103.822-233.244-231.822s105.244-233.244 233.244-233.244zM1022.578 167.822c0 0-49.778 224.711-510.578 224.711-460.8 1.422-510.578-224.711-510.578-224.711h-1.422v-231.822h1024v231.822h-1.422z" />
<glyph unicode="&#xe92d;" glyph-name="people-circle" d="M512 960c-282.902 0-512-229.098-512-512s229.098-512 512-512c282.902 0 512 229.098 512 512s-229.098 512-512 512zM138.847 255.349c0 159.675 140.583 159.675 171.824 201.329l3.471 19.092c-43.39 22.563-74.631 76.366-74.631 138.847 0 83.308 53.803 149.261 119.756 149.261 52.068 0 95.458-41.654 112.814-98.929-65.953-20.827-114.549-93.722-114.549-178.766 0-59.010 22.563-112.814 60.746-147.525-6.942-3.471-12.149-6.942-19.092-8.678-31.241-13.885-72.895-34.712-104.136-74.631h-156.203zM513.736 126.915v0h-222.156c0 159.675 140.583 159.675 171.824 201.329l3.471 19.092c-43.39 22.563-74.631 76.366-74.631 138.847 0 83.308 53.803 149.261 119.756 149.261s119.756-67.688 119.756-149.261c0-62.481-29.505-114.549-72.895-137.112l3.471-20.827c34.712-39.919 170.088-41.654 170.088-199.593h-218.685v-1.736zM728.949 255.349v0 0c-31.241 39.919-72.895 60.746-104.136 74.631-5.207 3.471-12.149 5.207-19.092 8.678 38.183 34.712 60.746 88.515 60.746 147.525 0 85.044-48.597 157.939-114.549 178.766 15.62 57.275 60.746 98.929 112.814 98.929 65.953 0 119.756-67.688 119.756-149.261 0-62.481-29.505-114.549-72.895-137.112l3.471-20.827c34.712-39.919 170.088-41.654 170.088-199.593h-156.203v-1.736z" />
<glyph unicode="&#xe92e;" glyph-name="link-circle" d="M512 960c-282.902 0-512-229.098-512-512s229.098-512 512-512 512 229.098 512 512c0 282.902-229.098 512-512 512zM768.868 539.986l-124.963-124.963c-13.885-13.885-31.241-20.827-50.332-20.827s-36.447 6.942-50.332 20.827l-5.207 3.471-13.885-13.885 5.207-5.207c27.769-27.769 27.769-72.895 0-102.4l-124.963-124.963c-13.885-13.885-31.241-20.827-50.332-20.827s-36.447 6.942-50.332 20.827l-46.861 46.861c-27.769 27.769-27.769 72.895 0 102.4l124.963 124.963c13.885 13.885 31.241 20.827 50.332 20.827s36.447-6.942 50.332-20.827l5.207-5.207 13.885 13.885-5.207 5.207c-27.769 27.769-27.769 72.895 0 102.4l124.963 124.963c13.885 13.885 31.241 20.827 50.332 20.827s36.447-6.942 50.332-20.827l46.861-46.861c27.769-27.769 27.769-72.895 0-100.664zM485.966 368.163l-24.298-24.298-38.183 38.183 24.298 24.298-5.207 5.207c-3.471 3.471-8.678 5.207-13.885 5.207s-10.414-1.736-13.885-5.207l-124.963-124.963c-6.942-6.942-6.942-19.092 0-26.034l46.861-46.861c6.942-6.942 19.092-6.942 26.034 0l124.963 124.963c6.942 6.942 6.942 19.092 0 26.034l-1.736 3.471zM683.824 651.064c-3.471 3.471-8.678 5.207-13.885 5.207s-10.414-1.736-13.885-5.207l-123.227-124.963c-6.942-6.942-6.942-19.092 0-26.034l5.207-5.207 36.447 36.447 38.183-38.183-38.183-36.447 5.207-5.207c6.942-6.942 19.092-6.942 26.034 0l124.963 124.963c6.942 6.942 6.942 19.092 0 26.034l-46.861 48.597z" />
<glyph unicode="&#xe92f;" glyph-name="lock" horiz-adv-x="796" d="M739.556 546.133h-19.911v93.867c0 172.089-139.378 317.156-311.467 320-4.267 0-14.222 0-18.489 0-174.933-2.844-312.889-147.911-312.889-320v-93.867h-19.911c-31.289 0-56.889-31.289-56.889-71.111v-467.911c0-39.822 25.6-71.111 56.889-71.111h682.667c31.289 0 56.889 32.711 56.889 71.111v467.911c0 39.822-25.6 71.111-56.889 71.111zM462.222 241.778v-142.222c0-15.644-14.222-29.867-29.867-29.867h-68.267c-17.067 0-29.867 14.222-29.867 29.867v142.222c-15.644 15.644-25.6 36.978-25.6 61.156 0 45.511 35.556 83.911 79.644 85.333 4.267 0 14.222 0 18.489 0 44.089-1.422 79.644-39.822 79.644-85.333 1.422-24.178-8.533-45.511-24.178-61.156zM587.378 546.133h-378.311v93.867c0 102.4 83.911 187.733 189.156 187.733 103.822 0 189.156-85.333 189.156-187.733v-93.867z" />
<glyph unicode="&#xe930;" glyph-name="media" d="M960 960h-896c-35.556 0-64-28.444-64-62.578v-540.444c0-34.133 28.444-62.578 64-62.578h896c35.556 0 64 28.444 64 62.578v540.444c0 34.133-28.444 62.578-64 62.578zM817.778 227.556h-763.733c-29.867 0-54.044-24.178-54.044-52.622 0-29.867 24.178-54.044 54.044-54.044h763.733c29.867 0 54.044 24.178 54.044 52.622 0 29.867-24.178 54.044-54.044 54.044zM684.089 42.667h-630.044c-29.867 0-54.044-24.178-54.044-52.622 0-29.867 24.178-54.044 54.044-54.044h630.044c29.867 0 54.044 24.178 54.044 52.622 0 29.867-24.178 54.044-54.044 54.044z" />
<glyph unicode="&#xe931;" glyph-name="message-circle" d="M512 960c-282.902 0-512-229.098-512-512s229.098-512 512-512c282.902 0 512 229.098 512 512s-229.098 512-512 512zM496.38 618.088h381.831c3.471 0 5.207 0 6.942 0l-213.478-123.227-180.502 123.227c1.736 0 3.471 0 5.207 0zM206.536 328.244v53.803h170.088l-1.736-17.356v-6.942c0-10.414 1.736-20.827 5.207-29.505h-173.559zM383.566 430.644h-234.305v53.803h241.247l-6.942-53.803zM400.922 579.905l-3.471-27.769h-300.258v53.803h308.936c-3.471-8.678-5.207-17.356-5.207-26.034zM850.441 316.095h-381.831c-12.149 0-22.563 5.207-29.505 12.149 0 0 0 0 0 0-1.736 1.736-3.471 3.471-5.207 5.207 0 0 0 0 0 0-1.736 1.736-1.736 3.471-3.471 6.942 0 0 0 0 0 0-1.736 1.736-1.736 5.207-1.736 6.942 0 0 0 0 0 1.736 0 3.471 0 5.207 0 8.678l13.885 116.285 1.736 10.414 10.414 91.986c0 3.471 0 5.207 0 6.942 0 0 0 0 0 0s0 0 0 0c1.736 5.207 3.471 10.414 6.942 15.62v-20.827l197.858-131.905c0 0 0 0 0 0s0 0 1.736 0 3.471-1.736 5.207-1.736c0 0 0 0 0 0 1.736 0 3.471 0 5.207 0v0c0 0 0 0 0 0 1.736 0 3.471 0 5.207 0 0 0 0 0 0 0 1.736 0 3.471 1.736 5.207 1.736 0 0 0 0 1.736 0 0 0 0 0 0 0l234.305 135.376c0-1.736 0-3.471 0-5.207l-26.034-220.42c0-22.563-17.356-39.919-41.654-39.919z" />
<glyph unicode="&#xe932;" glyph-name="officers-circle" d="M512 960c-282.902 0-512-229.098-512-512s229.098-512 512-512 512 229.098 512 512c0 282.902-229.098 512-512 512zM949.369 604.203c0-39.919-36.447-72.895-81.573-72.895s-81.573 32.976-81.573 72.895c0 39.919 36.447 72.895 81.573 72.895s81.573-32.976 81.573-72.895zM152.732 763.878c86.78 102.4 216.949 161.41 359.268 161.41s272.488-59.010 359.268-161.41c8.678-10.414 6.942-26.034-5.207-32.976-5.207-3.471-10.414-5.207-15.62-5.207-8.678 0-15.62 3.471-20.827 8.678-76.366 91.986-192.651 144.054-317.614 144.054-126.698 0-241.247-52.068-317.614-144.054-8.678-10.414-24.298-12.149-36.447-5.207-12.149 8.678-13.885 24.298-5.207 34.712zM529.356 479.241l-13.885-34.712c-1.736-3.471-6.942-3.471-8.678 0l-13.885 34.712 6.942 55.539-13.885 20.827c-3.471 5.207-1.736 10.414 1.736 13.885 1.736 1.736 6.942 3.471 10.414 3.471h27.769c3.471 0 6.942-1.736 10.414-3.471 3.471-3.471 5.207-10.414 1.736-13.885l-15.62-20.827 6.942-55.539zM512 612.881c-57.275 0-104.136 43.39-104.136 95.458s46.861 95.458 104.136 95.458c57.275 0 104.136-43.39 104.136-95.458s-46.861-95.458-104.136-95.458zM154.468 677.098c45.125 0 81.573-32.976 81.573-72.895s-36.447-72.895-81.573-72.895c-45.125 0-81.573 32.976-81.573 72.895 1.736 39.919 38.183 72.895 81.573 72.895zM293.315 324.773c0-3.471-1.736-8.678-3.471-12.149l-41.654-57.275v-149.261c0-12.149-10.414-22.563-24.298-22.563l-161.41 171.824-41.654 57.275c-1.736 3.471-3.471 8.678-3.471 12.149v111.078c0 31.241 22.563 59.010 55.539 69.424 0 0 20.827 5.207 20.827 5.207 6.942 1.736 15.62 0 20.827-3.471l39.919-27.769 39.919 27.769c6.942 3.471 13.885 5.207 20.827 3.471 0 0 20.827-5.207 20.827-5.207 32.976-10.414 55.539-38.183 55.539-69.424v-111.078zM690.766 321.302c0-1.736 0-3.471-1.736-5.207l-65.953-90.251v-229.098c0-5.207-3.471-8.678-8.678-8.678h-204.8c-5.207 0-8.678 3.471-8.678 8.678v229.098l-65.953 90.251c-1.736 1.736-1.736 3.471-1.736 5.207v164.881c0 36.447 26.034 67.688 64.217 79.837 0 0 31.241 8.678 32.976 8.678 3.471 0 6.942-1.736 8.678-5.207l62.481-156.203c3.471-8.678 17.356-8.678 20.827 0l62.481 156.203c1.736 3.471 6.942 6.942 12.149 5.207l29.505-8.678c38.183-10.414 64.217-43.39 64.217-79.837v-164.881zM1003.173 312.624l-41.654-57.275-161.41-171.824c-13.885 0-24.298 10.414-24.298 22.563v149.261l-41.654 57.275c-1.736 3.471-3.471 6.942-3.471 12.149v111.078c0 31.241 22.563 59.010 55.539 69.424 0 0 20.827 5.207 20.827 5.207 6.942 1.736 15.62 0 20.827-3.471l39.919-27.769 39.919 27.769c6.942 3.471 13.885 5.207 20.827 3.471 0 0 20.827-5.207 20.827-5.207 32.976-10.414 55.539-38.183 55.539-69.424v-111.078c1.736-3.471 0-8.678-1.736-12.149z" />
<glyph unicode="&#xe933;" glyph-name="headset" d="M1002.667 307.2c-12.8 21.333-31.289 36.978-52.622 48.356 7.111 98.133-21.333 180.622-65.422 184.889h-1.422c-1.422 83.911-28.444 166.4-75.378 236.089-76.8 115.2-201.956 183.467-332.8 183.467s-254.578-68.267-331.378-182.044c-48.356-71.111-73.956-153.6-75.378-237.511h-1.422c-44.089-4.267-73.956-89.6-65.422-189.156 8.533-100.978 51.2-179.2 95.289-174.933v0l145.067 12.8c12.8 1.422 22.756 7.111 31.289 17.067s11.378 22.756 9.956 35.556l-22.756 268.8c-2.844 27.022-24.178 45.511-49.778 44.089l-38.4-2.844c2.844 58.311 22.756 113.778 55.467 164.978 58.311 86.756 147.911 136.533 247.467 136.533 98.133 0 187.733-49.778 247.467-136.533 34.133-49.778 52.622-106.667 55.467-164.978l-38.4 2.844c-25.6 2.844-48.356-17.067-49.778-44.089l-22.756-268.8c-1.422-12.8 2.844-25.6 9.956-35.556 8.533-9.956 18.489-15.644 31.289-17.067l145.067-12.8c32.711-2.844 64 38.4 82.489 100.978 2.844-2.844 5.689-5.689 7.111-9.956 12.8-19.911 14.222-44.089 5.689-65.422l-45.511-109.511c-14.222-34.133-45.511-55.467-81.067-55.467h-61.156c-5.689 17.067-19.911 29.867-36.978 29.867h-113.778c-21.333 0-39.822-18.489-39.822-41.244v-48.356c0-22.756 18.489-41.244 39.822-41.244h113.778c18.489 0 32.711 12.8 36.978 29.867h61.156c62.578 0 119.467 38.4 143.644 98.133l45.511 109.511c19.911 44.089 15.644 93.867-8.533 133.689z" />
<glyph unicode="&#xe934;" glyph-name="diamond" d="M1019.733 625.778l-163.556 317.156c-5.689 9.956-15.644 17.067-27.022 17.067h-634.311c-11.378 0-21.333-7.111-27.022-17.067l-163.556-317.156c-5.689-11.378-5.689-27.022 2.844-36.978l480.711-640c0 0 0 0 0 0s1.422-1.422 1.422-1.422c0 0 0 0 0 0s0 0 0 0 0 0 0 0 1.422-1.422 1.422-1.422c0 0 0 0 1.422 0 0 0 1.422-1.422 1.422-1.422s0 0 1.422 0c0 0 1.422 0 1.422-1.422 0 0 0 0 0 0s0 0 0 0 1.422 0 1.422-1.422c0 0 1.422 0 1.422 0s0 0 0 0 0 0 0 0 0 0 1.422 0 1.422 0 2.844-1.422c0 0 1.422 0 1.422 0 1.422 0 2.844 0 4.267 0 0 0 0 0 0 0v0 0c0 0 0 0 0 0 1.422 0 2.844 0 4.267 0 0 0 1.422 0 1.422 0 1.422 0 2.844 0 2.844 1.422 0 0 0 0 1.422 0 0 0 0 0 0 0s0 0 0 0 1.422 0 1.422 0c0 0 1.422 0 1.422 1.422 0 0 0 0 0 0s0 0 0 0 1.422 0 1.422 1.422c0 0 0 0 1.422 0 0 0 1.422 1.422 1.422 1.422s0 0 1.422 0c0 0 1.422 1.422 1.422 1.422s0 0 0 0 0 0 0 0 0 0 0 0 1.422 1.422 1.422 1.422c0 0 0 0 0 0l480.711 640c14.222 9.956 15.644 24.178 8.533 36.978zM573.156 893.156l88.178-250.311h-298.667l88.178 250.311h122.311zM664.178 576l-152.178-499.2-152.178 499.2h304.356zM294.4 576l135.111-443.733-332.8 443.733h197.689zM729.6 576h197.689l-332.8-443.733 135.111 443.733zM940.089 642.844h-211.911l-88.178 250.311h170.667l129.422-250.311zM213.333 893.156h170.667l-88.178-250.311h-211.911l129.422 250.311z" />
<glyph unicode="&#xe935;" glyph-name="emoji" d="M591.837 533.044c13.885 0 24.298 10.414 24.298 24.298 0 19.092 15.62 36.447 36.447 36.447 19.092 0 36.447-15.62 36.447-36.447 0-13.885 10.414-24.298 24.298-24.298s24.298 10.414 24.298 24.298c0 46.861-38.183 83.308-83.308 83.308-46.861 0-83.308-38.183-83.308-83.308-3.471-12.149 8.678-24.298 20.827-24.298zM324.556 533.044c13.885 0 24.298 10.414 24.298 24.298 0 19.092 15.62 36.447 36.447 36.447 19.092 0 36.447-15.62 36.447-36.447 0-13.885 10.414-24.298 24.298-24.298s24.298 10.414 24.298 24.298c0 46.861-38.183 83.308-83.308 83.308-46.861 0-83.308-38.183-83.308-83.308-3.471-12.149 6.942-24.298 20.827-24.298zM874.739 810.739c-199.593 199.593-525.885 199.593-725.478 0s-199.593-524.149 0-723.742c199.593-199.593 524.149-199.593 723.742 0 201.329 197.858 201.329 524.149 1.736 723.742zM819.2 142.536c-168.353-168.353-444.312-168.353-612.664 0s-168.353 444.312 0 612.664c168.353 168.353 444.312 168.353 612.664 0 168.353-170.088 168.353-444.312 0-612.664zM718.536 380.312c-13.885 6.942-31.241 0-38.183-15.62-27.769-64.217-93.722-105.871-168.353-105.871-76.366 0-142.319 41.654-168.353 105.871-5.207 10.414-15.62 17.356-26.034 17.356-3.471 0-6.942 0-10.414-1.736-15.62-6.942-22.563-22.563-15.62-38.183 36.447-86.78 123.227-142.319 222.156-142.319 97.193 0 183.973 55.539 222.156 140.583 5.207 15.62-1.736 32.976-17.356 39.919z" />
<glyph unicode="&#xe936;" glyph-name="everyone-circle" d="M17.356 298.739v0l5.207-1.736c-1.736 6.942-3.471 12.149-5.207 19.092v-17.356zM1006.644 302.21v0 13.885c-1.736-5.207-3.471-10.414-5.207-15.62l5.207 1.736zM512 960c-282.902 0-512-229.098-512-512 0-45.125 6.942-90.251 17.356-131.905v83.308c0 67.688 55.539 123.227 124.963 123.227h81.573c1.736-32.976 15.62-60.746 36.447-83.308-60.746-17.356-105.871-74.631-105.871-140.583v-31.241c-81.573 3.471-128.434 26.034-131.905 27.769h-1.736c65.953-208.271 262.075-359.268 491.173-359.268 230.834 0 426.956 152.732 489.437 364.475l-3.471-1.736c-3.471-1.736-50.332-24.298-131.905-27.769v31.241c0 65.953-45.125 121.492-105.871 140.583 22.563 20.827 36.447 50.332 36.447 83.308h81.573c69.424 0 124.963-55.539 124.963-123.227v-85.044c10.414 41.654 17.356 86.78 17.356 131.905 3.471 281.166-225.627 510.264-508.529 510.264zM695.973 795.119c41.654 0 78.102-26.034 90.251-64.217-36.447-17.356-60.746-53.803-64.217-93.722-10.414 5.207-27.769 8.678-45.125 8.678s-34.712-3.471-52.068-12.149c-5.207 5.207-8.678 10.414-12.149 15.62 13.885 20.827 20.827 43.39 20.827 69.424 0 15.62-3.471 31.241-10.414 46.861 20.827 19.092 46.861 29.505 72.895 29.505zM512 821.153c59.010 0 105.871-46.861 105.871-104.136s-46.861-104.136-105.871-104.136c-59.010 0-105.871 46.861-105.871 104.136s48.597 104.136 105.871 104.136zM517.207 550.4c-20.827 0-39.919-5.207-55.539-13.885 0 24.298-8.678 46.861-22.563 65.953 8.678 1.736 17.356 3.471 27.769 3.471h90.251c8.678 0 19.092-1.736 27.769-3.471-12.149-17.356-20.827-38.183-22.563-60.746-12.149 5.207-27.769 8.678-45.125 8.678zM616.136 430.644c0-53.803-43.39-95.458-97.193-95.458s-97.193 43.39-97.193 95.458c0 53.803 43.39 95.458 97.193 95.458 52.068 1.736 97.193-41.654 97.193-95.458zM333.234 795.119c24.298 0 46.861-8.678 64.217-24.298-8.678-15.62-12.149-34.712-12.149-52.068 0-26.034 8.678-52.068 26.034-74.631-3.471-5.207-6.942-8.678-10.414-12.149-17.356 10.414-36.447 13.885-57.275 13.885-17.356 0-34.712-5.207-46.861-10.414-3.471 36.447-24.298 69.424-57.275 88.515 12.149 41.654 50.332 71.159 93.722 71.159zM183.973 527.837c-53.803 0-97.193 43.39-97.193 95.458 0 53.803 43.39 95.458 97.193 95.458s97.193-41.654 97.193-95.458c-31.241-19.092-52.068-50.332-55.539-88.515-13.885-3.471-27.769-6.942-41.654-6.942zM248.19 531.308c0 53.803 43.39 95.458 97.193 95.458s97.193-43.39 97.193-95.458c0-1.736 0-3.471 0-5.207-24.298-19.092-39.919-45.125-45.125-76.366-15.62-8.678-32.976-15.62-52.068-15.62-53.803 0-97.193 43.39-97.193 97.193zM328.027 175.512c-41.654 1.736-88.515 10.414-140.583 26.034l-6.942 1.736v102.4c0 67.688 55.539 123.227 124.963 123.227h83.308c3.471 0 6.942 0 8.678 0 1.736-32.976 15.62-60.746 36.447-81.573-60.746-17.356-105.871-74.631-105.871-140.583v-31.241zM683.824 106.088v0l-6.942-3.471c-3.471-1.736-57.275-27.769-149.261-27.769-46.861 0-104.136 6.942-170.088 27.769l-6.942 1.736v102.4c0 67.688 55.539 123.227 124.963 123.227h83.308c69.424 0 124.963-55.539 124.963-123.227v-100.664zM845.234 303.946v-100.664l-6.942-3.471c-3.471-1.736-50.332-24.298-131.905-27.769v31.241c0 65.953-45.125 121.492-105.871 140.583 22.563 20.827 36.447 50.332 36.447 83.308h81.573c71.159 0 126.698-53.803 126.698-123.227zM678.617 434.115c-15.62 0-29.505 3.471-41.654 8.678-3.471 38.183-26.034 69.424-55.539 88.515 0 52.068 43.39 95.458 97.193 95.458s97.193-43.39 97.193-95.458c1.736-53.803-43.39-97.193-97.193-97.193zM840.027 531.308c-15.62 0-29.505 3.471-41.654 8.678-3.471 38.183-26.034 69.424-55.539 88.515 0 52.068 43.39 95.458 97.193 95.458s97.193-43.39 97.193-95.458c0-53.803-43.39-97.193-97.193-97.193z" />
<glyph unicode="&#xe937;" glyph-name="exit" d="M617.244 285.867c0-14.222-11.378-25.6-25.6-25.6h-146.489v433.778c0 18.489-11.378 36.978-27.022 45.511l-224.711 118.044h398.222c14.222 0 25.6-11.378 25.6-25.6v-100.978h99.556v177.778c0 28.444-22.756 51.2-49.778 51.2h-617.244c-27.022 0-49.778-22.756-49.778-51.2v-723.911c0-18.489 11.378-36.978 27.022-45.511l379.733-201.956c17.067-8.533 36.978 2.844 36.978 22.756v197.689h223.289c27.022 0 49.778 22.756 49.778 51.2v280.178h-99.556v-203.378zM1008.356 649.956l-162.133 166.4c-21.333 21.333-54.044 21.333-73.956 1.422s-17.067-54.044 1.422-73.956c1.422 0 73.956-73.956 73.956-73.956h-284.444c-8.533 0-17.067-2.844-25.6-7.111-29.867-17.067-35.556-62.578-12.8-88.178 8.533-11.378 22.756-17.067 36.978-17.067h284.444l-73.956-73.956c-18.489-19.911-21.333-54.044-1.422-75.378 21.333-21.333 52.622-19.911 73.956 1.422l162.133 166.4c22.756 19.911 22.756 52.622 1.422 73.956z" />
<glyph unicode="&#xe938;" glyph-name="export-circle" d="M512 960c-282.902 0-512-229.098-512-512s229.098-512 512-512c282.902 0 512 229.098 512 512s-229.098 512-512 512zM378.359 682.305l107.607 107.607c6.942 6.942 15.62 10.414 26.034 10.414 0 0 0 0 0 0s0 0 0 0c8.678 0 19.092-3.471 26.034-10.414l107.607-107.607c13.885-13.885 13.885-36.447 0-52.068-6.942-6.942-15.62-10.414-26.034-10.414-8.678 0-19.092 3.471-26.034 10.414l-48.597 48.597v-194.386c0-20.827-15.62-36.447-36.447-36.447s-36.447 15.62-36.447 36.447v192.651l-41.654-46.861c-6.942-6.942-15.62-10.414-26.034-10.414-8.678 0-19.092 3.471-26.034 10.414-13.885 13.885-13.885 38.183 0 52.068zM789.695 244.936v0c0-48.597-48.597-86.78-109.342-86.78h-336.705c-60.746 0-109.342 38.183-109.342 86.78v236.041c0 48.597 48.597 86.78 109.342 86.78h45.125c5.207-1.736 10.414-1.736 15.62-1.736s10.414 0 15.62 1.736h1.736v-71.159h-79.837c-24.298 0-38.183-12.149-38.183-15.62v-236.041c0-3.471 13.885-15.62 38.183-15.62h338.441c24.298 0 38.183 12.149 38.183 15.62v236.041c0 3.471-13.885 15.62-38.183 15.62h-79.837v71.159h5.207c5.207-1.736 10.414-1.736 15.62-1.736s10.414 0 15.62 1.736h43.39c60.746 0 109.342-38.183 109.342-86.78v-236.041z" />
<glyph unicode="&#xe939;" glyph-name="globe" d="M937.365 732.76l-15.623-4.261-80.954-7.101-22.724-36.926-17.043 5.681-65.331 58.23-9.942 29.825-12.782 32.666-41.187 36.926-46.868 8.521-1.42-22.724 46.868-45.448 22.724-26.985-25.564-14.202-21.304 5.681-31.245 12.782 1.42 25.564-41.187 17.043-14.202-59.65-41.187-9.942 4.261-34.086 53.969-9.942 9.942 53.969 45.448-7.101 21.304-12.782h34.086l22.724-45.448 61.071-61.071-4.261-24.144-49.709 5.681-85.215-42.607-61.071-73.853-8.521-32.666h-21.304l-41.187 18.463-39.767-18.463 9.942-41.187 17.043 19.883 29.825 1.42-1.42-36.926 25.564-7.101 25.564-28.405 41.187 11.362 46.868-7.101 53.969-14.202 26.985-2.84 45.448-52.549 89.476-52.549-56.81-109.359-61.071-28.405-22.724-62.491-88.055-58.23-11.362-34.086c224.399 53.969 391.989 255.645 391.989 497.087 0 105.098-32.666 203.096-86.635 284.050zM570.94 180.283l-36.926 69.592 34.086 71.012-34.086 9.942-38.347 38.347-85.215 18.463-28.405 59.65v-35.506h-12.782l-73.853 99.417v80.954l-53.969 89.476-85.215-15.623h-56.81l-28.405 18.463 36.926 29.825-36.926-8.521c-45.448-75.273-71.012-163.329-71.012-257.065 0-282.63 228.66-511.29 511.29-511.29 21.304 0 42.607 1.42 63.911 4.261l-5.681 62.491c0 0 24.144 92.316 24.144 95.157 0 1.42-22.724 80.954-22.724 80.954zM190.313 795.251l90.896 12.782 42.607 22.724 46.868-14.202 75.273 4.261 25.564 41.187 38.347-5.681 90.896 8.521 25.564 28.405 35.506 24.144 49.709-7.101 18.463 2.84c-66.752 28.405-140.605 46.868-218.718 46.868-159.068 0-301.093-72.433-394.829-186.053v0l73.853 21.304zM534.014 908.871l52.549 28.405 34.086-19.883-48.288-36.926-46.868-4.261-21.304 14.202 29.825 18.463zM379.207 904.61l22.724-9.942 29.825 9.942 17.043-28.405-69.592-18.463-34.086 19.883c0 0 32.666 21.304 34.086 26.985z" />
<glyph unicode="&#xe93a;" glyph-name="apple" horiz-adv-x="828" d="M564.706 794.353c37.647 45.176 56.471 105.412 52.706 165.647-56.471-7.529-112.941-33.882-150.588-79.059-30.118-37.647-60.235-97.882-52.706-158.118 56.471-3.765 112.941 30.118 150.588 71.529zM414.118 722.824v0 0zM692.706 414.118c0 128 105.412 192 109.176 195.765-60.235 86.588-154.353 101.647-188.235 101.647-79.059 7.529-154.353-48.941-195.765-48.941s-101.647 45.176-169.412 45.176c-86.588-3.765-165.647-52.706-207.059-128-90.353-158.118-22.588-387.765 64-515.765 45.176-64 94.118-131.765 161.882-128 64 3.765 90.353 41.412 165.647 41.412 79.059 0 101.647-41.412 169.412-41.412 71.529 0 112.941 64 154.353 124.235 48.941 71.529 71.529 143.059 71.529 146.824-82.824 37.647-135.529 116.706-135.529 207.059z" />
<glyph unicode="&#xe93b;" glyph-name="play" horiz-adv-x="952" d="M689.231 625.231l-584.205 321.641c-19.692 13.128-32.821 13.128-52.513 13.128l485.744-485.744 150.974 150.974zM6.564 914.051v0 0zM85.333-70.564c6.564 0 13.128 6.564 19.692 13.128l564.513 308.513-131.282 131.282-452.923-452.923zM6.564 914.051c0-6.564-6.564-19.692-6.564-26.256v-886.154c0-19.692 6.564-32.821 13.128-45.949l479.179 472.615-485.744 485.744zM912.41 500.513l-157.538 91.897-164.103-164.103 144.41-144.41 183.795 98.462c45.949 32.821 45.949 85.333-6.564 118.154z" />
<glyph unicode="&#xe93c;" glyph-name="globe-o" d="M512 960c-284.444 0-512-227.556-512-512 0-136.533 56.889-261.689 142.222-352.711v0h5.689c91.022-96.711 221.867-153.6 364.089-153.6 284.444 0 512 227.556 512 512 0 278.756-227.556 506.311-512 506.311zM910.222 669.867c-22.756 0-45.511 0-68.267 5.689-17.067 5.689-34.133 5.689-45.511 5.689-17.067 0-28.444-5.689-34.133-17.067s-5.689-22.756 0-39.822c11.378-22.756 68.267-45.511 68.267-79.644 0 0-5.689-85.333-34.133-142.222s-91.022-142.222-153.6-125.156c-62.578 22.756-22.756 130.844-34.133 159.289-5.689 28.444-28.444 45.511-51.2 56.889-22.756 5.689-79.644 5.689-85.333 5.689-51.2 0-79.644 28.444-79.644 73.956s11.378 73.956 34.133 96.711c28.444 28.444 45.511 34.133 96.711 28.444 45.511-5.689 68.267-28.444 108.089-28.444 34.133 0 62.578 11.378 79.644 28.444 11.378 11.378 11.378 22.756 11.378 28.444 0 17.067-17.067 39.822-85.333 45.511s-91.022-22.756-108.089 17.067c-17.067 28.444 28.444 62.578 73.956 85.333 130.844-5.689 244.622-91.022 307.2-204.8zM193.422 220.444c-5.689-22.756-11.378-51.2-22.756-73.956-56.889 68.267-96.711 147.911-108.089 238.933 5.689 0 11.378 0 17.067 0 22.756 0 39.822 0 79.644-51.2 17.067-17.067 28.444-34.133 34.133-62.578 5.689-5.689 5.689-22.756 0-51.2zM512-7.111c-113.778 0-221.867 45.511-301.511 113.778 5.689 11.378 11.378 28.444 17.067 39.822 5.689 22.756 17.067 39.822 17.067 62.578 5.689 34.133 11.378 62.578 0 85.333-11.378 28.444-28.444 56.889-51.2 85.333-56.889 62.578-79.644 62.578-119.467 68.267-5.689 0-17.067 0-22.756 0 0 0 0 0 0 0 0 250.311 204.8 455.111 455.111 455.111 0 0 5.689 0 5.689 0-45.511-34.133-68.267-68.267-39.822-125.156 0-5.689 5.689-11.378 11.378-17.067-39.822 0-68.267-17.067-96.711-45.511-34.133-39.822-56.889-91.022-51.2-142.222 0-73.956 56.889-130.844 130.844-130.844 0 0 5.689 0 5.689 0 22.756 0 45.511 0 62.578-5.689 5.689-5.689 11.378-5.689 17.067-17.067 0 5.689 0-5.689-5.689-22.756 0-17.067 0-28.444 0-39.822 0-68.267 17.067-113.778 73.956-136.533 91.022-28.444 159.289 39.822 221.867 147.911 28.444 51.2 45.511 130.844 45.511 170.667 0 28.444-11.378 45.511-28.444 62.578 22.756 0 51.2-5.689 73.956 0 17.067-51.2 28.444-108.089 28.444-164.978 5.689-238.933-199.111-443.733-449.422-443.733z" />
<glyph unicode="&#xe93d;" glyph-name="encounters" d="M876.874 818.759h-229.517l-5.885 29.425c-23.54 76.506-105.931 123.586-182.437 105.931l-347.218-94.161c0 0 0 0 0 0-76.506-23.54-129.471-100.046-105.931-182.437l147.126-535.54c23.54-76.506 105.931-123.586 182.437-105.931l23.54 5.885c17.655-58.851 76.506-105.931 141.241-105.931h382.529c82.391 0 147.126 64.736 147.126 147.126v582.621c0 88.276-70.621 153.011-153.011 153.011zM317.793 94.897c-47.080-11.77-100.046 17.655-111.816 64.736l-141.241 535.54c-11.77 47.080 17.655 94.161 64.736 111.816l347.218 94.161c47.080 11.77 100.046-17.655 111.816-64.736l147.126-535.54c0 0 0 0 0 0 11.77-47.080-17.655-100.046-64.736-111.816l-353.103-94.161zM971.034 89.011c0-47.080-41.195-88.276-88.276-88.276h-382.529c-41.195 0-70.621 23.54-82.391 58.851l264.828 70.621c0 0 0 0 0 0 76.506 23.54 123.586 100.046 105.931 182.437l-117.701 447.264h211.862c47.080 0 88.276-41.195 88.276-88.276v-582.621z" />
<glyph unicode="&#xe93e;" glyph-name="chat-bubble" horiz-adv-x="1117" d="M1117.091 494.545c0 269.964-265.309 465.455-558.545 465.455s-558.545-195.491-558.545-465.455c0-242.036 232.727-446.836 563.2-446.836 69.818 0 148.945 9.309 228.073 27.927l321.164-139.636-93.091 297.891c65.164 74.473 97.745 167.564 97.745 260.655zM1037.964 19.782l-246.691 107.055c-69.818-18.618-144.291-32.582-228.073-32.582-293.236 0-516.655 172.218-516.655 400.291 0 232.727 228.073 418.909 512 418.909s512-186.182 512-418.909c0-107.055-41.891-176.873-102.4-251.345l69.818-223.418z" />
<glyph unicode="&#xe93f;" glyph-name="content_copy" d="M810 42.667v598h-468v-598h468zM810 724.667c46 0 86-38 86-84v-598c0-46-40-86-86-86h-468c-46 0-86 40-86 86v598c0 46 40 84 86 84h468zM682 896.667v-86h-512v-598h-84v598c0 46 38 86 84 86h512z" />
<glyph unicode="&#xe940;" glyph-name="bell" d="M750.080 536.986c-116.736 251.238-177.459 346.675-368.179 342.682-67.942-1.382-51.661 49.254-103.475 30.054-51.712-19.2-7.322-47.309-60.262-90.778-148.582-122.010-134.912-234.854-65.997-503.808 29.030-113.306-69.99-118.835-30.822-228.608 28.621-80.077 239.565-113.613 462.080-31.078 222.566 82.586 362.803 246.477 334.182 326.554-39.168 109.824-118.323 49.203-167.526 154.982zM559.309 123.136c-198.758-73.728-362.086-30.413-368.998-11.11-11.878 33.28 64.154 144.179 291.379 228.506s354.048 53.043 367.309 15.923c7.834-21.965-90.88-159.539-289.69-233.318zM495.411 302.029c-103.885-38.554-176.077-82.637-222.874-122.317 32.922-29.901 94.566-37.171 155.955-14.387 78.182 28.928 126.259 95.539 107.264 148.685-0.256 0.666-0.563 1.178-0.819 1.843-12.851-4.198-26.010-8.755-39.526-13.824z" />
<glyph unicode="&#xe941;" glyph-name="icon-coin" horiz-adv-x="1126" d="M0 832.975c0-84.032 144.875-128 288-128s288 43.968 288 128c0 168.062-576 168.062-576 0zM288 640.975c-103.571 0-288 30.342-288 128v-64c0-83.84 144.64-128 288-128s288 44.16 288 128v64c0-97.566-183.558-128-288-128zM288 384.975c-143.36 0-288 44.16-288 128v-64c0-83.84 144.64-128 288-128s288 44.16 288 128v64c0-83.84-144.64-128-288-128zM288 256.975c-143.36 0-288 44.16-288 128v-64c0-83.84 144.64-128 288-128s288 44.16 288 128v64c0-83.84-144.64-128-288-128zM288 128.975c-143.36 0-288 44.16-288 128v-64c0-83.84 144.64-128 288-128s288 44.16 288 128v64c0-83.84-144.64-128-288-128zM288 0.975c-143.36 0-288 44.16-288 128v-64c0-83.84 144.64-128 288-128s288 44.16 288 128v64c0-83.84-144.64-128-288-128zM288 512.975c-143.36 0-288 44.16-288 128v-64c0-97.658 184.429-128 288-128 124.156 0 248.96 33.282 280.32 96 5.118 9.6 7.68 20.48 7.68 32v64c0-83.84-144.64-128-288-128zM800 0.975c-58.906 0-117.453 7.859-166.671 22.464-6.368-19.91-17.376-37.66-32.015-53.449 54.187-21.79 126.556-33.015 198.688-33.015 143.36 0 292.267 44.16 292.267 128v64c-0.002-83.84-148.909-128-292.269-128zM800 256.975c-56.267 0-112.226 7.179-160 20.495 0-35.962 0-28.233 0-64.196 47.789-13.289 103.827-20.301 160-20.301 143.36 0 292.267 44.16 292.267 128v64c0-97.655-188.695-127.998-292.267-127.998zM800 128.975c-56.437 0-112.109 7.61-160 21.067 0-23.718 0-9.355 0-64.324 47.703-13.468 103.595-20.742 160-20.742 104.442 0 292.267 30.436 292.267 128v64c0-83.84-148.907-128-292.267-128zM640 555.189v-212.996c47.797-13.589 103.484-21.218 160-21.218 143.125 0 292.267 43.968 292.267 128 0 117.003-282.782 152.203-452.267 106.214z" />
<glyph unicode="&#xe96f;" glyph-name="bubbles3" horiz-adv-x="1152" d="M1088 58.834c0-45.5 26.028-84.908 64-104.184v-15.938c-10.626-1.454-21.472-2.224-32.5-2.224-68.008 0-129.348 28.528-172.722 74.264-26.222-6.982-54.002-10.752-82.778-10.752-159.058 0-288 114.616-288 256s128.942 256 288 256c159.058 0 288-114.616 288-256 0-55.348-19.764-106.592-53.356-148.466-6.824-14.824-10.644-31.312-10.644-48.7zM230.678 738.814c-66.214-53.798-102.678-122.984-102.678-194.814 0-40.298 11.188-79.378 33.252-116.15 22.752-37.92 56.982-72.586 98.988-100.252 30.356-19.992 50.78-51.948 56.176-87.894 1.8-11.984 2.928-24.088 3.37-36.124 7.47 6.194 14.75 12.846 21.88 19.976 24.154 24.152 56.78 37.49 90.502 37.49 5.368 0 10.762-0.336 16.156-1.024 20.948-2.662 42.344-4.016 63.594-4.020v-128c-27.128 0.002-53.754 1.738-79.742 5.042-109.978-109.978-241.25-129.7-368.176-132.596v26.916c68.536 33.578 128 94.74 128 164.636 0 9.754-0.758 19.33-2.164 28.696-115.796 76.264-189.836 192.754-189.836 323.304 0 229.75 229.23 416 512 416 278.458 0 504.992-180.614 511.836-405.52-41.096 18.316-85.84 29.422-132.262 32.578-11.53 56.068-45.402 108.816-98.252 151.756-35.322 28.698-76.916 51.39-123.628 67.444-49.706 17.080-102.76 25.742-157.694 25.742-54.932 0-107.988-8.662-157.694-25.742-46.712-16.054-88.306-38.744-123.628-67.444z" />
<glyph unicode="&#xe970;" glyph-name="bubbles4" horiz-adv-x="1152" d="M480 832c-50.666 0-99.582-7.95-145.386-23.628-42.924-14.694-81.114-35.436-113.502-61.646-60.044-48.59-93.112-110.802-93.112-175.174 0-35.99 10.066-70.948 29.92-103.898 20.686-34.34 51.898-65.794 90.26-90.958 30.44-19.968 50.936-51.952 56.362-87.95 0.902-5.99 1.63-12.006 2.18-18.032 2.722 2.52 5.424 5.114 8.114 7.794 24.138 24.040 56.688 37.312 90.322 37.312 5.348 0 10.718-0.336 16.094-1.018 19.36-2.452 39.124-3.696 58.748-3.696 50.666 0 99.58 7.948 145.384 23.628 42.926 14.692 81.116 35.434 113.504 61.644 60.046 48.59 93.112 110.802 93.112 175.174s-33.066 126.582-93.112 175.174c-32.388 26.212-70.578 46.952-113.504 61.646-45.804 15.678-94.718 23.628-145.384 23.628zM480 960v0c265.096 0 480-173.914 480-388.448s-214.904-388.448-480-388.448c-25.458 0-50.446 1.62-74.834 4.71-103.106-102.694-222.172-121.108-341.166-123.814v25.134c64.252 31.354 116 88.466 116 153.734 0 9.106-0.712 18.048-2.030 26.794-108.558 71.214-177.97 179.988-177.97 301.89 0 214.534 214.904 388.448 480 388.448zM996 89.314c0-55.942 36.314-104.898 92-131.772v-21.542c-103.126 2.318-197.786 18.102-287.142 106.126-21.14-2.65-42.794-4.040-64.858-4.040-95.47 0-183.408 25.758-253.614 69.040 144.674 0.506 281.26 46.854 384.834 130.672 52.208 42.252 93.394 91.826 122.414 147.348 30.766 58.866 46.366 121.582 46.366 186.406 0 10.448-0.45 20.836-1.258 31.168 72.57-59.934 117.258-141.622 117.258-231.676 0-104.488-60.158-197.722-154.24-258.764-1.142-7.496-1.76-15.16-1.76-22.966z" />
<glyph unicode="&#xea91;" glyph-name="facebook2" d="M928 960h-832c-52.8 0-96-43.2-96-96v-832c0-52.8 43.2-96 96-96h416v448h-128v128h128v64c0 105.8 86.2 192 192 192h128v-128h-128c-35.2 0-64-28.8-64-64v-64h192l-32-128h-160v-448h288c52.8 0 96 43.2 96 96v832c0 52.8-43.2 96-96 96z" />
<glyph unicode="&#xf107;" glyph-name="angle-down" horiz-adv-x="658" d="M614.286 530.286c0-4.571-2.286-9.714-5.714-13.143l-266.286-266.286c-3.429-3.429-8.571-5.714-13.143-5.714s-9.714 2.286-13.143 5.714l-266.286 266.286c-3.429 3.429-5.714 8.571-5.714 13.143s2.286 9.714 5.714 13.143l28.571 28.571c3.429 3.429 8 5.714 13.143 5.714 4.571 0 9.714-2.286 13.143-5.714l224.571-224.571 224.571 224.571c3.429 3.429 8.571 5.714 13.143 5.714s9.714-2.286 13.143-5.714l28.571-28.571c3.429-3.429 5.714-8.571 5.714-13.143z" />
</font>
</defs>
</svg>
